<?xml version="1.0" standalone="no"?>
<!DOCTYPE svg PUBLIC "-//W3C//DTD SVG 20010904//EN"
 "http://www.w3.org/TR/2001/REC-SVG-20010904/DTD/svg10.dtd">
<svg version="1.0" xmlns="http://www.w3.org/2000/svg"
 width="207.000000pt" height="159.000000pt" viewBox="0 0 207.000000 159.000000"
 preserveAspectRatio="xMidYMid meet">

<g transform="translate(0.000000,159.000000) scale(0.100000,-0.100000)"
fill="#000000" stroke="none">
<path d="M1010 1540 c-7 -16 -16 -30 -20 -30 -4 0 -7 -91 -6 -202 l1 -203 -36
-3 c-27 -2 -38 -8 -42 -23 -6 -24 -42 -23 -42 1 0 10 -12 16 -37 18 l-38 3 0
199 c0 171 -2 203 -17 229 -23 39 -33 39 -60 -2 -22 -32 -23 -42 -23 -231 l0
-198 -37 3 c-31 3 -38 0 -37 -14 1 -12 -6 -17 -22 -17 -16 0 -24 6 -24 18 0
13 -8 17 -32 17 l-33 0 -5 200 c-4 170 -8 205 -23 228 -9 15 -20 27 -23 27 -3
0 -16 -12 -29 -27 -24 -28 -24 -31 -25 -230 l0 -203 -34 0 c-26 0 -35 -5 -39
-21 -7 -26 -44 -22 -39 5 3 14 -3 17 -30 14 l-33 -3 -5 202 c-5 184 -7 204
-26 229 -28 38 -36 39 -62 1 -21 -32 -22 -42 -22 -230 l0 -197 -34 0 c-19 0
-37 -4 -40 -8 -2 -4 -6 -110 -7 -236 -2 -247 -3 -246 54 -246 l27 0 0 -260 c0
-287 6 -320 55 -320 45 0 49 24 50 312 l0 268 32 0 c22 0 36 6 43 20 14 25 26
25 33 0 4 -15 14 -20 41 -20 l36 0 0 -268 c0 -226 2 -271 16 -290 19 -27 60
-29 73 -3 6 11 12 131 13 287 l3 269 32 3 c25 3 34 9 39 28 8 30 22 31 26 2 2
-19 11 -24 43 -28 l40 -5 5 -265 c4 -186 9 -272 18 -287 18 -33 60 -31 72 3 6
14 10 142 10 289 l0 264 43 3 c35 2 43 7 45 25 2 13 7 23 12 23 5 0 10 -10 12
-23 2 -18 10 -23 41 -25 l37 -3 0 -102 c1 -144 10 -396 16 -434 5 -34 32 -57
51 -45 28 17 33 71 33 323 l0 259 40 0 c22 0 41 5 41 10 1 6 2 15 3 20 2 20
21 14 24 -7 3 -19 10 -23 42 -23 l38 0 4 -273 c3 -293 6 -307 54 -307 13 0 28
9 34 19 6 12 10 123 10 290 l0 271 39 0 c33 0 40 4 45 25 4 14 11 25 16 25 6
0 10 -11 10 -25 0 -22 4 -25 39 -25 l39 0 4 -267 c5 -300 8 -316 61 -311 43 4
44 13 46 321 l1 257 40 0 c36 0 40 3 40 25 0 14 5 25 10 25 6 0 10 -11 10 -25
0 -22 4 -25 39 -25 l40 0 3 -273 c3 -297 5 -307 58 -307 18 0 30 7 37 23 7 15
12 124 12 282 1 178 5 263 13 273 7 8 24 12 39 10 21 -3 29 0 33 16 8 28 7
415 0 443 -5 17 -15 23 -43 25 l-36 3 -5 195 c-5 185 -6 197 -29 228 l-23 33
-29 -27 -29 -28 0 -203 0 -203 -35 0 c-28 0 -35 -4 -35 -20 0 -13 -7 -20 -20
-20 -14 0 -20 7 -20 21 0 18 -5 21 -31 17 -17 -3 -32 0 -34 6 -2 6 -6 100 -8
208 -5 170 -8 200 -24 222 -25 35 -36 32 -61 -13 -20 -36 -22 -52 -22 -224 l0
-186 -32 -3 c-25 -2 -34 -8 -36 -25 -4 -30 -30 -29 -41 0 -8 20 -15 23 -44 19
l-36 -4 -3 203 c-3 185 -5 206 -23 231 -11 15 -22 27 -25 28 -3 0 -15 -15 -27
-33 -22 -32 -23 -42 -23 -230 l0 -197 -35 0 c-19 0 -35 -4 -35 -9 0 -15 -31
-42 -41 -36 -5 4 -9 15 -9 26 0 15 -7 19 -35 19 l-35 0 0 197 c0 196 0 197
-26 235 -15 21 -28 38 -29 38 -1 0 -8 -13 -15 -30z"/>
</g>
</svg>
