<?xml version="1.0" encoding="UTF-8"?>
<svg xmlns="http://www.w3.org/2000/svg" viewBox="0 0 104 208" width="104" height="208">
  <path d="M 2.00 2.00 L 3.00 87.00 L 10.00 102.00 L 26.00 118.00 L 25.00 157.00 L 20.00 165.00 L 20.00 203.00 L 29.00 206.00 L 82.00 205.00 L 83.00 173.00 L 79.00 160.00 L 77.00 119.00 L 96.00 95.00 L 102.00 67.00 L 100.00 66.00 L 103.00 65.00 L 100.00 62.00 L 103.00 58.00 L 100.00 57.00 L 103.00 48.00 L 100.00 42.00 L 103.00 39.00 L 100.00 38.00 L 103.00 36.00 L 101.00 36.00 L 103.00 32.00 L 101.00 3.00 L 87.00 5.00 L 77.00 19.00 L 77.00 56.00 L 74.00 71.00 L 62.00 82.00 L 48.00 84.00 L 37.00 79.00 L 28.00 68.00 L 27.00 23.00 L 23.00 13.00 L 12.00 3.00 Z" fill="#000" fill-rule="evenodd" />
</svg>
