<?xml version="1.0" encoding="UTF-8"?>
<svg xmlns="http://www.w3.org/2000/svg" viewBox="0 0 357 362" width="357" height="362">
  <path d="M 241.00 242.00 L 240.00 255.00 L 238.00 260.00 L 232.00 265.00 L 223.00 268.00 L 222.00 270.00 L 222.00 353.00 L 228.00 358.00 L 290.00 358.00 L 301.00 347.00 L 311.00 325.00 L 311.00 242.00 Z" fill="#000" fill-rule="evenodd" />
  <path d="M 44.00 242.00 L 43.00 243.00 L 43.00 318.00 L 46.00 331.00 L 55.00 349.00 L 62.00 356.00 L 67.00 358.00 L 129.00 357.00 L 133.00 351.00 L 132.00 269.00 L 122.00 265.00 L 117.00 260.00 L 115.00 252.00 L 115.00 243.00 L 114.00 242.00 Z" fill="#000" fill-rule="evenodd" />
  <path d="M 136.00 123.00 L 133.00 126.00 L 129.00 137.00 L 129.00 228.00 L 226.00 229.00 L 226.00 190.00 L 229.00 190.00 L 229.00 188.00 L 225.00 187.00 L 226.00 184.00 L 215.00 189.00 L 199.00 189.00 L 185.00 183.00 L 177.00 175.00 L 173.00 168.00 L 170.00 158.00 L 169.00 137.00 L 164.00 127.00 L 154.00 120.00 L 142.00 120.00 Z" fill="#000" fill-rule="evenodd" />
  <path d="M 351.00 65.00 L 326.00 65.00 L 326.00 119.00 L 325.00 120.00 L 326.00 121.00 L 326.00 155.00 L 325.00 156.00 L 326.00 157.00 L 326.00 227.00 L 336.00 221.00 L 345.00 212.00 L 350.00 201.00 L 352.00 202.00 L 350.00 201.00 L 352.00 191.00 L 352.00 71.00 L 351.00 70.00 L 352.00 66.00 Z" fill="#000" fill-rule="evenodd" />
  <path d="M 243.00 65.00 L 241.00 67.00 L 241.00 228.00 L 311.00 229.00 L 311.00 65.00 Z" fill="#000" fill-rule="evenodd" />
  <path d="M 44.00 65.00 L 44.00 229.00 L 114.00 229.00 L 115.00 67.00 L 112.00 65.00 Z" fill="#000" fill-rule="evenodd" />
  <path d="M 4.00 65.00 L 3.00 66.00 L 3.00 192.00 L 5.00 201.00 L 11.00 212.00 L 24.00 224.00 L 23.00 226.00 L 26.00 225.00 L 29.00 227.00 L 29.00 65.00 Z" fill="#000" fill-rule="evenodd" />
  <path d="M 3.00 16.00 L 4.00 51.00 L 111.00 51.00 L 121.00 55.00 L 129.00 68.00 L 129.00 109.00 L 151.00 104.00 L 170.00 111.00 L 182.00 127.00 L 188.00 163.00 L 196.00 171.00 L 208.00 174.00 L 220.00 169.00 L 226.00 158.00 L 226.00 68.00 L 229.00 60.00 L 243.00 51.00 L 352.00 51.00 L 350.00 10.00 L 354.00 12.00 L 347.00 5.00 L 11.00 5.00 Z" fill="#000" fill-rule="evenodd" />
</svg>
