<?xml version="1.0" encoding="UTF-8"?>
<svg xmlns="http://www.w3.org/2000/svg" viewBox="0 0 85 209" width="85" height="209">
  <path d="M 12.00 3.00 L 2.00 15.00 L 2.00 97.00 L 4.00 104.00 L 16.00 120.00 L 14.00 124.00 L 15.00 135.00 L 13.00 143.00 L 13.00 155.00 L 15.00 155.00 L 13.00 157.00 L 15.00 158.00 L 10.00 167.00 L 10.00 206.00 L 70.00 207.00 L 73.00 206.00 L 73.00 168.00 L 68.00 159.00 L 69.00 125.00 L 67.00 118.00 L 80.00 101.00 L 82.00 95.00 L 82.00 18.00 L 78.00 10.00 L 71.00 3.00 Z M 37.00 41.00 L 39.00 41.00 L 40.00 40.00 L 45.00 40.00 L 46.00 41.00 L 47.00 41.00 L 51.00 45.00 L 51.00 47.00 L 52.00 48.00 L 52.00 49.00 L 51.00 50.00 L 52.00 51.00 L 52.00 52.00 L 51.00 53.00 L 51.00 55.00 L 47.00 59.00 L 46.00 59.00 L 45.00 60.00 L 39.00 60.00 L 38.00 59.00 L 36.00 59.00 L 35.00 58.00 L 37.00 56.00 L 40.00 56.00 L 36.00 56.00 L 36.00 57.00 L 35.00 58.00 L 32.00 55.00 L 32.00 54.00 L 31.00 53.00 L 31.00 46.00 L 35.00 42.00 L 36.00 42.00 Z" fill="#000" fill-rule="evenodd" />
</svg>
