<?xml version="1.0" encoding="UTF-8"?>
<svg xmlns="http://www.w3.org/2000/svg" viewBox="0 0 424 141" width="424" height="141">
  <path d="M 401.00 40.00 L 400.00 41.00 L 399.00 41.00 L 399.00 75.00 L 398.00 76.00 L 399.00 77.00 L 399.00 98.00 L 412.00 98.00 L 413.00 97.00 L 414.00 97.00 L 416.00 95.00 L 416.00 94.00 L 418.00 92.00 L 418.00 90.00 L 419.00 89.00 L 419.00 50.00 L 418.00 49.00 L 418.00 47.00 L 417.00 46.00 L 417.00 45.00 L 412.00 41.00 L 408.00 41.00 L 407.00 40.00 L 406.00 41.00 L 405.00 40.00 Z" fill="#000" fill-rule="evenodd" />
  <path d="M 311.00 3.00 L 311.00 136.00 L 376.00 137.00 L 383.00 134.00 L 387.00 130.00 L 387.00 128.00 L 389.00 126.00 L 390.00 127.00 L 390.00 16.00 L 389.00 12.00 L 386.00 9.00 L 387.00 8.00 L 376.00 2.00 Z" fill="#000" fill-rule="evenodd" />
  <path d="M 6.00 9.00 L 3.00 20.00 L 3.00 120.00 L 7.00 131.00 L 17.00 136.00 L 297.00 136.00 L 296.00 2.00 L 21.00 2.00 Z" fill="#000" fill-rule="evenodd" />
</svg>
