<?xml version="1.0" encoding="UTF-8"?>
<svg xmlns="http://www.w3.org/2000/svg" viewBox="0 0 293 152" width="293" height="152">
  <path d="M 14.00 29.00 L 14.00 112.00 L 18.00 119.00 L 23.00 121.00 L 258.00 121.00 L 269.00 112.00 L 270.00 30.00 L 263.00 20.00 L 21.00 20.00 L 17.00 22.00 Z M 25.00 72.00 L 51.00 71.00 L 53.00 83.00 L 78.00 82.00 L 79.00 71.00 L 102.00 71.00 L 103.00 82.00 L 124.00 83.00 L 130.00 81.00 L 130.00 71.00 L 153.00 71.00 L 154.00 83.00 L 179.00 82.00 L 180.00 71.00 L 204.00 71.00 L 205.00 82.00 L 231.00 82.00 L 233.00 80.00 L 230.00 81.00 L 231.00 71.00 L 257.00 71.00 L 258.00 108.00 L 26.00 109.00 Z" fill="#000" fill-rule="evenodd" />
</svg>
