<?xml version="1.0" encoding="UTF-8"?>
<svg xmlns="http://www.w3.org/2000/svg" viewBox="0 0 303 173" width="303" height="173">
  <path d="M 20.00 26.00 L 19.00 142.00 L 25.00 149.00 L 274.00 150.00 L 280.00 147.00 L 282.00 27.00 L 275.00 20.00 L 26.00 20.00 Z M 37.00 38.00 L 61.00 37.00 L 61.00 54.00 L 105.00 54.00 L 106.00 37.00 L 195.00 37.00 L 196.00 53.00 L 239.00 53.00 L 240.00 37.00 L 262.00 37.00 L 264.00 39.00 L 264.00 132.00 L 38.00 133.00 Z M 135.00 67.00 L 134.00 68.00 L 121.00 68.00 L 120.00 69.00 L 120.00 101.00 L 137.00 101.00 L 137.00 69.00 Z M 208.00 67.00 L 208.00 101.00 L 224.00 101.00 L 225.00 100.00 L 225.00 69.00 L 224.00 68.00 L 209.00 68.00 Z M 77.00 68.00 L 76.00 69.00 L 76.00 101.00 L 94.00 101.00 L 93.00 100.00 L 93.00 68.00 Z M 164.00 68.00 L 164.00 102.00 L 163.00 103.00 L 165.00 101.00 L 181.00 101.00 L 181.00 69.00 L 180.00 68.00 Z" fill="#000" fill-rule="evenodd" />
</svg>
