<?xml version="1.0" encoding="UTF-8"?>
<svg xmlns="http://www.w3.org/2000/svg" viewBox="0 0 434 302" width="434" height="302">
  <path d="M 198.00 193.00 L 198.00 196.00 L 201.00 199.00 L 202.00 199.00 L 203.00 200.00 L 204.00 200.00 L 205.00 201.00 L 207.00 201.00 L 208.00 202.00 L 223.00 202.00 L 224.00 201.00 L 226.00 201.00 L 227.00 200.00 L 228.00 200.00 L 231.00 197.00 L 231.00 195.00 L 232.00 194.00 L 231.00 193.00 L 231.00 192.00 L 229.00 190.00 L 228.00 190.00 L 227.00 189.00 L 226.00 189.00 L 225.00 188.00 L 220.00 188.00 L 219.00 187.00 L 218.00 188.00 L 217.00 187.00 L 210.00 187.00 L 209.00 188.00 L 206.00 188.00 L 205.00 189.00 L 203.00 189.00 L 202.00 190.00 L 201.00 190.00 Z" fill="#000" fill-rule="evenodd" />
  <path d="M 44.00 117.00 L 44.00 122.00 L 46.00 124.00 L 47.00 124.00 L 48.00 125.00 L 49.00 125.00 L 50.00 126.00 L 52.00 126.00 L 53.00 127.00 L 65.00 127.00 L 66.00 126.00 L 69.00 126.00 L 70.00 125.00 L 72.00 125.00 L 73.00 124.00 L 74.00 124.00 L 75.00 123.00 L 76.00 123.00 L 76.00 121.00 L 77.00 120.00 L 77.00 119.00 L 76.00 118.00 L 76.00 117.00 L 75.00 116.00 L 74.00 116.00 L 72.00 114.00 L 70.00 114.00 L 69.00 113.00 L 65.00 113.00 L 64.00 112.00 L 54.00 112.00 L 53.00 113.00 L 51.00 113.00 L 50.00 114.00 L 49.00 113.00 L 49.00 114.00 L 48.00 115.00 L 47.00 115.00 L 46.00 114.00 L 47.00 115.00 L 45.00 117.00 Z" fill="#000" fill-rule="evenodd" />
  <path d="M 387.00 120.00 L 386.00 119.00 L 386.00 117.00 L 384.00 115.00 L 383.00 115.00 L 382.00 114.00 L 381.00 114.00 L 380.00 113.00 L 378.00 113.00 L 377.00 112.00 L 373.00 112.00 L 372.00 111.00 L 371.00 112.00 L 365.00 112.00 L 364.00 113.00 L 361.00 113.00 L 360.00 114.00 L 358.00 114.00 L 355.00 117.00 L 355.00 122.00 L 357.00 124.00 L 358.00 124.00 L 359.00 125.00 L 360.00 125.00 L 361.00 126.00 L 364.00 126.00 L 365.00 127.00 L 379.00 127.00 L 380.00 126.00 L 381.00 126.00 L 382.00 125.00 L 383.00 125.00 L 384.00 124.00 L 385.00 124.00 L 386.00 123.00 L 386.00 122.00 L 387.00 121.00 Z" fill="#000" fill-rule="evenodd" />
  <path d="M 96.00 81.00 L 96.00 120.00 L 102.00 127.00 L 207.00 177.00 L 223.00 177.00 L 239.00 171.00 L 320.00 132.00 L 334.00 121.00 L 334.00 81.00 L 252.00 122.00 L 223.00 134.00 L 208.00 134.00 L 197.00 131.00 L 166.00 116.00 L 161.00 111.00 L 159.00 112.00 L 114.00 91.00 L 111.00 88.00 L 112.00 86.00 L 109.00 88.00 Z" fill="#000" fill-rule="evenodd" />
  <path d="M 2.00 119.00 L 4.00 184.00 L 12.00 196.00 L 208.00 290.00 L 229.00 288.00 L 341.00 233.00 L 344.00 237.00 L 344.00 232.00 L 408.00 202.00 L 426.00 184.00 L 425.00 113.00 L 348.00 73.00 L 346.00 91.00 L 403.00 121.00 L 220.00 210.00 L 198.00 206.00 L 26.00 120.00 L 84.00 91.00 L 86.00 73.00 L 22.00 102.00 Z" fill="#000" fill-rule="evenodd" />
  <path d="M 100.00 61.00 L 101.00 69.00 L 109.00 75.00 L 210.00 123.00 L 224.00 122.00 L 258.00 105.00 L 261.00 107.00 L 260.00 105.00 L 325.00 73.00 L 330.00 66.00 L 329.00 59.00 L 321.00 53.00 L 223.00 6.00 L 206.00 7.00 L 175.00 22.00 L 173.00 21.00 L 173.00 23.00 L 127.00 45.00 L 126.00 42.00 L 125.00 46.00 L 113.00 51.00 Z" fill="#000" fill-rule="evenodd" />
</svg>
