<?xml version="1.0" encoding="UTF-8"?>
<svg xmlns="http://www.w3.org/2000/svg" viewBox="0 0 324 204" width="324" height="204">
  <path d="M 201.00 108.00 L 200.00 111.00 L 201.00 112.00 L 201.00 184.00 L 199.00 185.00 L 279.00 185.00 L 283.00 181.00 L 284.00 182.00 L 283.00 181.00 L 284.00 179.00 L 284.00 116.00 L 282.00 112.00 L 283.00 111.00 L 277.00 108.00 Z" fill="#000" fill-rule="evenodd" />
  <path d="M 200.00 17.00 L 201.00 18.00 L 201.00 91.00 L 200.00 92.00 L 201.00 94.00 L 200.00 95.00 L 278.00 95.00 L 282.00 94.00 L 284.00 88.00 L 284.00 25.00 L 282.00 20.00 L 279.00 18.00 L 201.00 18.00 Z" fill="#000" fill-rule="evenodd" />
  <path d="M 40.00 37.00 L 37.00 44.00 L 37.00 81.00 L 46.00 84.00 L 94.00 84.00 L 95.00 119.00 L 38.00 121.00 L 38.00 163.00 L 44.00 167.00 L 94.00 166.00 L 95.00 195.00 L 98.00 199.00 L 191.00 200.00 L 191.00 7.00 L 187.00 4.00 L 99.00 4.00 L 94.00 7.00 L 94.00 37.00 Z" fill="#000" fill-rule="evenodd" />
</svg>
