<?xml version="1.0" encoding="utf-8"?>
<svg xmlns="http://www.w3.org/2000/svg" viewBox="77.921 49.222 365 364.113" width="365px" height="364.113px">
  <path d="M 270.921 49.222 L 231.921 51.222 L 194.005 58.345 L 157.921 75.222 L 133.044 95.005 L 110.921 122.222 L 89.054 165.286 L 77.921 217.222 L 78.921 254.222 L 88.921 293.222 L 105.921 328.222 L 126.921 355.222 L 159.921 383.222 L 193.921 401.222 L 245.064 413.335 L 298.921 410.222 L 348.645 391.912 L 388.241 360.458 L 419.921 320.222 L 435.921 282.222 L 442.921 247.222 L 440.921 201.222 L 427.355 152.636 L 406.778 114.079 L 385.921 93.222 L 350.28 69.902 L 311.921 56.222 L 270.921 49.222 Z M 244.921 76.222 L 298.921 80.222 L 328.921 91.222 L 355.921 108.222 L 379.921 131.222 L 395.921 154.222 L 409.921 186.222 L 415.921 216.222 L 415.921 244.222 L 409.921 276.222 L 394.005 313.035 L 370.911 340.973 L 339.921 365.222 L 308.921 379.222 L 275.921 386.222 L 245.921 386.222 L 215.921 380.222 L 183.921 366.222 L 160.921 350.222 L 136.921 325.222 L 122.921 303.222 L 109.921 271.222 L 104.591 228.271 L 109.921 190.222 L 133.921 140.222 L 165.714 104.995 L 202.95 85.325 L 244.921 76.222 Z" fill="#000" fill-rule="evenodd" style="stroke-width: 1;" transform="matrix(1, 0, 0, 1, 3.552713678800501e-15, 0)"/>
  <ellipse style="paint-order: stroke; stroke: rgb(0, 0, 0);" cx="263.703" cy="228.404" rx="57.414" ry="57.414" transform="matrix(1, 0, 0, 1, 3.552713678800501e-15, 0)"/>
</svg>