<?xml version="1.0" encoding="UTF-8"?>
<svg xmlns="http://www.w3.org/2000/svg" viewBox="0 0 150 218" width="150" height="218">
  <path d="M 54.00 13.00 L 44.00 21.00 L 40.00 20.00 L 43.00 22.00 L 33.00 29.00 L 25.00 49.00 L 27.00 108.00 L 16.00 115.00 L 15.00 121.00 L 14.00 119.00 L 16.00 142.00 L 46.00 143.00 L 47.00 211.00 L 59.00 211.00 L 60.00 208.00 L 62.00 211.00 L 60.00 143.00 L 81.00 142.00 L 81.00 172.00 L 94.00 175.00 L 94.00 208.00 L 108.00 210.00 L 110.00 163.00 L 101.00 158.00 L 97.00 159.00 L 97.00 143.00 L 127.00 141.00 L 127.00 120.00 L 121.00 109.00 L 116.00 109.00 L 117.00 53.00 L 113.00 37.00 L 92.00 15.00 L 77.00 12.00 Z M 54.00 29.00 L 57.00 30.00 L 59.00 27.00 L 61.00 28.00 L 59.00 27.00 L 60.00 26.00 L 64.00 27.00 L 63.00 26.00 L 64.00 25.00 L 68.00 24.00 L 79.00 25.00 L 87.00 28.00 L 89.00 30.00 L 88.00 32.00 L 91.00 31.00 L 93.00 33.00 L 93.00 35.00 L 94.00 34.00 L 99.00 40.00 L 98.00 42.00 L 96.00 40.00 L 100.00 44.00 L 98.00 46.00 L 100.00 44.00 L 103.00 51.00 L 103.00 57.00 L 102.00 58.00 L 103.00 59.00 L 103.00 108.00 L 102.00 109.00 L 40.00 109.00 L 39.00 108.00 L 39.00 51.00 L 42.00 45.00 L 43.00 46.00 L 42.00 43.00 L 43.00 42.00 L 44.00 43.00 L 43.00 42.00 L 47.00 39.00 L 48.00 37.00 L 47.00 35.00 L 53.00 30.00 L 54.00 31.00 L 53.00 30.00 Z M 27.00 125.00 L 28.00 124.00 L 30.00 124.00 L 30.00 123.00 L 32.00 121.00 L 110.00 121.00 L 111.00 122.00 L 113.00 122.00 L 115.00 124.00 L 115.00 126.00 L 114.00 127.00 L 113.00 126.00 L 114.00 127.00 L 112.00 128.00 L 114.00 128.00 L 115.00 129.00 L 114.00 130.00 L 28.00 130.00 L 27.00 129.00 Z" fill="#000" fill-rule="evenodd" />
</svg>
