<?xml version="1.0" encoding="utf-8"?>
<svg xmlns="http://www.w3.org/2000/svg" viewBox="276.855 188.833 70 165.986" width="70px" height="165.986px">
  <path d="M 346.325 310.231 L 327.686 304.937 L 327.3 293.18 L 336.555 281.06 L 336.436 248.192 L 327.74 235.734 L 327.82 228.325 L 335.944 215.885 L 335.992 200.454 L 325.726 188.833 L 294.461 189.186 L 284.992 199.615 L 285.363 215.225 L 294.57 228.112 L 294.558 235.502 L 284.444 247.468 L 285.369 281.15 L 295.928 293.055 L 296.09 305.198 L 276.933 310.112 L 276.855 354.644 L 299.866 334.973 L 299.918 325.951 L 307.167 319.063 L 315.653 318.939 L 322.393 325.693 L 322.389 334.971 L 315.492 340.943 L 307.083 340.893 L 299.896 335.315 L 277.439 354.819 L 346.855 354.644 L 346.325 310.231 Z" fill="#000" fill-rule="evenodd" style="stroke-width: 1;" transform="matrix(0.9999999999999999, 0, 0, 0.9999999999999999, 0, 0)"/>
</svg>