<?xml version="1.0" encoding="UTF-8"?>
<svg xmlns="http://www.w3.org/2000/svg" viewBox="0 0 324 78" width="324" height="78">
  <path d="M 10.00 12.00 L 9.00 63.00 L 311.00 63.00 L 311.00 13.00 Z M 27.00 30.00 L 28.00 29.00 L 29.00 30.00 L 30.00 29.00 L 32.00 29.00 L 33.00 30.00 L 40.00 30.00 L 41.00 31.00 L 42.00 30.00 L 44.00 32.00 L 43.00 33.00 L 44.00 34.00 L 44.00 46.00 L 43.00 47.00 L 42.00 46.00 L 41.00 47.00 L 27.00 47.00 L 26.00 46.00 L 27.00 45.00 L 26.00 44.00 L 27.00 43.00 L 27.00 35.00 L 26.00 34.00 L 27.00 33.00 L 26.00 32.00 L 27.00 31.00 Z M 80.00 29.00 L 81.00 30.00 L 88.00 30.00 L 89.00 31.00 L 90.00 30.00 L 91.00 30.00 L 92.00 31.00 L 92.00 30.00 L 93.00 29.00 L 94.00 30.00 L 94.00 33.00 L 93.00 34.00 L 94.00 35.00 L 94.00 46.00 L 93.00 47.00 L 92.00 46.00 L 91.00 46.00 L 90.00 47.00 L 81.00 47.00 L 80.00 46.00 L 79.00 47.00 L 78.00 47.00 L 77.00 46.00 L 77.00 32.00 Z M 126.00 30.00 L 127.00 29.00 L 128.00 29.00 L 129.00 30.00 L 141.00 30.00 L 142.00 29.00 L 144.00 29.00 L 145.00 30.00 L 145.00 46.00 L 144.00 47.00 L 127.00 47.00 L 126.00 46.00 Z M 176.00 30.00 L 177.00 29.00 L 180.00 29.00 L 181.00 30.00 L 191.00 30.00 L 192.00 31.00 L 194.00 29.00 L 195.00 30.00 L 195.00 46.00 L 194.00 47.00 L 181.00 47.00 L 180.00 46.00 L 179.00 46.00 L 178.00 47.00 L 177.00 47.00 L 176.00 46.00 Z M 227.00 30.00 L 228.00 29.00 L 229.00 29.00 L 230.00 30.00 L 242.00 30.00 L 244.00 32.00 L 244.00 34.00 L 245.00 35.00 L 245.00 41.00 L 244.00 42.00 L 244.00 45.00 L 242.00 47.00 L 230.00 47.00 L 229.00 46.00 L 228.00 47.00 L 227.00 46.00 Z M 277.00 30.00 L 278.00 29.00 L 280.00 29.00 L 281.00 30.00 L 292.00 30.00 L 293.00 29.00 L 294.00 30.00 L 294.00 34.00 L 295.00 35.00 L 294.00 36.00 L 294.00 43.00 L 295.00 44.00 L 294.00 45.00 L 294.00 46.00 L 293.00 47.00 L 278.00 47.00 L 277.00 46.00 Z" fill="#000" fill-rule="evenodd" />
</svg>
