<?xml version="1.0" encoding="UTF-8"?>
<svg xmlns="http://www.w3.org/2000/svg" viewBox="0 0 313 149" width="313" height="149">
  <path d="M 18.00 69.00 L 19.00 75.00 L 64.00 75.00 L 66.00 93.00 L 75.00 104.00 L 86.00 107.00 L 111.00 107.00 L 119.00 105.00 L 123.00 99.00 L 190.00 99.00 L 194.00 105.00 L 203.00 107.00 L 227.00 107.00 L 235.00 104.00 L 236.00 106.00 L 249.00 87.00 L 249.00 75.00 L 273.00 76.00 L 295.00 73.00 L 293.00 61.00 L 249.00 61.00 L 249.00 47.00 L 247.00 47.00 L 249.00 45.00 L 246.00 44.00 L 246.00 40.00 L 236.00 30.00 L 202.00 29.00 L 190.00 37.00 L 123.00 37.00 L 118.00 30.00 L 81.00 29.00 L 83.00 30.00 L 75.00 33.00 L 65.00 45.00 L 64.00 60.00 L 27.00 60.00 L 20.00 63.00 Z M 86.00 42.00 L 93.00 42.00 L 94.00 43.00 L 94.00 93.00 L 93.00 94.00 L 86.00 94.00 L 85.00 93.00 L 82.00 92.00 L 78.00 87.00 L 78.00 86.00 L 79.00 85.00 L 80.00 86.00 L 80.00 85.00 L 81.00 84.00 L 80.00 84.00 L 78.00 82.00 L 78.00 59.00 L 79.00 58.00 L 79.00 57.00 L 78.00 56.00 L 78.00 54.00 L 79.00 53.00 L 80.00 54.00 L 80.00 55.00 L 80.00 53.00 L 79.00 52.00 L 80.00 51.00 L 79.00 50.00 L 79.00 47.00 L 82.00 44.00 L 83.00 44.00 L 84.00 45.00 L 83.00 44.00 Z M 204.00 42.00 L 205.00 43.00 L 205.00 51.00 L 204.00 52.00 L 204.00 59.00 L 205.00 60.00 L 205.00 91.00 L 204.00 92.00 L 204.00 93.00 L 203.00 94.00 L 201.00 92.00 L 200.00 92.00 L 197.00 88.00 L 198.00 87.00 L 196.00 87.00 L 195.00 86.00 L 195.00 85.00 L 195.00 86.00 L 194.00 87.00 L 175.00 87.00 L 174.00 86.00 L 173.00 87.00 L 172.00 87.00 L 171.00 86.00 L 172.00 85.00 L 171.00 84.00 L 172.00 83.00 L 172.00 50.00 L 173.00 49.00 L 185.00 49.00 L 186.00 50.00 L 187.00 49.00 L 188.00 49.00 L 189.00 50.00 L 190.00 50.00 L 191.00 49.00 L 194.00 49.00 L 195.00 50.00 L 195.00 49.00 L 196.00 48.00 L 197.00 48.00 L 201.00 43.00 Z M 221.00 42.00 L 222.00 42.00 L 223.00 43.00 L 224.00 42.00 L 228.00 42.00 L 229.00 43.00 L 230.00 43.00 L 234.00 47.00 L 234.00 48.00 L 236.00 51.00 L 236.00 58.00 L 235.00 59.00 L 234.00 58.00 L 234.00 57.00 L 234.00 59.00 L 235.00 59.00 L 236.00 60.00 L 236.00 84.00 L 235.00 85.00 L 234.00 84.00 L 235.00 85.00 L 235.00 87.00 L 234.00 88.00 L 234.00 89.00 L 230.00 93.00 L 228.00 93.00 L 227.00 92.00 L 228.00 93.00 L 227.00 94.00 L 225.00 94.00 L 224.00 93.00 L 221.00 94.00 L 220.00 93.00 L 220.00 91.00 L 219.00 90.00 L 219.00 76.00 L 220.00 75.00 L 220.00 66.00 L 219.00 65.00 L 219.00 44.00 Z M 111.00 43.00 L 112.00 44.00 L 111.00 45.00 L 112.00 46.00 L 111.00 45.00 L 112.00 44.00 L 113.00 44.00 L 114.00 45.00 L 114.00 48.00 L 115.00 49.00 L 116.00 48.00 L 117.00 48.00 L 118.00 49.00 L 121.00 49.00 L 123.00 51.00 L 124.00 51.00 L 125.00 52.00 L 125.00 84.00 L 124.00 85.00 L 123.00 84.00 L 123.00 83.00 L 123.00 84.00 L 125.00 86.00 L 124.00 87.00 L 118.00 87.00 L 117.00 86.00 L 116.00 86.00 L 117.00 87.00 L 114.00 90.00 L 114.00 91.00 L 113.00 92.00 L 112.00 92.00 L 110.00 94.00 L 109.00 93.00 L 109.00 44.00 L 110.00 43.00 Z M 142.00 49.00 L 156.00 49.00 L 157.00 50.00 L 157.00 59.00 L 156.00 60.00 L 156.00 67.00 L 157.00 68.00 L 157.00 75.00 L 156.00 76.00 L 156.00 77.00 L 157.00 78.00 L 157.00 86.00 L 156.00 87.00 L 141.00 87.00 L 140.00 86.00 L 140.00 52.00 L 141.00 51.00 L 141.00 50.00 Z" fill="#000" fill-rule="evenodd" />
</svg>
