<?xml version="1.0" encoding="UTF-8"?>
<svg xmlns="http://www.w3.org/2000/svg" viewBox="0 0 282 148" width="282" height="148">
  <path d="M 258.00 64.00 L 253.00 49.00 L 251.00 49.00 L 248.00 42.00 L 238.00 33.00 L 222.00 27.00 L 56.00 27.00 L 48.00 29.00 L 43.00 34.00 L 41.00 33.00 L 28.00 48.00 L 23.00 61.00 L 23.00 80.00 L 28.00 95.00 L 31.00 96.00 L 33.00 101.00 L 55.00 114.00 L 224.00 115.00 L 228.00 112.00 L 231.00 114.00 L 231.00 111.00 L 246.00 103.00 L 249.00 97.00 L 252.00 98.00 L 249.00 96.00 L 253.00 95.00 L 251.00 94.00 L 257.00 80.00 Z M 35.00 68.00 L 39.00 56.00 L 49.00 45.00 L 66.00 39.00 L 215.00 39.00 L 230.00 44.00 L 237.00 51.00 L 236.00 52.00 L 239.00 53.00 L 244.00 64.00 L 244.00 78.00 L 241.00 77.00 L 243.00 81.00 L 239.00 88.00 L 237.00 86.00 L 239.00 89.00 L 237.00 91.00 L 235.00 90.00 L 236.00 92.00 L 234.00 94.00 L 233.00 90.00 L 231.00 93.00 L 234.00 94.00 L 220.00 102.00 L 62.00 102.00 L 51.00 98.00 L 41.00 89.00 L 35.00 73.00 L 37.00 70.00 Z M 56.00 78.00 L 58.00 76.00 L 61.00 80.00 L 65.00 82.00 L 215.00 82.00 L 221.00 79.00 L 220.00 78.00 L 222.00 76.00 L 221.00 65.00 L 222.00 64.00 L 220.00 64.00 L 219.00 61.00 L 218.00 62.00 L 215.00 60.00 L 65.00 60.00 L 61.00 62.00 L 58.00 66.00 L 57.00 71.00 L 58.00 75.00 Z" fill="#000" fill-rule="evenodd" />
</svg>
