<?xml version="1.0" encoding="UTF-8"?>
<svg xmlns="http://www.w3.org/2000/svg" viewBox="0 0 145 204" width="145" height="204">
  <path d="M 50.00 3.00 L 39.00 12.00 L 37.00 72.00 L 34.00 79.00 L 36.00 85.00 L 23.00 96.00 L 25.00 97.00 L 18.00 110.00 L 17.00 156.00 L 50.00 156.00 L 50.00 173.00 L 40.00 182.00 L 2.00 183.00 L 3.00 201.00 L 42.00 200.00 L 57.00 193.00 L 66.00 181.00 L 68.00 158.00 L 71.00 155.00 L 75.00 156.00 L 76.00 175.00 L 81.00 186.00 L 93.00 197.00 L 111.00 201.00 L 142.00 201.00 L 142.00 183.00 L 105.00 182.00 L 96.00 176.00 L 93.00 168.00 L 94.00 156.00 L 126.00 156.00 L 125.00 109.00 L 120.00 94.00 L 118.00 96.00 L 107.00 85.00 L 104.00 9.00 L 88.00 2.00 Z M 53.00 15.00 L 55.00 16.00 L 57.00 19.00 L 57.00 21.00 L 56.00 22.00 L 57.00 23.00 L 56.00 24.00 L 56.00 40.00 L 54.00 41.00 L 56.00 42.00 L 55.00 43.00 L 56.00 44.00 L 55.00 45.00 L 55.00 69.00 L 54.00 70.00 L 55.00 71.00 L 54.00 72.00 L 54.00 88.00 L 53.00 89.00 L 54.00 90.00 L 53.00 91.00 L 53.00 101.00 L 49.00 104.00 L 47.00 102.00 L 47.00 87.00 L 48.00 86.00 L 47.00 84.00 L 48.00 83.00 L 48.00 65.00 L 49.00 64.00 L 48.00 62.00 L 49.00 61.00 L 49.00 45.00 L 50.00 44.00 L 49.00 43.00 L 50.00 41.00 L 50.00 18.00 Z M 72.00 15.00 L 74.00 16.00 L 73.00 18.00 L 74.00 17.00 L 75.00 18.00 L 75.00 51.00 L 76.00 52.00 L 75.00 53.00 L 76.00 54.00 L 76.00 102.00 L 74.00 105.00 L 70.00 105.00 L 69.00 104.00 L 69.00 19.00 Z M 90.00 15.00 L 94.00 17.00 L 94.00 32.00 L 95.00 33.00 L 94.00 34.00 L 95.00 36.00 L 94.00 37.00 L 95.00 38.00 L 95.00 57.00 L 96.00 58.00 L 95.00 60.00 L 96.00 61.00 L 96.00 76.00 L 97.00 77.00 L 96.00 79.00 L 97.00 80.00 L 96.00 82.00 L 97.00 83.00 L 97.00 103.00 L 96.00 104.00 L 92.00 104.00 L 91.00 103.00 L 91.00 91.00 L 90.00 90.00 L 90.00 59.00 L 89.00 58.00 L 89.00 43.00 L 88.00 42.00 L 89.00 40.00 L 88.00 39.00 L 88.00 24.00 L 87.00 23.00 L 87.00 17.00 Z" fill="#000" fill-rule="evenodd" />
</svg>
