<?xml version="1.0" encoding="UTF-8"?>
<svg xmlns="http://www.w3.org/2000/svg" viewBox="0 0 69 210" width="69" height="210">
  <path d="M 24.00 2.00 L 21.00 5.00 L 16.00 25.00 L 16.00 115.00 L 2.00 116.00 L 8.00 126.00 L 8.00 155.00 L 2.00 169.00 L 3.00 206.00 L 51.00 206.00 L 52.00 208.00 L 53.00 206.00 L 54.00 208.00 L 57.00 206.00 L 59.00 209.00 L 68.00 209.00 L 65.00 206.00 L 66.00 169.00 L 61.00 161.00 L 61.00 123.00 L 66.00 116.00 L 51.00 116.00 L 52.00 23.00 L 46.00 2.00 Z M 32.00 27.00 L 36.00 27.00 L 40.00 31.00 L 40.00 33.00 L 41.00 34.00 L 41.00 36.00 L 40.00 37.00 L 40.00 39.00 L 38.00 41.00 L 37.00 41.00 L 36.00 40.00 L 36.00 39.00 L 36.00 40.00 L 37.00 41.00 L 36.00 42.00 L 33.00 42.00 L 32.00 41.00 L 31.00 41.00 L 29.00 39.00 L 29.00 38.00 L 28.00 37.00 L 28.00 31.00 Z" fill="#000" fill-rule="evenodd" />
</svg>
