<?xml version="1.0" encoding="UTF-8"?>
<svg xmlns="http://www.w3.org/2000/svg" viewBox="0 0 425 355" width="425" height="355">
  <path d="M 10.00 129.00 L 5.00 143.00 L 5.00 336.00 L 13.00 347.00 L 330.00 349.00 L 339.00 341.00 L 341.00 202.00 L 334.00 191.00 L 127.00 189.00 L 123.00 142.00 L 114.00 129.00 L 20.00 128.00 L 11.00 132.00 Z M 57.00 148.00 L 59.00 148.00 L 60.00 147.00 L 67.00 147.00 L 68.00 148.00 L 69.00 148.00 L 72.00 151.00 L 73.00 151.00 L 75.00 153.00 L 75.00 154.00 L 77.00 156.00 L 77.00 157.00 L 78.00 158.00 L 78.00 168.00 L 77.00 169.00 L 77.00 170.00 L 73.00 174.00 L 72.00 174.00 L 70.00 176.00 L 68.00 176.00 L 67.00 177.00 L 60.00 177.00 L 59.00 176.00 L 59.00 174.00 L 57.00 174.00 L 56.00 173.00 L 55.00 173.00 L 54.00 174.00 L 50.00 170.00 L 50.00 169.00 L 49.00 168.00 L 49.00 163.00 L 48.00 162.00 L 48.00 161.00 L 49.00 160.00 L 49.00 157.00 L 50.00 156.00 L 51.00 157.00 L 50.00 156.00 L 50.00 155.00 Z" fill="#000" fill-rule="evenodd" />
  <path d="M 377.00 62.00 L 366.00 47.00 L 349.00 44.00 L 168.00 92.00 L 143.00 96.00 L 76.00 117.00 L 111.00 117.00 L 127.00 124.00 L 134.00 138.00 L 137.00 173.00 L 282.00 119.00 L 283.00 122.00 L 286.00 121.00 L 285.00 118.00 L 310.00 109.00 L 312.00 112.00 L 315.00 111.00 L 314.00 108.00 L 318.00 111.00 L 326.00 109.00 L 322.00 107.00 L 318.00 110.00 L 317.00 107.00 L 369.00 87.00 L 377.00 74.00 Z" fill="#000" fill-rule="evenodd" />
  <path d="M 351.00 0.00 L 329.00 5.00 L 308.00 18.00 L 307.00 16.00 L 308.00 18.00 L 303.00 24.00 L 299.00 25.00 L 301.00 26.00 L 297.00 29.00 L 298.00 31.00 L 295.00 31.00 L 297.00 32.00 L 294.00 33.00 L 289.00 47.00 L 344.00 33.00 L 359.00 32.00 L 377.00 41.00 L 384.00 49.00 L 388.00 59.00 L 389.00 71.00 L 388.00 77.00 L 385.00 77.00 L 387.00 79.00 L 382.00 90.00 L 368.00 101.00 L 313.00 121.00 L 323.00 129.00 L 337.00 134.00 L 361.00 136.00 L 380.00 131.00 L 388.00 126.00 L 390.00 128.00 L 398.00 127.00 L 395.00 126.00 L 396.00 124.00 L 392.00 124.00 L 400.00 118.00 L 402.00 119.00 L 400.00 118.00 L 409.00 110.00 L 416.00 96.00 L 421.00 77.00 L 421.00 61.00 L 415.00 40.00 L 417.00 37.00 L 414.00 37.00 L 400.00 17.00 L 371.00 2.00 Z" fill="#000" fill-rule="evenodd" />
</svg>
