<?xml version="1.0" encoding="UTF-8"?>
<svg xmlns="http://www.w3.org/2000/svg" viewBox="0 0 277 393" width="277" height="393">
  <path d="M 12.00 55.00 L 9.00 367.00 L 13.00 379.00 L 26.00 387.00 L 253.00 387.00 L 261.00 383.00 L 268.00 369.00 L 267.00 58.00 L 252.00 48.00 L 27.00 48.00 Z" fill="#000" fill-rule="evenodd" />
  <path d="M 176.00 13.00 L 176.00 16.00 L 175.00 17.00 L 175.00 18.00 L 176.00 19.00 L 176.00 31.00 L 175.00 32.00 L 175.00 34.00 L 176.00 35.00 L 230.00 35.00 L 231.00 34.00 L 231.00 14.00 L 230.00 13.00 L 230.00 12.00 L 226.00 8.00 L 182.00 8.00 L 181.00 9.00 L 180.00 9.00 Z" fill="#000" fill-rule="evenodd" />
  <path d="M 37.00 11.00 L 37.00 30.00 L 39.00 33.00 L 38.00 35.00 L 40.00 34.00 L 42.00 35.00 L 106.00 35.00 L 109.00 33.00 L 110.00 33.00 L 111.00 34.00 L 110.00 35.00 L 111.00 35.00 L 110.00 33.00 L 113.00 30.00 L 113.00 8.00 L 105.00 4.00 L 44.00 4.00 L 40.00 6.00 Z" fill="#000" fill-rule="evenodd" />
</svg>
