<?xml version="1.0" encoding="UTF-8"?>
<svg xmlns="http://www.w3.org/2000/svg" viewBox="0 0 437 267" width="437" height="267">
  <path d="M 165.00 190.00 L 159.00 191.00 L 158.00 193.00 L 158.00 198.00 L 157.00 199.00 L 158.00 200.00 L 158.00 202.00 L 157.00 203.00 L 157.00 220.00 L 156.00 221.00 L 151.00 222.00 L 149.00 224.00 L 147.00 224.00 L 145.00 226.00 L 140.00 228.00 L 131.00 234.00 L 125.00 236.00 L 122.00 239.00 L 123.00 242.00 L 125.00 244.00 L 149.00 256.00 L 152.00 256.00 L 153.00 257.00 L 154.00 256.00 L 161.00 255.00 L 174.00 248.00 L 175.00 248.00 L 176.00 250.00 L 177.00 249.00 L 175.00 248.00 L 186.00 242.00 L 192.00 236.00 L 192.00 226.00 L 194.00 225.00 L 194.00 224.00 L 193.00 225.00 L 192.00 224.00 L 192.00 217.00 L 194.00 216.00 L 194.00 215.00 L 193.00 216.00 L 192.00 215.00 L 192.00 206.00 L 188.00 201.00 L 185.00 200.00 L 184.00 199.00 L 185.00 198.00 L 184.00 199.00 L 182.00 199.00 Z" fill="#000" fill-rule="evenodd" />
  <path d="M 51.00 134.00 L 45.00 134.00 L 41.00 140.00 L 40.00 138.00 L 39.00 138.00 L 39.00 139.00 L 42.00 141.00 L 41.00 143.00 L 41.00 161.00 L 40.00 162.00 L 40.00 164.00 L 38.00 166.00 L 34.00 168.00 L 32.00 168.00 L 29.00 171.00 L 26.00 171.00 L 24.00 173.00 L 8.00 180.00 L 8.00 186.00 L 16.00 190.00 L 18.00 190.00 L 20.00 192.00 L 24.00 194.00 L 26.00 194.00 L 33.00 198.00 L 35.00 198.00 L 36.00 199.00 L 42.00 199.00 L 49.00 195.00 L 51.00 195.00 L 57.00 191.00 L 59.00 191.00 L 66.00 187.00 L 68.00 187.00 L 74.00 183.00 L 75.00 181.00 L 75.00 174.00 L 76.00 173.00 L 75.00 172.00 L 76.00 171.00 L 75.00 169.00 L 76.00 168.00 L 76.00 160.00 L 75.00 159.00 L 76.00 157.00 L 75.00 155.00 L 76.00 154.00 L 75.00 153.00 L 75.00 149.00 L 74.00 147.00 L 68.00 142.00 L 66.00 142.00 Z" fill="#000" fill-rule="evenodd" />
  <path d="M 363.00 147.00 L 363.00 176.00 L 365.00 181.00 L 369.00 184.00 L 373.00 185.00 L 374.00 187.00 L 379.00 188.00 L 397.00 197.00 L 401.00 197.00 L 409.00 193.00 L 411.00 193.00 L 422.00 187.00 L 424.00 187.00 L 430.00 183.00 L 430.00 177.00 L 429.00 176.00 L 427.00 176.00 L 414.00 169.00 L 412.00 169.00 L 404.00 165.00 L 401.00 162.00 L 401.00 161.00 L 399.00 162.00 L 397.00 160.00 L 398.00 159.00 L 398.00 152.00 L 397.00 151.00 L 398.00 150.00 L 397.00 149.00 L 398.00 147.00 L 397.00 146.00 L 398.00 144.00 L 397.00 143.00 L 398.00 142.00 L 397.00 141.00 L 397.00 136.00 L 395.00 133.00 L 387.00 133.00 L 378.00 138.00 L 376.00 138.00 L 372.00 140.00 L 370.00 142.00 L 366.00 143.00 Z" fill="#000" fill-rule="evenodd" />
  <path d="M 45.00 123.00 L 83.00 143.00 L 86.00 185.00 L 145.00 214.00 L 155.00 182.00 L 165.00 180.00 L 186.00 189.00 L 200.00 204.00 L 200.00 242.00 L 206.00 247.00 L 227.00 246.00 L 312.00 204.00 L 316.00 207.00 L 315.00 203.00 L 354.00 183.00 L 355.00 143.00 L 363.00 134.00 L 393.00 121.00 L 393.00 91.00 L 321.00 53.00 L 317.00 54.00 L 323.00 76.00 L 370.00 98.00 L 219.00 171.00 L 71.00 101.00 L 71.00 95.00 L 118.00 72.00 L 117.00 53.00 L 47.00 89.00 Z" fill="#000" fill-rule="evenodd" />
  <path d="M 213.00 1.00 L 207.00 4.00 L 204.00 3.00 L 204.00 5.00 L 181.00 16.00 L 178.00 15.00 L 180.00 16.00 L 178.00 18.00 L 160.00 25.00 L 157.00 28.00 L 144.00 33.00 L 141.00 32.00 L 143.00 33.00 L 138.00 37.00 L 134.00 36.00 L 129.00 49.00 L 129.00 94.00 L 134.00 101.00 L 200.00 134.00 L 213.00 139.00 L 224.00 139.00 L 234.00 137.00 L 235.00 134.00 L 240.00 134.00 L 241.00 132.00 L 244.00 133.00 L 242.00 133.00 L 242.00 131.00 L 306.00 99.00 L 309.00 93.00 L 308.00 45.00 L 302.00 37.00 L 224.00 1.00 Z" fill="#000" fill-rule="evenodd" />
</svg>
