<?xml version="1.0" encoding="UTF-8"?>
<svg xmlns="http://www.w3.org/2000/svg" viewBox="0 0 430 364" width="430" height="364">
  <path d="M 422.00 140.00 L 415.00 131.00 L 16.00 133.00 L 6.00 145.00 L 6.00 174.00 L 41.00 176.00 L 40.00 334.00 L 44.00 346.00 L 65.00 356.00 L 380.00 353.00 L 390.00 339.00 L 390.00 175.00 L 425.00 173.00 Z" fill="#000" fill-rule="evenodd" />
  <path d="M 355.00 108.00 L 345.00 67.00 L 320.00 18.00 L 311.00 10.00 L 301.00 8.00 L 291.00 11.00 L 282.00 20.00 L 280.00 17.00 L 282.00 20.00 L 249.00 42.00 L 234.00 49.00 L 222.00 51.00 L 221.00 54.00 L 210.00 58.00 L 157.00 69.00 L 92.00 71.00 L 81.00 81.00 L 79.00 80.00 L 81.00 82.00 L 75.00 116.00 L 81.00 118.00 L 355.00 117.00 Z" fill="#000" fill-rule="evenodd" />
</svg>
