<?xml version="1.0" encoding="UTF-8"?>
<svg xmlns="http://www.w3.org/2000/svg" viewBox="0 0 208 157" width="208" height="157">
  <path d="M 156.00 85.00 L 156.00 140.00 L 167.00 140.00 L 168.00 141.00 L 169.00 140.00 L 171.00 140.00 L 172.00 141.00 L 174.00 140.00 L 175.00 141.00 L 176.00 140.00 L 201.00 140.00 L 202.00 139.00 L 204.00 139.00 L 205.00 137.00 L 205.00 85.00 L 204.00 84.00 L 202.00 85.00 L 201.00 84.00 L 199.00 85.00 L 198.00 84.00 L 196.00 85.00 L 195.00 84.00 L 193.00 85.00 L 192.00 84.00 L 191.00 85.00 L 189.00 84.00 L 188.00 85.00 L 186.00 84.00 L 185.00 85.00 L 183.00 84.00 L 182.00 85.00 L 181.00 84.00 L 180.00 85.00 L 178.00 84.00 L 176.00 85.00 L 175.00 84.00 L 173.00 85.00 L 171.00 84.00 L 170.00 85.00 Z" fill="#000" fill-rule="evenodd" />
  <path d="M 156.00 16.00 L 156.00 70.00 L 205.00 70.00 L 205.00 28.00 L 206.00 27.00 L 205.00 26.00 L 205.00 16.00 Z" fill="#000" fill-rule="evenodd" />
  <path d="M 45.00 14.00 L 32.00 20.00 L 2.00 39.00 L 2.00 116.00 L 18.00 127.00 L 31.00 133.00 L 43.00 141.00 L 82.00 142.00 L 82.00 15.00 L 83.00 14.00 Z" fill="#000" fill-rule="evenodd" />
  <path d="M 86.00 2.00 L 86.00 154.00 L 87.00 155.00 L 90.00 153.00 L 93.00 155.00 L 101.00 155.00 L 102.00 153.00 L 104.00 155.00 L 153.00 155.00 L 152.00 2.00 Z" fill="#000" fill-rule="evenodd" />
</svg>
