<?xml version="1.0" encoding="UTF-8"?>
<svg xmlns="http://www.w3.org/2000/svg" viewBox="0 0 291 186" width="291" height="186">
  <path d="M 21.00 67.00 L 22.00 82.00 L 23.00 79.00 L 75.00 81.00 L 72.00 109.00 L 24.00 110.00 L 22.00 107.00 L 20.00 122.00 L 76.00 124.00 L 78.00 134.00 L 89.00 149.00 L 107.00 149.00 L 116.00 143.00 L 135.00 150.00 L 253.00 149.00 L 253.00 146.00 L 259.00 145.00 L 258.00 141.00 L 267.00 125.00 L 268.00 108.00 L 271.00 109.00 L 268.00 84.00 L 271.00 78.00 L 267.00 74.00 L 266.00 61.00 L 257.00 47.00 L 260.00 44.00 L 252.00 40.00 L 129.00 40.00 L 117.00 47.00 L 116.00 43.00 L 113.00 45.00 L 107.00 40.00 L 94.00 41.00 L 92.00 38.00 L 93.00 41.00 L 85.00 45.00 L 76.00 58.00 L 76.00 66.00 Z M 96.00 53.00 L 103.00 53.00 L 109.00 57.00 L 106.00 58.00 L 108.00 60.00 L 107.00 59.00 L 109.00 57.00 L 112.00 59.00 L 110.00 62.00 L 109.00 74.00 L 108.00 75.00 L 107.00 72.00 L 106.00 72.00 L 108.00 75.00 L 108.00 82.00 L 107.00 83.00 L 106.00 81.00 L 107.00 83.00 L 107.00 106.00 L 106.00 107.00 L 108.00 108.00 L 108.00 115.00 L 107.00 116.00 L 108.00 115.00 L 109.00 116.00 L 109.00 122.00 L 110.00 123.00 L 111.00 130.00 L 110.00 131.00 L 108.00 130.00 L 109.00 132.00 L 107.00 134.00 L 105.00 133.00 L 106.00 134.00 L 103.00 136.00 L 102.00 135.00 L 101.00 137.00 L 99.00 134.00 L 96.00 136.00 L 95.00 135.00 L 96.00 134.00 L 95.00 135.00 L 94.00 134.00 L 96.00 131.00 L 94.00 133.00 L 90.00 126.00 L 90.00 123.00 L 87.00 114.00 L 87.00 103.00 L 86.00 102.00 L 87.00 75.00 L 88.00 74.00 L 95.00 74.00 L 96.00 76.00 L 104.00 74.00 L 102.00 73.00 L 103.00 72.00 L 101.00 75.00 L 100.00 74.00 L 101.00 65.00 L 103.00 61.00 L 93.00 61.00 L 92.00 60.00 L 92.00 58.00 L 94.00 56.00 L 96.00 56.00 L 95.00 54.00 Z M 124.00 59.00 L 126.00 58.00 L 126.00 60.00 L 129.00 58.00 L 130.00 60.00 L 132.00 57.00 L 133.00 59.00 L 135.00 59.00 L 131.00 56.00 L 134.00 53.00 L 225.00 53.00 L 226.00 54.00 L 224.00 55.00 L 225.00 56.00 L 223.00 59.00 L 224.00 64.00 L 221.00 72.00 L 220.00 108.00 L 222.00 118.00 L 221.00 121.00 L 224.00 125.00 L 224.00 129.00 L 226.00 132.00 L 223.00 137.00 L 140.00 137.00 L 134.00 136.00 L 134.00 134.00 L 132.00 135.00 L 125.00 131.00 L 124.00 129.00 L 126.00 129.00 L 126.00 126.00 L 124.00 128.00 L 124.00 124.00 L 122.00 124.00 L 123.00 120.00 L 121.00 118.00 L 122.00 115.00 L 120.00 112.00 L 119.00 86.00 L 122.00 82.00 L 123.00 83.00 L 122.00 81.00 L 121.00 83.00 L 120.00 82.00 Z M 215.00 60.00 L 214.00 61.00 L 132.00 61.00 L 131.00 63.00 L 130.00 62.00 L 132.00 64.00 L 131.00 65.00 L 131.00 69.00 L 130.00 70.00 L 128.00 69.00 L 129.00 70.00 L 128.00 71.00 L 126.00 71.00 L 127.00 71.00 L 128.00 73.00 L 126.00 74.00 L 128.00 75.00 L 131.00 75.00 L 132.00 74.00 L 215.00 74.00 L 215.00 73.00 L 213.00 72.00 L 213.00 70.00 L 214.00 69.00 L 216.00 71.00 L 214.00 69.00 Z M 243.00 53.00 L 246.00 53.00 L 247.00 54.00 L 245.00 55.00 L 247.00 54.00 L 248.00 55.00 L 247.00 57.00 L 248.00 59.00 L 249.00 57.00 L 251.00 60.00 L 251.00 62.00 L 250.00 63.00 L 251.00 62.00 L 253.00 65.00 L 252.00 66.00 L 253.00 67.00 L 252.00 69.00 L 254.00 71.00 L 253.00 72.00 L 255.00 74.00 L 255.00 77.00 L 256.00 78.00 L 256.00 111.00 L 253.00 117.00 L 254.00 118.00 L 253.00 120.00 L 253.00 124.00 L 251.00 128.00 L 249.00 130.00 L 248.00 129.00 L 247.00 132.00 L 245.00 134.00 L 243.00 133.00 L 240.00 133.00 L 239.00 132.00 L 240.00 131.00 L 238.00 130.00 L 238.00 128.00 L 235.00 121.00 L 235.00 118.00 L 236.00 116.00 L 234.00 115.00 L 234.00 111.00 L 233.00 110.00 L 233.00 103.00 L 232.00 102.00 L 232.00 87.00 L 233.00 86.00 L 233.00 79.00 L 235.00 76.00 L 234.00 75.00 L 234.00 72.00 L 235.00 71.00 L 237.00 72.00 L 235.00 70.00 L 236.00 68.00 L 237.00 69.00 L 236.00 68.00 L 236.00 64.00 L 237.00 62.00 L 239.00 61.00 L 238.00 60.00 L 240.00 57.00 L 241.00 58.00 L 240.00 56.00 Z" fill="#000" fill-rule="evenodd" />
</svg>
