<?xml version="1.0" encoding="UTF-8"?>
<svg xmlns="http://www.w3.org/2000/svg" viewBox="0 0 182 212" width="182" height="212">
  <path d="M 9.00 4.00 L 1.00 16.00 L 4.00 201.00 L 18.00 209.00 L 157.00 211.00 L 156.00 209.00 L 170.00 209.00 L 170.00 206.00 L 174.00 211.00 L 179.00 207.00 L 177.00 10.00 L 164.00 0.00 L 18.00 0.00 Z M 19.00 52.00 L 31.00 53.00 L 31.00 112.00 L 65.00 114.00 L 69.00 112.00 L 69.00 53.00 L 82.00 53.00 L 82.00 186.00 L 77.00 189.00 L 60.00 194.00 L 39.00 194.00 L 18.00 186.00 Z M 100.00 52.00 L 112.00 53.00 L 112.00 113.00 L 149.00 113.00 L 149.00 53.00 L 162.00 53.00 L 163.00 186.00 L 146.00 193.00 L 129.00 195.00 L 115.00 193.00 L 99.00 186.00 Z" fill="#000" fill-rule="evenodd" />
</svg>
