<?xml version="1.0" encoding="UTF-8"?>
<svg xmlns="http://www.w3.org/2000/svg" viewBox="0 0 149 208" width="149" height="208">
  <path d="M 104.00 0.00 L 88.00 17.00 L 90.00 18.00 L 88.00 20.00 L 86.00 18.00 L 86.00 23.00 L 50.00 63.00 L 52.00 64.00 L 49.00 65.00 L 50.00 67.00 L 47.00 67.00 L 49.00 68.00 L 31.00 91.00 L 20.00 101.00 L 18.00 107.00 L 11.00 111.00 L 12.00 114.00 L 7.00 115.00 L 2.00 125.00 L 60.00 126.00 L 46.00 206.00 L 62.00 190.00 L 61.00 188.00 L 70.00 177.00 L 77.00 173.00 L 76.00 170.00 L 110.00 128.00 L 119.00 122.00 L 117.00 120.00 L 120.00 120.00 L 118.00 118.00 L 125.00 110.00 L 127.00 111.00 L 126.00 108.00 L 131.00 111.00 L 131.00 108.00 L 127.00 107.00 L 147.00 82.00 L 89.00 81.00 Z" fill="#000" fill-rule="evenodd" />
</svg>
