<?xml version="1.0" encoding="UTF-8"?>
<svg xmlns="http://www.w3.org/2000/svg" viewBox="0 0 156 209" width="156" height="209">
  <path d="M 40.00 2.00 L 2.00 41.00 L 2.00 83.00 L 13.00 86.00 L 12.00 106.00 L 2.00 109.00 L 3.00 178.00 L 0.00 179.00 L 3.00 180.00 L 3.00 204.00 L 50.00 208.00 L 46.00 205.00 L 48.00 195.00 L 107.00 195.00 L 109.00 206.00 L 150.00 208.00 L 153.00 203.00 L 153.00 111.00 L 144.00 106.00 L 145.00 63.00 L 153.00 59.00 L 151.00 4.00 Z M 45.00 14.00 L 52.00 14.00 L 53.00 15.00 L 53.00 18.00 L 52.00 19.00 L 53.00 20.00 L 53.00 21.00 L 52.00 22.00 L 53.00 23.00 L 53.00 26.00 L 52.00 27.00 L 53.00 28.00 L 53.00 31.00 L 52.00 32.00 L 53.00 33.00 L 53.00 34.00 L 52.00 35.00 L 52.00 37.00 L 53.00 38.00 L 52.00 39.00 L 53.00 40.00 L 53.00 44.00 L 52.00 45.00 L 51.00 45.00 L 50.00 46.00 L 45.00 46.00 L 44.00 45.00 L 44.00 34.00 L 43.00 33.00 L 44.00 32.00 L 44.00 17.00 L 43.00 16.00 Z M 88.00 14.00 L 89.00 15.00 L 90.00 15.00 L 91.00 14.00 L 92.00 15.00 L 96.00 15.00 L 97.00 16.00 L 96.00 17.00 L 96.00 42.00 L 97.00 43.00 L 97.00 45.00 L 96.00 46.00 L 91.00 46.00 L 90.00 45.00 L 89.00 46.00 L 88.00 46.00 L 87.00 45.00 L 87.00 15.00 Z M 103.00 14.00 L 109.00 14.00 L 111.00 16.00 L 111.00 45.00 L 110.00 46.00 L 103.00 46.00 L 102.00 45.00 L 102.00 15.00 Z M 125.00 14.00 L 126.00 15.00 L 126.00 45.00 L 125.00 46.00 L 118.00 46.00 L 117.00 45.00 L 117.00 16.00 L 118.00 15.00 L 122.00 15.00 L 123.00 14.00 L 124.00 15.00 Z M 133.00 14.00 L 140.00 14.00 L 141.00 15.00 L 141.00 45.00 L 140.00 46.00 L 133.00 46.00 L 132.00 45.00 L 132.00 15.00 Z M 59.00 15.00 L 67.00 15.00 L 68.00 16.00 L 67.00 17.00 L 67.00 28.00 L 66.00 29.00 L 65.00 29.00 L 66.00 29.00 L 67.00 30.00 L 67.00 45.00 L 66.00 46.00 L 61.00 46.00 L 60.00 45.00 L 59.00 45.00 L 58.00 44.00 L 58.00 16.00 Z M 81.00 15.00 L 82.00 16.00 L 82.00 22.00 L 81.00 23.00 L 81.00 25.00 L 82.00 26.00 L 81.00 27.00 L 81.00 36.00 L 82.00 37.00 L 81.00 38.00 L 81.00 40.00 L 82.00 41.00 L 81.00 42.00 L 82.00 43.00 L 82.00 44.00 L 81.00 45.00 L 78.00 45.00 L 77.00 46.00 L 76.00 45.00 L 75.00 45.00 L 74.00 46.00 L 73.00 45.00 L 73.00 16.00 L 74.00 15.00 Z M 30.00 30.00 L 31.00 31.00 L 32.00 31.00 L 33.00 30.00 L 38.00 30.00 L 39.00 31.00 L 39.00 59.00 L 38.00 60.00 L 30.00 60.00 L 29.00 59.00 L 29.00 31.00 Z" fill="#000" fill-rule="evenodd" />
</svg>
