<?xml version="1.0" encoding="UTF-8"?>
<svg xmlns="http://www.w3.org/2000/svg" viewBox="0 0 437 373" width="437" height="373">
  <path d="M 335.00 61.00 L 307.00 69.00 L 287.00 87.00 L 284.00 86.00 L 287.00 87.00 L 278.00 96.00 L 258.00 141.00 L 253.00 171.00 L 253.00 208.00 L 264.00 252.00 L 285.00 287.00 L 311.00 308.00 L 328.00 314.00 L 349.00 315.00 L 376.00 305.00 L 379.00 309.00 L 380.00 303.00 L 393.00 292.00 L 410.00 269.00 L 420.00 247.00 L 427.00 219.00 L 429.00 169.00 L 419.00 122.00 L 408.00 100.00 L 392.00 83.00 L 392.00 79.00 L 390.00 81.00 L 383.00 73.00 L 360.00 63.00 Z" fill="#000" fill-rule="evenodd" />
  <path d="M 89.00 10.00 L 54.00 17.00 L 45.00 22.00 L 38.00 34.00 L 35.00 34.00 L 35.00 109.00 L 18.00 132.00 L 8.00 168.00 L 7.00 198.00 L 17.00 240.00 L 36.00 269.00 L 35.00 322.00 L 40.00 346.00 L 53.00 357.00 L 91.00 364.00 L 82.00 350.00 L 78.00 332.00 L 78.00 37.00 Z" fill="#000" fill-rule="evenodd" />
  <path d="M 110.00 6.00 L 92.00 31.00 L 91.00 326.00 L 98.00 354.00 L 111.00 366.00 L 129.00 368.00 L 328.00 343.00 L 341.00 328.00 L 299.00 317.00 L 261.00 277.00 L 243.00 231.00 L 239.00 174.00 L 247.00 131.00 L 271.00 85.00 L 299.00 59.00 L 340.00 44.00 L 331.00 34.00 L 308.00 27.00 Z M 253.00 76.00 L 260.00 77.00 L 253.00 84.00 L 240.00 107.00 L 234.00 124.00 L 232.00 124.00 L 224.00 165.00 L 223.00 199.00 L 226.00 225.00 L 236.00 260.00 L 259.00 299.00 L 214.00 294.00 L 195.00 285.00 L 191.00 281.00 L 192.00 277.00 L 190.00 281.00 L 189.00 277.00 L 188.00 279.00 L 185.00 274.00 L 182.00 274.00 L 184.00 271.00 L 182.00 273.00 L 171.00 260.00 L 160.00 238.00 L 152.00 206.00 L 151.00 190.00 L 152.00 169.00 L 161.00 135.00 L 170.00 117.00 L 175.00 115.00 L 173.00 113.00 L 186.00 98.00 L 187.00 101.00 L 190.00 95.00 L 189.00 101.00 L 192.00 97.00 L 190.00 95.00 L 206.00 84.00 Z" fill="#000" fill-rule="evenodd" />
</svg>
