<?xml version="1.0" encoding="UTF-8"?>
<svg xmlns="http://www.w3.org/2000/svg" viewBox="0 0 119 210" width="119" height="210">
  <path d="M 51.00 2.00 L 37.00 6.00 L 23.00 14.00 L 9.00 30.00 L 2.00 50.00 L 2.00 68.00 L 5.00 79.00 L 12.00 92.00 L 28.00 110.00 L 33.00 121.00 L 32.00 138.00 L 30.00 140.00 L 32.00 140.00 L 30.00 142.00 L 32.00 143.00 L 32.00 158.00 L 29.00 155.00 L 31.00 161.00 L 27.00 167.00 L 27.00 194.00 L 25.00 195.00 L 27.00 196.00 L 27.00 202.00 L 25.00 200.00 L 25.00 204.00 L 31.00 207.00 L 89.00 207.00 L 89.00 167.00 L 85.00 158.00 L 84.00 121.00 L 89.00 109.00 L 109.00 85.00 L 114.00 69.00 L 116.00 69.00 L 116.00 74.00 L 118.00 68.00 L 116.00 59.00 L 118.00 56.00 L 116.00 57.00 L 112.00 38.00 L 95.00 15.00 L 97.00 14.00 L 94.00 15.00 L 76.00 4.00 Z M 51.00 25.00 L 65.00 25.00 L 79.00 31.00 L 88.00 41.00 L 92.00 51.00 L 92.00 65.00 L 91.00 66.00 L 91.00 69.00 L 88.00 76.00 L 77.00 88.00 L 75.00 88.00 L 73.00 90.00 L 71.00 90.00 L 67.00 92.00 L 63.00 92.00 L 62.00 93.00 L 55.00 93.00 L 50.00 91.00 L 46.00 91.00 L 42.00 89.00 L 31.00 79.00 L 25.00 69.00 L 25.00 64.00 L 24.00 63.00 L 24.00 54.00 L 25.00 53.00 L 25.00 49.00 L 28.00 42.00 L 30.00 39.00 L 37.00 32.00 L 38.00 32.00 L 39.00 30.00 Z" fill="#000" fill-rule="evenodd" />
</svg>
