<?xml version="1.0" encoding="UTF-8"?>
<svg xmlns="http://www.w3.org/2000/svg" viewBox="0 0 251 202" width="251" height="202">
  <path d="M 30.00 14.00 L 30.00 43.00 L 13.00 49.00 L 13.00 157.00 L 30.00 163.00 L 30.00 194.00 L 43.00 191.00 L 43.00 162.00 L 54.00 163.00 L 59.00 199.00 L 69.00 194.00 L 68.00 162.00 L 79.00 163.00 L 78.00 195.00 L 91.00 195.00 L 93.00 162.00 L 104.00 163.00 L 104.00 195.00 L 117.00 193.00 L 118.00 162.00 L 129.00 166.00 L 130.00 195.00 L 141.00 194.00 L 142.00 162.00 L 154.00 163.00 L 156.00 195.00 L 166.00 194.00 L 168.00 162.00 L 179.00 163.00 L 177.00 194.00 L 193.00 195.00 L 195.00 162.00 L 203.00 163.00 L 203.00 194.00 L 217.00 193.00 L 216.00 163.00 L 235.00 157.00 L 234.00 44.00 L 216.00 43.00 L 215.00 11.00 L 203.00 13.00 L 202.00 44.00 L 192.00 43.00 L 193.00 15.00 L 186.00 9.00 L 178.00 14.00 L 178.00 44.00 L 167.00 42.00 L 167.00 17.00 L 157.00 9.00 L 153.00 44.00 L 141.00 43.00 L 141.00 11.00 L 133.00 9.00 L 128.00 44.00 L 117.00 43.00 L 112.00 8.00 L 103.00 12.00 L 103.00 44.00 L 92.00 43.00 L 88.00 11.00 L 79.00 13.00 L 78.00 44.00 L 67.00 43.00 L 68.00 12.00 L 54.00 12.00 L 53.00 44.00 L 42.00 43.00 L 41.00 11.00 Z M 26.00 58.00 L 219.00 57.00 L 220.00 148.00 L 27.00 149.00 L 26.00 130.00 L 33.00 129.00 L 39.00 124.00 L 42.00 126.00 L 43.00 123.00 L 45.00 124.00 L 42.00 122.00 L 45.00 121.00 L 52.00 107.00 L 50.00 104.00 L 53.00 105.00 L 51.00 103.00 L 53.00 99.00 L 50.00 102.00 L 51.00 98.00 L 47.00 87.00 L 42.00 84.00 L 42.00 81.00 L 34.00 76.00 L 34.00 78.00 L 26.00 76.00 Z M 31.00 91.00 L 33.00 93.00 L 33.00 94.00 L 34.00 93.00 L 35.00 94.00 L 35.00 95.00 L 36.00 96.00 L 36.00 97.00 L 37.00 98.00 L 37.00 99.00 L 38.00 100.00 L 38.00 106.00 L 37.00 107.00 L 36.00 106.00 L 36.00 105.00 L 36.00 106.00 L 37.00 107.00 L 37.00 108.00 L 36.00 109.00 L 36.00 110.00 L 34.00 112.00 L 32.00 110.00 L 33.00 111.00 L 33.00 113.00 L 32.00 114.00 L 31.00 113.00 L 31.00 112.00 L 31.00 114.00 L 30.00 115.00 L 29.00 114.00 L 29.00 115.00 L 28.00 116.00 L 27.00 116.00 L 26.00 115.00 L 26.00 92.00 L 27.00 91.00 L 28.00 92.00 L 28.00 94.00 L 28.00 93.00 L 30.00 91.00 Z" fill="#000" fill-rule="evenodd" />
</svg>
