<?xml version="1.0" encoding="UTF-8"?>
<svg xmlns="http://www.w3.org/2000/svg" viewBox="0 0 306 390" width="306" height="390">
  <path d="M 5.00 234.00 L 5.00 372.00 L 16.00 384.00 L 292.00 383.00 L 297.00 374.00 L 298.00 238.00 L 295.00 231.00 L 286.00 225.00 L 14.00 225.00 Z" fill="#000" fill-rule="evenodd" />
  <path d="M 76.00 177.00 L 76.00 212.00 L 227.00 212.00 L 227.00 179.00 L 221.00 170.00 L 222.00 169.00 L 221.00 170.00 L 218.00 168.00 L 85.00 168.00 L 81.00 170.00 Z" fill="#000" fill-rule="evenodd" />
  <path d="M 221.00 14.00 L 219.00 15.00 L 214.00 12.00 L 184.00 4.00 L 174.00 5.00 L 165.00 12.00 L 157.00 39.00 L 148.00 89.00 L 145.00 89.00 L 146.00 94.00 L 133.00 154.00 L 134.00 157.00 L 191.00 156.00 L 232.00 37.00 L 231.00 26.00 Z" fill="#000" fill-rule="evenodd" />
</svg>
