<?xml version="1.0" encoding="UTF-8"?>
<svg xmlns="http://www.w3.org/2000/svg" viewBox="0 0 207 201" width="207" height="201">
  <path d="M 73.00 12.00 L 48.00 29.00 L 43.00 29.00 L 42.00 32.00 L 41.00 30.00 L 44.00 33.00 L 35.00 44.00 L 33.00 43.00 L 33.00 49.00 L 29.00 50.00 L 25.00 68.00 L 25.00 92.00 L 33.00 119.00 L 39.00 124.00 L 38.00 158.00 L 55.00 162.00 L 56.00 194.00 L 66.00 194.00 L 67.00 191.00 L 70.00 195.00 L 71.00 193.00 L 68.00 188.00 L 69.00 161.00 L 90.00 162.00 L 91.00 193.00 L 96.00 195.00 L 102.00 193.00 L 103.00 162.00 L 124.00 161.00 L 125.00 193.00 L 137.00 194.00 L 138.00 162.00 L 153.00 158.00 L 155.00 160.00 L 154.00 124.00 L 160.00 120.00 L 158.00 118.00 L 164.00 110.00 L 166.00 97.00 L 168.00 98.00 L 168.00 63.00 L 165.00 62.00 L 162.00 53.00 L 164.00 51.00 L 160.00 49.00 L 158.00 40.00 L 148.00 32.00 L 150.00 29.00 L 147.00 31.00 L 133.00 20.00 L 132.00 16.00 L 129.00 18.00 L 120.00 12.00 L 106.00 10.00 Z M 91.00 22.00 L 112.00 24.00 L 115.00 27.00 L 117.00 26.00 L 117.00 28.00 L 120.00 27.00 L 123.00 30.00 L 122.00 33.00 L 125.00 31.00 L 136.00 37.00 L 140.00 42.00 L 138.00 44.00 L 140.00 42.00 L 143.00 45.00 L 142.00 47.00 L 146.00 50.00 L 145.00 52.00 L 150.00 56.00 L 150.00 61.00 L 153.00 62.00 L 154.00 67.00 L 153.00 72.00 L 156.00 77.00 L 155.00 86.00 L 154.00 84.00 L 153.00 90.00 L 153.00 88.00 L 155.00 88.00 L 154.00 94.00 L 153.00 92.00 L 153.00 101.00 L 151.00 104.00 L 150.00 103.00 L 148.00 110.00 L 145.00 111.00 L 145.00 116.00 L 142.00 116.00 L 142.00 119.00 L 137.00 124.00 L 136.00 123.00 L 133.00 128.00 L 132.00 126.00 L 130.00 128.00 L 129.00 126.00 L 127.00 128.00 L 130.00 130.00 L 115.00 138.00 L 100.00 141.00 L 86.00 140.00 L 81.00 137.00 L 78.00 138.00 L 69.00 134.00 L 67.00 131.00 L 66.00 132.00 L 65.00 129.00 L 62.00 130.00 L 61.00 128.00 L 63.00 127.00 L 59.00 127.00 L 48.00 116.00 L 46.00 112.00 L 48.00 110.00 L 44.00 108.00 L 44.00 102.00 L 44.00 104.00 L 42.00 104.00 L 38.00 93.00 L 40.00 91.00 L 38.00 91.00 L 40.00 88.00 L 40.00 73.00 L 39.00 78.00 L 37.00 78.00 L 40.00 62.00 L 45.00 59.00 L 43.00 56.00 L 46.00 51.00 L 48.00 52.00 L 46.00 51.00 L 57.00 37.00 L 60.00 37.00 L 59.00 36.00 L 62.00 33.00 L 68.00 33.00 L 67.00 32.00 L 69.00 31.00 L 70.00 34.00 L 69.00 30.00 L 78.00 25.00 L 83.00 26.00 L 81.00 25.00 Z M 76.00 49.00 L 77.00 50.00 L 63.00 64.00 L 64.00 65.00 L 61.00 66.00 L 62.00 67.00 L 60.00 70.00 L 58.00 65.00 L 58.00 71.00 L 60.00 74.00 L 60.00 88.00 L 62.00 92.00 L 61.00 94.00 L 58.00 93.00 L 59.00 96.00 L 62.00 96.00 L 63.00 101.00 L 66.00 102.00 L 66.00 104.00 L 73.00 111.00 L 74.00 110.00 L 78.00 113.00 L 79.00 116.00 L 82.00 115.00 L 90.00 118.00 L 104.00 119.00 L 104.00 117.00 L 110.00 117.00 L 114.00 114.00 L 115.00 117.00 L 118.00 113.00 L 117.00 112.00 L 119.00 110.00 L 120.00 111.00 L 126.00 103.00 L 130.00 103.00 L 129.00 98.00 L 133.00 88.00 L 134.00 91.00 L 133.00 78.00 L 135.00 76.00 L 134.00 77.00 L 134.00 74.00 L 132.00 73.00 L 134.00 69.00 L 132.00 72.00 L 132.00 67.00 L 131.00 68.00 L 129.00 65.00 L 131.00 64.00 L 129.00 64.00 L 127.00 61.00 L 128.00 59.00 L 126.00 60.00 L 123.00 56.00 L 124.00 55.00 L 119.00 55.00 L 120.00 57.00 L 117.00 60.00 L 116.00 59.00 L 117.00 61.00 L 115.00 65.00 L 111.00 65.00 L 111.00 69.00 L 109.00 71.00 L 110.00 73.00 L 105.00 80.00 L 102.00 78.00 L 99.00 81.00 L 98.00 77.00 L 100.00 77.00 L 99.00 75.00 L 97.00 77.00 L 96.00 73.00 L 99.00 73.00 L 98.00 70.00 L 102.00 65.00 L 107.00 64.00 L 105.00 65.00 L 103.00 62.00 L 105.00 59.00 L 106.00 61.00 L 109.00 57.00 L 107.00 59.00 L 106.00 57.00 L 111.00 50.00 L 112.00 51.00 L 112.00 47.00 L 103.00 45.00 L 91.00 45.00 L 80.00 49.00 L 79.00 48.00 L 78.00 50.00 Z M 51.00 139.00 L 52.00 138.00 L 53.00 138.00 L 55.00 140.00 L 56.00 140.00 L 58.00 142.00 L 59.00 142.00 L 61.00 144.00 L 62.00 144.00 L 63.00 145.00 L 62.00 146.00 L 59.00 146.00 L 62.00 146.00 L 63.00 145.00 L 64.00 145.00 L 65.00 146.00 L 66.00 146.00 L 67.00 147.00 L 66.00 148.00 L 52.00 148.00 L 51.00 147.00 Z M 142.00 139.00 L 142.00 147.00 L 141.00 148.00 L 127.00 148.00 L 126.00 147.00 L 127.00 146.00 L 128.00 146.00 L 129.00 145.00 L 130.00 146.00 L 131.00 146.00 L 130.00 145.00 L 131.00 144.00 L 132.00 144.00 L 133.00 145.00 L 132.00 144.00 L 134.00 142.00 L 135.00 142.00 L 137.00 140.00 L 138.00 140.00 L 139.00 139.00 L 140.00 140.00 L 139.00 139.00 L 140.00 138.00 L 141.00 138.00 Z" fill="#000" fill-rule="evenodd" />
</svg>
