<?xml version="1.0" encoding="UTF-8"?>
<svg xmlns="http://www.w3.org/2000/svg" viewBox="0 0 211 211" width="211" height="211">
  <path d="M 87.00 2.00 L 47.00 16.00 L 20.00 43.00 L 18.00 42.00 L 20.00 44.00 L 15.00 51.00 L 12.00 48.00 L 15.00 52.00 L 4.00 76.00 L 0.00 99.00 L 3.00 129.00 L 10.00 151.00 L 19.00 165.00 L 18.00 167.00 L 15.00 165.00 L 16.00 169.00 L 20.00 172.00 L 17.00 169.00 L 19.00 166.00 L 35.00 184.00 L 50.00 195.00 L 69.00 204.00 L 92.00 209.00 L 132.00 206.00 L 166.00 190.00 L 193.00 160.00 L 196.00 163.00 L 194.00 157.00 L 198.00 151.00 L 200.00 155.00 L 199.00 146.00 L 206.00 126.00 L 208.00 128.00 L 205.00 80.00 L 190.00 43.00 L 189.00 45.00 L 159.00 16.00 L 121.00 2.00 Z M 88.00 28.00 L 120.00 29.00 L 121.00 89.00 L 182.00 90.00 L 180.00 122.00 L 121.00 122.00 L 120.00 183.00 L 87.00 182.00 L 87.00 122.00 L 26.00 121.00 L 27.00 88.00 L 87.00 89.00 Z" fill="#000" fill-rule="evenodd" />
</svg>
