<?xml version="1.0" encoding="utf-8"?>
<svg xmlns="http://www.w3.org/2000/svg" viewBox="198.482 11.527 190 205" width="190px" height="205px">
  <path d="M 204.482 12.527 L 198.482 22.527 L 215.482 33.527 L 230.482 50.527 L 242.482 71.527 L 251.482 102.527 L 251.482 122.527 L 241.482 130.527 L 240.482 140.527 L 252.482 152.527 L 251.482 169.527 L 241.482 177.527 L 241.482 189.527 L 251.482 197.527 L 258.482 216.527 L 330.482 216.527 L 337.482 198.527 L 337.482 180.527 L 348.482 170.527 L 348.482 158.527 L 337.482 149.527 L 337.482 133.527 L 348.482 123.527 L 348.482 112.527 L 338.482 103.527 L 341.482 83.527 L 362.482 46.527 L 376.482 31.527 L 388.482 24.527 L 387.482 15.527 L 377.482 11.527 L 204.482 12.527 Z" fill="#000" fill-rule="evenodd" style="stroke-width: 1;" transform="matrix(0.9999999999999999, 0, 0, 0.9999999999999999, 0, 0)"/>
</svg>