<?xml version="1.0" encoding="UTF-8"?>
<svg xmlns="http://www.w3.org/2000/svg" viewBox="0 0 209 168" width="209" height="168">
  <path d="M 2.00 23.00 L 3.00 37.00 L 31.00 43.00 L 54.00 42.00 L 60.00 46.00 L 61.00 71.00 L 51.00 78.00 L 50.00 89.00 L 61.00 100.00 L 61.00 117.00 L 51.00 125.00 L 50.00 135.00 L 52.00 140.00 L 61.00 147.00 L 69.00 165.00 L 139.00 165.00 L 146.00 147.00 L 146.00 130.00 L 157.00 120.00 L 157.00 107.00 L 146.00 98.00 L 146.00 81.00 L 157.00 73.00 L 157.00 61.00 L 147.00 53.00 L 147.00 47.00 L 150.00 43.00 L 178.00 43.00 L 201.00 38.00 L 206.00 34.00 L 203.00 22.00 L 168.00 9.00 L 121.00 2.00 L 88.00 2.00 L 50.00 7.00 L 20.00 14.00 Z" fill="#000" fill-rule="evenodd" />
</svg>
