<?xml version="1.0" encoding="UTF-8"?>
<svg xmlns="http://www.w3.org/2000/svg" viewBox="0 0 80 215" width="80" height="215">
  <path d="M 50.00 2.00 L 31.00 2.00 L 17.00 9.00 L 10.00 17.00 L 2.00 33.00 L 3.00 36.00 L 1.00 36.00 L 6.00 68.00 L 21.00 113.00 L 20.00 117.00 L 13.00 116.00 L 8.00 121.00 L 9.00 144.00 L 22.00 148.00 L 15.00 185.00 L 16.00 212.00 L 20.00 212.00 L 22.00 208.00 L 24.00 189.00 L 36.00 145.00 L 45.00 146.00 L 54.00 188.00 L 54.00 201.00 L 62.00 209.00 L 65.00 198.00 L 65.00 178.00 L 58.00 146.00 L 62.00 142.00 L 62.00 120.00 L 59.00 117.00 L 59.00 112.00 L 73.00 71.00 L 77.00 36.00 L 69.00 16.00 Z M 36.00 14.00 L 44.00 14.00 L 51.00 17.00 L 60.00 27.00 L 59.00 29.00 L 57.00 28.00 L 59.00 31.00 L 58.00 32.00 L 60.00 34.00 L 59.00 35.00 L 59.00 40.00 L 60.00 41.00 L 59.00 46.00 L 61.00 47.00 L 59.00 49.00 L 60.00 50.00 L 59.00 53.00 L 60.00 55.00 L 59.00 53.00 L 61.00 51.00 L 62.00 52.00 L 62.00 56.00 L 61.00 57.00 L 61.00 61.00 L 59.00 65.00 L 58.00 72.00 L 55.00 79.00 L 55.00 82.00 L 52.00 89.00 L 52.00 92.00 L 48.00 96.00 L 50.00 98.00 L 49.00 99.00 L 47.00 111.00 L 46.00 112.00 L 46.00 117.00 L 45.00 118.00 L 35.00 118.00 L 34.00 117.00 L 33.00 108.00 L 30.00 101.00 L 26.00 83.00 L 20.00 67.00 L 20.00 64.00 L 17.00 55.00 L 17.00 49.00 L 16.00 48.00 L 16.00 42.00 L 17.00 41.00 L 16.00 39.00 L 18.00 32.00 L 22.00 24.00 L 29.00 17.00 L 31.00 17.00 Z" fill="#000" fill-rule="evenodd" />
</svg>
