<?xml version="1.0" encoding="UTF-8"?>
<svg xmlns="http://www.w3.org/2000/svg" viewBox="0 0 418 587" width="418" height="587">
  <path d="M 13.00 3.00 L 0.00 56.00 L 29.00 82.00 L 187.00 116.00 L 321.00 97.00 L 24.00 168.00 L 0.00 190.00 L 9.00 227.00 L 184.00 269.00 L 320.00 251.00 L 24.00 321.00 L 0.00 342.00 L 6.00 377.00 L 186.00 423.00 L 320.00 405.00 L 17.00 475.00 L 4.00 569.00 L 399.00 577.00 L 412.00 542.00 L 388.00 516.00 L 157.00 515.00 L 391.00 464.00 L 414.00 428.00 L 398.00 400.00 L 227.00 361.00 L 91.00 377.00 L 403.00 303.00 L 405.00 253.00 L 223.00 207.00 L 91.00 225.00 L 388.00 156.00 L 411.00 133.00 L 405.00 99.00 L 91.00 70.00 L 383.00 66.00 L 410.00 46.00 L 405.00 8.00 Z" fill="#000" fill-rule="evenodd" />
</svg>
