<?xml version="1.0" encoding="UTF-8"?>
<svg xmlns="http://www.w3.org/2000/svg" viewBox="0 0 285 209" width="285" height="209">
  <path d="M 12.00 39.00 L 13.00 70.00 L 20.00 76.00 L 17.00 78.00 L 29.00 84.00 L 29.00 125.00 L 23.00 125.00 L 25.00 128.00 L 13.00 138.00 L 12.00 166.00 L 14.00 164.00 L 18.00 174.00 L 31.00 184.00 L 68.00 194.00 L 67.00 197.00 L 158.00 203.00 L 152.00 200.00 L 201.00 197.00 L 238.00 185.00 L 255.00 171.00 L 259.00 141.00 L 241.00 125.00 L 242.00 84.00 L 259.00 69.00 L 259.00 43.00 L 245.00 25.00 L 242.00 27.00 L 221.00 16.00 L 194.00 12.00 L 197.00 10.00 L 121.00 7.00 L 73.00 10.00 L 73.00 13.00 L 50.00 16.00 L 21.00 29.00 L 14.00 43.00 Z M 24.00 45.00 L 31.00 37.00 L 47.00 33.00 L 48.00 29.00 L 50.00 31.00 L 54.00 27.00 L 59.00 29.00 L 58.00 27.00 L 60.00 26.00 L 62.00 28.00 L 66.00 24.00 L 81.00 21.00 L 90.00 22.00 L 91.00 20.00 L 100.00 22.00 L 97.00 19.00 L 141.00 17.00 L 163.00 18.00 L 162.00 20.00 L 171.00 19.00 L 172.00 22.00 L 191.00 21.00 L 203.00 24.00 L 204.00 26.00 L 202.00 27.00 L 217.00 27.00 L 230.00 32.00 L 228.00 35.00 L 232.00 33.00 L 231.00 36.00 L 234.00 38.00 L 239.00 37.00 L 240.00 40.00 L 241.00 38.00 L 247.00 46.00 L 245.00 51.00 L 238.00 57.00 L 236.00 55.00 L 235.00 58.00 L 233.00 56.00 L 234.00 59.00 L 211.00 68.00 L 203.00 69.00 L 202.00 67.00 L 190.00 72.00 L 164.00 75.00 L 128.00 74.00 L 129.00 76.00 L 124.00 76.00 L 125.00 74.00 L 120.00 76.00 L 86.00 73.00 L 51.00 65.00 L 51.00 63.00 L 43.00 62.00 L 37.00 59.00 L 36.00 56.00 L 30.00 55.00 L 25.00 50.00 L 27.00 46.00 L 25.00 47.00 Z M 89.00 50.00 L 90.00 49.00 L 95.00 54.00 L 94.00 55.00 L 96.00 54.00 L 97.00 57.00 L 102.00 56.00 L 103.00 58.00 L 105.00 57.00 L 111.00 59.00 L 119.00 59.00 L 121.00 61.00 L 122.00 60.00 L 127.00 60.00 L 128.00 61.00 L 127.00 62.00 L 123.00 62.00 L 126.00 62.00 L 127.00 63.00 L 132.00 63.00 L 134.00 61.00 L 137.00 61.00 L 139.00 63.00 L 142.00 63.00 L 143.00 62.00 L 148.00 62.00 L 144.00 62.00 L 143.00 61.00 L 144.00 60.00 L 151.00 60.00 L 153.00 61.00 L 152.00 60.00 L 153.00 59.00 L 156.00 59.00 L 157.00 60.00 L 156.00 61.00 L 160.00 58.00 L 164.00 58.00 L 169.00 56.00 L 179.00 56.00 L 177.00 56.00 L 176.00 54.00 L 180.00 50.00 L 181.00 51.00 L 180.00 50.00 L 183.00 47.00 L 180.00 43.00 L 181.00 41.00 L 177.00 38.00 L 178.00 36.00 L 175.00 39.00 L 174.00 37.00 L 172.00 38.00 L 165.00 35.00 L 164.00 36.00 L 154.00 33.00 L 119.00 33.00 L 118.00 34.00 L 107.00 33.00 L 111.00 33.00 L 112.00 34.00 L 111.00 35.00 L 106.00 35.00 L 105.00 34.00 L 102.00 37.00 L 93.00 41.00 L 90.00 44.00 Z M 25.00 65.00 L 26.00 64.00 L 29.00 67.00 L 31.00 67.00 L 32.00 68.00 L 33.00 68.00 L 40.00 72.00 L 42.00 72.00 L 43.00 73.00 L 45.00 73.00 L 46.00 74.00 L 45.00 75.00 L 46.00 74.00 L 47.00 74.00 L 48.00 75.00 L 51.00 75.00 L 52.00 76.00 L 54.00 76.00 L 55.00 77.00 L 57.00 77.00 L 58.00 78.00 L 57.00 79.00 L 58.00 80.00 L 61.00 80.00 L 62.00 81.00 L 62.00 80.00 L 63.00 79.00 L 65.00 79.00 L 66.00 80.00 L 73.00 80.00 L 74.00 81.00 L 78.00 81.00 L 79.00 82.00 L 78.00 83.00 L 77.00 83.00 L 77.00 85.00 L 74.00 87.00 L 72.00 87.00 L 71.00 86.00 L 72.00 85.00 L 71.00 86.00 L 65.00 86.00 L 62.00 84.00 L 57.00 84.00 L 54.00 82.00 L 55.00 79.00 L 54.00 80.00 L 53.00 79.00 L 52.00 79.00 L 51.00 80.00 L 50.00 79.00 L 49.00 79.00 L 50.00 80.00 L 49.00 81.00 L 48.00 81.00 L 43.00 78.00 L 41.00 78.00 L 40.00 77.00 L 37.00 76.00 L 35.00 74.00 L 34.00 74.00 L 33.00 73.00 L 33.00 72.00 L 32.00 73.00 L 29.00 70.00 L 28.00 70.00 L 27.00 69.00 L 27.00 68.00 L 25.00 66.00 Z M 242.00 68.00 L 242.00 70.00 L 239.00 73.00 L 238.00 72.00 L 238.00 73.00 L 237.00 74.00 L 236.00 74.00 L 234.00 76.00 L 233.00 76.00 L 232.00 77.00 L 231.00 77.00 L 230.00 78.00 L 228.00 78.00 L 227.00 79.00 L 226.00 79.00 L 225.00 80.00 L 223.00 80.00 L 222.00 79.00 L 219.00 79.00 L 218.00 78.00 L 219.00 77.00 L 218.00 76.00 L 219.00 75.00 L 223.00 75.00 L 224.00 76.00 L 223.00 75.00 L 224.00 74.00 L 225.00 74.00 L 226.00 73.00 L 227.00 74.00 L 228.00 74.00 L 227.00 73.00 L 228.00 72.00 L 231.00 72.00 L 232.00 71.00 L 233.00 71.00 L 234.00 70.00 L 235.00 70.00 L 236.00 69.00 L 238.00 69.00 L 240.00 67.00 L 241.00 67.00 Z M 220.00 81.00 L 215.00 83.00 L 214.00 82.00 L 216.00 79.00 L 214.00 80.00 L 213.00 79.00 L 215.00 81.00 L 212.00 82.00 L 214.00 83.00 L 206.00 86.00 L 196.00 87.00 L 195.00 86.00 L 196.00 85.00 L 195.00 88.00 L 149.00 93.00 L 103.00 92.00 L 89.00 90.00 L 88.00 87.00 L 89.00 88.00 L 88.00 89.00 L 80.00 89.00 L 76.00 87.00 L 79.00 82.00 L 83.00 82.00 L 84.00 83.00 L 83.00 84.00 L 92.00 83.00 L 93.00 84.00 L 92.00 85.00 L 89.00 85.00 L 91.00 87.00 L 93.00 86.00 L 99.00 87.00 L 102.00 85.00 L 181.00 86.00 L 178.00 84.00 L 179.00 83.00 L 187.00 83.00 L 206.00 79.00 L 210.00 80.00 L 208.00 79.00 L 212.00 77.00 L 217.00 77.00 L 218.00 80.00 Z M 40.00 94.00 L 42.00 95.00 L 41.00 92.00 L 44.00 90.00 L 59.00 96.00 L 61.00 95.00 L 62.00 97.00 L 60.00 98.00 L 66.00 96.00 L 66.00 98.00 L 84.00 99.00 L 85.00 101.00 L 89.00 100.00 L 89.00 102.00 L 96.00 101.00 L 96.00 103.00 L 92.00 104.00 L 103.00 102.00 L 132.00 104.00 L 169.00 102.00 L 171.00 104.00 L 172.00 102.00 L 178.00 103.00 L 176.00 101.00 L 183.00 102.00 L 182.00 100.00 L 188.00 101.00 L 187.00 99.00 L 203.00 96.00 L 210.00 98.00 L 213.00 94.00 L 228.00 90.00 L 231.00 96.00 L 231.00 137.00 L 228.00 138.00 L 230.00 141.00 L 228.00 144.00 L 213.00 152.00 L 213.00 150.00 L 212.00 153.00 L 194.00 158.00 L 190.00 156.00 L 190.00 159.00 L 180.00 161.00 L 104.00 162.00 L 83.00 159.00 L 81.00 156.00 L 80.00 158.00 L 59.00 153.00 L 54.00 149.00 L 56.00 148.00 L 50.00 149.00 L 49.00 146.00 L 46.00 144.00 L 45.00 146.00 L 40.00 141.00 Z M 247.00 146.00 L 245.00 153.00 L 242.00 152.00 L 238.00 157.00 L 240.00 158.00 L 233.00 162.00 L 228.00 159.00 L 227.00 161.00 L 229.00 160.00 L 230.00 163.00 L 226.00 163.00 L 225.00 166.00 L 215.00 169.00 L 211.00 168.00 L 211.00 170.00 L 209.00 169.00 L 210.00 170.00 L 206.00 172.00 L 198.00 172.00 L 196.00 170.00 L 198.00 172.00 L 194.00 172.00 L 196.00 173.00 L 195.00 174.00 L 189.00 173.00 L 189.00 175.00 L 146.00 179.00 L 110.00 178.00 L 105.00 176.00 L 96.00 177.00 L 69.00 172.00 L 69.00 170.00 L 66.00 172.00 L 61.00 168.00 L 63.00 166.00 L 69.00 168.00 L 68.00 167.00 L 70.00 166.00 L 89.00 171.00 L 106.00 173.00 L 103.00 174.00 L 165.00 173.00 L 197.00 167.00 L 200.00 168.00 L 201.00 166.00 L 215.00 162.00 L 217.00 163.00 L 218.00 161.00 L 220.00 161.00 L 220.00 163.00 L 221.00 160.00 L 232.00 154.00 L 234.00 155.00 L 232.00 154.00 L 235.00 153.00 L 236.00 150.00 L 237.00 153.00 L 236.00 150.00 L 240.00 145.00 L 242.00 138.00 Z M 25.00 143.00 L 27.00 141.00 L 28.00 142.00 L 28.00 141.00 L 29.00 140.00 L 30.00 141.00 L 30.00 143.00 L 32.00 146.00 L 31.00 147.00 L 31.00 148.00 L 34.00 151.00 L 34.00 152.00 L 35.00 152.00 L 36.00 153.00 L 35.00 154.00 L 35.00 155.00 L 38.00 153.00 L 39.00 154.00 L 39.00 156.00 L 40.00 156.00 L 41.00 155.00 L 42.00 156.00 L 43.00 156.00 L 45.00 159.00 L 46.00 158.00 L 47.00 159.00 L 47.00 160.00 L 48.00 160.00 L 49.00 161.00 L 50.00 160.00 L 51.00 160.00 L 54.00 162.00 L 56.00 162.00 L 57.00 163.00 L 60.00 163.00 L 63.00 165.00 L 62.00 166.00 L 61.00 166.00 L 61.00 167.00 L 60.00 168.00 L 58.00 166.00 L 57.00 167.00 L 56.00 167.00 L 55.00 166.00 L 55.00 167.00 L 54.00 168.00 L 53.00 168.00 L 52.00 167.00 L 53.00 166.00 L 52.00 167.00 L 49.00 167.00 L 48.00 166.00 L 45.00 165.00 L 44.00 164.00 L 45.00 163.00 L 44.00 164.00 L 41.00 164.00 L 39.00 162.00 L 40.00 161.00 L 42.00 161.00 L 39.00 161.00 L 38.00 162.00 L 37.00 161.00 L 37.00 160.00 L 36.00 161.00 L 35.00 160.00 L 34.00 160.00 L 32.00 157.00 L 33.00 156.00 L 31.00 158.00 L 29.00 156.00 L 28.00 156.00 L 27.00 155.00 L 27.00 154.00 L 25.00 152.00 L 25.00 151.00 L 24.00 150.00 L 24.00 146.00 L 26.00 144.00 Z M 130.00 163.00 L 132.00 161.00 L 158.00 161.00 L 159.00 162.00 L 158.00 163.00 L 142.00 163.00 L 141.00 164.00 L 131.00 164.00 Z M 26.00 164.00 L 27.00 163.00 L 28.00 164.00 L 29.00 164.00 L 31.00 166.00 L 31.00 167.00 L 32.00 166.00 L 34.00 168.00 L 36.00 168.00 L 37.00 169.00 L 38.00 169.00 L 39.00 170.00 L 40.00 170.00 L 41.00 171.00 L 43.00 171.00 L 44.00 172.00 L 46.00 172.00 L 47.00 173.00 L 48.00 173.00 L 49.00 174.00 L 52.00 174.00 L 53.00 175.00 L 50.00 178.00 L 49.00 178.00 L 48.00 177.00 L 45.00 177.00 L 44.00 176.00 L 43.00 176.00 L 42.00 175.00 L 40.00 175.00 L 39.00 174.00 L 40.00 173.00 L 39.00 174.00 L 38.00 174.00 L 37.00 173.00 L 37.00 172.00 L 35.00 172.00 L 34.00 171.00 L 33.00 171.00 L 31.00 169.00 L 30.00 169.00 L 29.00 168.00 L 29.00 167.00 L 28.00 166.00 L 27.00 166.00 L 26.00 165.00 Z M 245.00 164.00 L 245.00 165.00 L 243.00 167.00 L 242.00 167.00 L 238.00 171.00 L 237.00 171.00 L 236.00 172.00 L 235.00 171.00 L 235.00 172.00 L 234.00 173.00 L 233.00 173.00 L 232.00 174.00 L 231.00 174.00 L 230.00 175.00 L 229.00 175.00 L 228.00 176.00 L 227.00 176.00 L 226.00 177.00 L 224.00 177.00 L 223.00 178.00 L 221.00 178.00 L 220.00 179.00 L 219.00 179.00 L 218.00 180.00 L 217.00 179.00 L 216.00 180.00 L 215.00 180.00 L 214.00 179.00 L 215.00 178.00 L 214.00 179.00 L 209.00 179.00 L 208.00 178.00 L 209.00 177.00 L 211.00 177.00 L 212.00 176.00 L 215.00 176.00 L 216.00 175.00 L 218.00 175.00 L 219.00 174.00 L 222.00 174.00 L 223.00 173.00 L 225.00 173.00 L 226.00 174.00 L 225.00 173.00 L 226.00 172.00 L 227.00 172.00 L 228.00 171.00 L 230.00 171.00 L 231.00 170.00 L 232.00 171.00 L 232.00 170.00 L 233.00 169.00 L 235.00 169.00 L 236.00 168.00 L 237.00 169.00 L 236.00 168.00 L 237.00 167.00 L 238.00 167.00 L 239.00 166.00 L 240.00 166.00 L 241.00 165.00 L 242.00 165.00 L 244.00 163.00 Z M 53.00 179.00 L 55.00 178.00 L 54.00 177.00 L 55.00 176.00 L 58.00 176.00 L 59.00 177.00 L 58.00 179.00 L 60.00 178.00 L 61.00 180.00 L 60.00 178.00 L 63.00 177.00 L 67.00 179.00 L 73.00 179.00 L 74.00 180.00 L 73.00 181.00 L 77.00 180.00 L 97.00 184.00 L 159.00 185.00 L 160.00 187.00 L 166.00 184.00 L 174.00 184.00 L 177.00 186.00 L 181.00 182.00 L 188.00 183.00 L 190.00 181.00 L 208.00 178.00 L 210.00 180.00 L 211.00 179.00 L 214.00 180.00 L 211.00 182.00 L 206.00 181.00 L 205.00 183.00 L 203.00 181.00 L 202.00 184.00 L 190.00 186.00 L 181.00 185.00 L 186.00 186.00 L 180.00 188.00 L 168.00 188.00 L 157.00 190.00 L 115.00 190.00 L 103.00 188.00 L 91.00 188.00 L 87.00 185.00 L 82.00 186.00 L 81.00 185.00 L 83.00 184.00 L 73.00 185.00 Z" fill="#000" fill-rule="evenodd" />
</svg>
