<?xml version="1.0" encoding="utf-8"?>
<svg xmlns="http://www.w3.org/2000/svg" viewBox="353.659 23.546 153.135 200" width="153.135px" height="200px">
  <path d="M 357.659 23.546 L 353.659 30.546 L 389.659 109.546 L 389.659 127.546 L 379.524 139.258 L 379.659 150.546 L 390.236 158.546 L 390.659 174.546 L 380.236 183.834 L 380.659 198.546 L 389.659 204.546 L 395.64 223.123 L 466.659 223.546 L 474.217 211.508 L 474.659 187.546 L 483.794 177.681 L 483.64 167.104 L 474.794 157.546 L 474.794 138.546 L 483.371 130.065 L 483.64 121.392 L 474.64 112.546 L 474.659 106.546 L 506.794 32.603 L 503.313 24.546 L 357.659 23.546 Z" fill="#000" fill-rule="evenodd" style="stroke-width: 1;" transform="matrix(0.9999999999999999, 0, 0, 0.9999999999999999, 0, 0)"/>
</svg>