<?xml version="1.0" encoding="utf-8"?>
<svg xmlns="http://www.w3.org/2000/svg" viewBox="261.157 5.853 176 180" width="176px" height="180px">
  <path d="M 264.157 25.853 L 261.157 35.853 L 263.157 57.853 L 273.157 65.853 L 306.157 66.68 L 307.157 90.853 L 296.157 99.853 L 297.157 112.853 L 307.157 119.853 L 307.157 137.853 L 299.042 148.469 L 299.465 159.718 L 308.292 169.968 L 312.157 185.853 L 384.157 185.853 L 391.157 169.853 L 392.157 146.853 L 402.157 138.411 L 402.157 126.122 L 392.157 116.853 L 392.157 100.853 L 400.445 93.257 L 400.715 82.141 L 392.157 73.853 L 392.272 65.718 L 424.157 65.853 L 433.157 59.853 L 437.157 38.853 L 432.157 25.853 L 398.157 10.853 L 368.157 5.853 L 339.157 5.853 L 294.157 12.853 L 264.157 25.853 Z" fill="#000" fill-rule="evenodd" style="stroke-width: 1;" transform="matrix(0.9999999999999999, 0, 0, 0.9999999999999999, 0, 0)"/>
</svg>