<?xml version="1.0" encoding="UTF-8"?>
<svg xmlns="http://www.w3.org/2000/svg" viewBox="0 0 187 167" width="187" height="167">
  <path d="M 11.00 5.00 L 5.00 11.00 L 2.00 20.00 L 5.00 34.00 L 17.00 42.00 L 35.00 42.00 L 37.00 45.00 L 38.00 42.00 L 46.00 42.00 L 49.00 45.00 L 51.00 69.00 L 40.00 78.00 L 39.00 87.00 L 40.00 91.00 L 50.00 98.00 L 51.00 116.00 L 40.00 125.00 L 39.00 131.00 L 40.00 138.00 L 52.00 148.00 L 53.00 152.00 L 50.00 155.00 L 52.00 153.00 L 59.00 164.00 L 128.00 164.00 L 133.00 161.00 L 131.00 158.00 L 134.00 151.00 L 135.00 155.00 L 138.00 152.00 L 135.00 150.00 L 136.00 128.00 L 145.00 120.00 L 147.00 114.00 L 144.00 103.00 L 136.00 99.00 L 136.00 79.00 L 144.00 75.00 L 147.00 69.00 L 145.00 58.00 L 137.00 52.00 L 138.00 43.00 L 170.00 42.00 L 177.00 38.00 L 184.00 28.00 L 184.00 18.00 L 179.00 8.00 L 172.00 3.00 L 161.00 2.00 L 157.00 10.00 L 147.00 11.00 L 137.00 2.00 L 124.00 2.00 L 119.00 10.00 L 108.00 11.00 L 100.00 2.00 L 87.00 2.00 L 80.00 11.00 L 73.00 12.00 L 62.00 2.00 L 48.00 2.00 L 46.00 8.00 L 41.00 11.00 L 29.00 9.00 L 24.00 2.00 Z" fill="#000" fill-rule="evenodd" />
</svg>
