<?xml version="1.0" encoding="UTF-8"?>
<svg xmlns="http://www.w3.org/2000/svg" viewBox="0 0 552 283" width="552" height="283">
  <path d="M 3.00 131.00 L 12.00 182.00 L 46.00 225.00 L 98.00 245.00 L 151.00 237.00 L 148.00 190.00 L 85.00 199.00 L 58.00 178.00 L 45.00 144.00 L 50.00 114.00 L 76.00 84.00 L 115.00 76.00 L 140.00 85.00 L 177.00 262.00 L 199.00 277.00 L 224.00 262.00 L 250.00 140.00 L 274.00 262.00 L 295.00 277.00 L 322.00 259.00 L 347.00 141.00 L 370.00 259.00 L 394.00 277.00 L 415.00 268.00 L 420.00 243.00 L 465.00 243.00 L 509.00 222.00 L 546.00 155.00 L 539.00 99.00 L 506.00 55.00 L 479.00 39.00 L 418.00 35.00 L 394.00 47.00 L 403.00 90.00 L 436.00 76.00 L 474.00 84.00 L 500.00 114.00 L 505.00 147.00 L 474.00 195.00 L 432.00 203.00 L 411.00 194.00 L 374.00 19.00 L 357.00 2.00 L 327.00 19.00 L 301.00 140.00 L 277.00 21.00 L 255.00 2.00 L 230.00 19.00 L 204.00 141.00 L 179.00 19.00 L 159.00 2.00 L 132.00 15.00 L 130.00 36.00 L 79.00 37.00 L 47.00 53.00 L 19.00 83.00 Z" fill="#000" fill-rule="evenodd" />
</svg>
