<?xml version="1.0" encoding="UTF-8"?>
<svg xmlns="http://www.w3.org/2000/svg" viewBox="0 0 558 290" width="558" height="290">
  <path d="M 347.00 112.00 L 349.00 126.00 L 348.00 178.00 L 519.00 178.00 L 528.00 174.00 L 529.00 177.00 L 531.00 174.00 L 529.00 175.00 L 528.00 173.00 L 551.00 149.00 L 551.00 141.00 L 548.00 135.00 L 526.00 114.00 L 516.00 111.00 Z" fill="#000" fill-rule="evenodd" />
  <path d="M 306.00 20.00 L 304.00 23.00 L 299.00 17.00 L 281.00 11.00 L 268.00 18.00 L 265.00 77.00 L 80.00 77.00 L 73.00 82.00 L 68.00 98.00 L 55.00 98.00 L 54.00 84.00 L 49.00 80.00 L 22.00 89.00 L 7.00 116.00 L 3.00 133.00 L 3.00 157.00 L 11.00 183.00 L 26.00 202.00 L 47.00 211.00 L 54.00 207.00 L 56.00 192.00 L 69.00 192.00 L 72.00 206.00 L 83.00 213.00 L 265.00 213.00 L 269.00 273.00 L 277.00 278.00 L 298.00 273.00 L 321.00 239.00 L 334.00 167.00 L 328.00 76.00 Z" fill="#000" fill-rule="evenodd" />
</svg>
