<?xml version="1.0" encoding="UTF-8"?>
<svg xmlns="http://www.w3.org/2000/svg" viewBox="0 0 372 373" width="372" height="373">
  <path d="M 195.00 5.00 L 156.00 7.00 L 107.00 19.00 L 109.00 22.00 L 94.00 26.00 L 82.00 37.00 L 82.00 31.00 L 62.00 53.00 L 58.00 50.00 L 62.00 53.00 L 35.00 78.00 L 38.00 80.00 L 22.00 102.00 L 2.00 173.00 L 3.00 210.00 L 13.00 249.00 L 30.00 284.00 L 51.00 311.00 L 84.00 339.00 L 118.00 357.00 L 182.00 370.00 L 223.00 366.00 L 251.00 357.00 L 307.00 322.00 L 344.00 276.00 L 360.00 238.00 L 367.00 203.00 L 365.00 157.00 L 347.00 96.00 L 316.00 61.00 L 318.00 57.00 L 316.00 61.00 L 307.00 52.00 L 310.00 49.00 L 302.00 48.00 L 283.00 34.00 L 285.00 31.00 L 236.00 12.00 Z M 169.00 32.00 L 223.00 36.00 L 253.00 47.00 L 280.00 64.00 L 304.00 87.00 L 320.00 110.00 L 334.00 142.00 L 340.00 172.00 L 340.00 200.00 L 334.00 232.00 L 307.00 283.00 L 264.00 321.00 L 233.00 335.00 L 200.00 342.00 L 170.00 342.00 L 140.00 336.00 L 108.00 322.00 L 85.00 306.00 L 61.00 281.00 L 47.00 259.00 L 34.00 227.00 L 30.00 204.00 L 34.00 146.00 L 58.00 96.00 L 96.00 59.00 L 103.00 60.00 L 97.00 59.00 L 139.00 38.00 Z M 178.00 46.00 L 135.00 55.00 L 107.00 66.00 L 111.00 67.00 L 97.00 77.00 L 94.00 75.00 L 95.00 78.00 L 63.00 111.00 L 65.00 113.00 L 53.00 132.00 L 45.00 166.00 L 44.00 199.00 L 51.00 236.00 L 68.00 266.00 L 92.00 293.00 L 134.00 319.00 L 159.00 326.00 L 195.00 328.00 L 238.00 318.00 L 269.00 300.00 L 289.00 282.00 L 306.00 259.00 L 323.00 216.00 L 326.00 181.00 L 318.00 143.00 L 320.00 139.00 L 317.00 139.00 L 308.00 120.00 L 310.00 116.00 L 305.00 114.00 L 289.00 89.00 L 262.00 70.00 L 262.00 66.00 L 261.00 69.00 L 245.00 58.00 L 210.00 48.00 Z" fill="#000" fill-rule="evenodd" />
</svg>
