<?xml version="1.0" encoding="UTF-8"?>
<svg xmlns="http://www.w3.org/2000/svg" viewBox="0 0 211 212" width="211" height="212">
  <path d="M 98.00 2.00 L 72.00 7.00 L 55.00 14.00 L 27.00 37.00 L 10.00 64.00 L 4.00 84.00 L 0.00 113.00 L 12.00 154.00 L 35.00 184.00 L 65.00 203.00 L 96.00 211.00 L 113.00 211.00 L 113.00 209.00 L 140.00 205.00 L 157.00 197.00 L 187.00 171.00 L 204.00 139.00 L 208.00 122.00 L 208.00 97.00 L 201.00 66.00 L 184.00 39.00 L 185.00 36.00 L 183.00 37.00 L 179.00 31.00 L 146.00 10.00 L 126.00 4.00 Z M 87.00 16.00 L 122.00 16.00 L 124.00 18.00 L 123.00 195.00 L 87.00 195.00 L 85.00 191.00 L 85.00 47.00 Z" fill="#000" fill-rule="evenodd" />
</svg>
