<?xml version="1.0" encoding="UTF-8"?>
<svg xmlns="http://www.w3.org/2000/svg" viewBox="0 0 187 187" width="187" height="187">
  <path d="M 4.00 3.00 L 1.00 8.00 L 50.00 69.00 L 50.00 90.00 L 40.00 97.00 L 39.00 107.00 L 50.00 118.00 L 51.00 136.00 L 40.00 145.00 L 39.00 153.00 L 40.00 157.00 L 51.00 166.00 L 56.00 183.00 L 130.00 184.00 L 135.00 166.00 L 135.00 146.00 L 146.00 137.00 L 144.00 123.00 L 135.00 116.00 L 135.00 99.00 L 146.00 89.00 L 145.00 78.00 L 136.00 71.00 L 136.00 65.00 L 151.00 47.00 L 160.00 41.00 L 158.00 40.00 L 183.00 10.00 L 183.00 4.00 L 102.00 2.00 L 102.00 30.00 L 84.00 32.00 L 83.00 2.00 Z" fill="#000" fill-rule="evenodd" />
  <line x1="35" y1="22.5" x2="150" y2="23" stroke="#000000" stroke-width="40" />
</svg>
