<?xml version="1.0" encoding="UTF-8"?>
<svg xmlns="http://www.w3.org/2000/svg" viewBox="0 0 211 211" width="211" height="211">
  <path d="M 103.00 0.00 L 81.00 3.00 L 60.00 10.00 L 33.00 27.00 L 25.00 38.00 L 23.00 35.00 L 18.00 42.00 L 17.00 36.00 L 16.00 45.00 L 20.00 40.00 L 22.00 42.00 L 13.00 55.00 L 3.00 81.00 L 1.00 115.00 L 13.00 153.00 L 40.00 186.00 L 55.00 196.00 L 83.00 206.00 L 114.00 208.00 L 131.00 205.00 L 155.00 196.00 L 181.00 176.00 L 194.00 159.00 L 202.00 141.00 L 209.00 101.00 L 206.00 80.00 L 199.00 60.00 L 188.00 41.00 L 173.00 25.00 L 143.00 7.00 L 126.00 2.00 Z M 108.00 61.00 L 109.00 62.00 L 118.00 63.00 L 127.00 67.00 L 134.00 72.00 L 142.00 82.00 L 142.00 84.00 L 146.00 91.00 L 147.00 101.00 L 148.00 102.00 L 147.00 103.00 L 148.00 105.00 L 147.00 106.00 L 147.00 114.00 L 146.00 118.00 L 140.00 129.00 L 128.00 141.00 L 117.00 146.00 L 113.00 146.00 L 112.00 147.00 L 97.00 147.00 L 85.00 143.00 L 78.00 137.00 L 79.00 135.00 L 77.00 137.00 L 69.00 129.00 L 66.00 123.00 L 62.00 109.00 L 62.00 100.00 L 65.00 88.00 L 68.00 82.00 L 75.00 73.00 L 83.00 67.00 L 96.00 62.00 L 103.00 62.00 L 104.00 63.00 L 102.00 64.00 L 104.00 63.00 L 105.00 64.00 L 104.00 63.00 L 106.00 61.00 L 107.00 65.00 L 108.00 65.00 L 107.00 64.00 Z" fill="#000" fill-rule="evenodd" />
</svg>
