<?xml version="1.0" encoding="UTF-8"?>
<svg xmlns="http://www.w3.org/2000/svg" viewBox="0 0 180 178" width="180" height="178">
  <path d="M 82.00 0.00 L 62.00 4.00 L 46.00 11.00 L 29.00 23.00 L 18.00 35.00 L 8.00 51.00 L 2.00 68.00 L 0.00 98.00 L 4.00 116.00 L 12.00 134.00 L 32.00 157.00 L 45.00 166.00 L 67.00 175.00 L 76.00 177.00 L 103.00 177.00 L 124.00 171.00 L 136.00 165.00 L 161.00 143.00 L 168.00 133.00 L 176.00 114.00 L 179.00 101.00 L 179.00 77.00 L 169.00 46.00 L 160.00 33.00 L 143.00 17.00 L 114.00 3.00 L 99.00 0.00 Z M 81.00 16.00 L 110.00 18.00 L 134.00 30.00 L 155.00 53.00 L 164.00 80.00 L 161.00 111.00 L 148.00 134.00 L 122.00 155.00 L 98.00 162.00 L 71.00 160.00 L 52.00 152.00 L 42.00 144.00 L 52.00 145.00 L 60.00 139.00 L 63.00 133.00 L 60.00 123.00 L 80.00 133.00 L 98.00 133.00 L 118.00 124.00 L 116.00 134.00 L 119.00 139.00 L 127.00 145.00 L 135.00 144.00 L 146.00 129.00 L 138.00 117.00 L 126.00 116.00 L 135.00 95.00 L 135.00 82.00 L 127.00 63.00 L 140.00 59.00 L 145.00 53.00 L 145.00 45.00 L 133.00 32.00 L 126.00 32.00 L 117.00 41.00 L 117.00 53.00 L 99.00 45.00 L 81.00 45.00 L 62.00 53.00 L 63.00 43.00 L 60.00 38.00 L 52.00 32.00 L 44.00 32.00 L 59.00 22.00 Z M 78.00 21.00 L 78.00 22.00 L 76.00 24.00 L 76.00 26.00 L 75.00 27.00 L 75.00 34.00 L 76.00 35.00 L 76.00 37.00 L 77.00 38.00 L 77.00 39.00 L 79.00 41.00 L 80.00 41.00 L 81.00 42.00 L 83.00 42.00 L 84.00 43.00 L 96.00 43.00 L 97.00 42.00 L 99.00 42.00 L 103.00 38.00 L 103.00 37.00 L 104.00 36.00 L 104.00 33.00 L 105.00 32.00 L 105.00 30.00 L 104.00 29.00 L 104.00 26.00 L 103.00 25.00 L 103.00 24.00 L 102.00 23.00 L 102.00 22.00 L 101.00 21.00 L 100.00 21.00 L 98.00 19.00 L 96.00 19.00 L 95.00 18.00 L 85.00 18.00 L 84.00 19.00 L 82.00 19.00 L 81.00 20.00 L 80.00 20.00 L 79.00 21.00 Z M 144.00 75.00 L 143.00 76.00 L 142.00 76.00 L 138.00 80.00 L 138.00 82.00 L 137.00 83.00 L 137.00 95.00 L 138.00 96.00 L 138.00 97.00 L 139.00 98.00 L 139.00 99.00 L 141.00 101.00 L 142.00 101.00 L 143.00 102.00 L 144.00 102.00 L 145.00 103.00 L 154.00 103.00 L 155.00 102.00 L 156.00 102.00 L 157.00 101.00 L 158.00 101.00 L 160.00 99.00 L 160.00 98.00 L 161.00 97.00 L 161.00 81.00 L 160.00 80.00 L 160.00 79.00 L 157.00 76.00 L 156.00 76.00 L 155.00 75.00 L 152.00 75.00 L 151.00 74.00 L 149.00 74.00 L 148.00 75.00 Z M 76.00 140.00 L 76.00 142.00 L 75.00 143.00 L 75.00 151.00 L 76.00 152.00 L 76.00 154.00 L 80.00 158.00 L 81.00 158.00 L 82.00 159.00 L 85.00 159.00 L 86.00 160.00 L 92.00 160.00 L 93.00 159.00 L 96.00 159.00 L 97.00 158.00 L 98.00 158.00 L 99.00 157.00 L 100.00 157.00 L 102.00 155.00 L 102.00 154.00 L 103.00 153.00 L 103.00 152.00 L 104.00 151.00 L 104.00 142.00 L 103.00 141.00 L 103.00 140.00 L 102.00 139.00 L 102.00 138.00 L 101.00 137.00 L 100.00 137.00 L 99.00 136.00 L 98.00 136.00 L 97.00 135.00 L 82.00 135.00 L 81.00 136.00 L 80.00 136.00 Z M 44.00 32.00 L 45.00 33.00 L 36.00 42.00 L 34.00 46.00 L 34.00 52.00 L 37.00 57.00 L 42.00 61.00 L 53.00 62.00 L 47.00 73.00 L 45.00 86.00 L 44.00 87.00 L 41.00 79.00 L 36.00 75.00 L 25.00 75.00 L 21.00 77.00 L 18.00 82.00 L 18.00 95.00 L 19.00 98.00 L 25.00 103.00 L 37.00 102.00 L 42.00 97.00 L 44.00 91.00 L 47.00 105.00 L 55.00 117.00 L 54.00 119.00 L 51.00 116.00 L 47.00 115.00 L 40.00 118.00 L 35.00 123.00 L 34.00 131.00 L 35.00 134.00 L 43.00 143.00 L 41.00 144.00 L 28.00 130.00 L 21.00 118.00 L 16.00 101.00 L 15.00 86.00 L 16.00 75.00 L 24.00 54.00 L 30.00 45.00 Z M 87.00 59.00 L 91.00 59.00 L 92.00 60.00 L 97.00 60.00 L 98.00 61.00 L 100.00 61.00 L 108.00 65.00 L 116.00 74.00 L 117.00 78.00 L 118.00 79.00 L 118.00 81.00 L 119.00 82.00 L 119.00 85.00 L 120.00 86.00 L 120.00 89.00 L 119.00 90.00 L 119.00 96.00 L 118.00 97.00 L 118.00 99.00 L 115.00 105.00 L 106.00 114.00 L 100.00 117.00 L 98.00 117.00 L 97.00 118.00 L 93.00 118.00 L 92.00 119.00 L 86.00 119.00 L 85.00 118.00 L 81.00 118.00 L 73.00 114.00 L 65.00 106.00 L 65.00 105.00 L 63.00 103.00 L 61.00 99.00 L 61.00 96.00 L 60.00 95.00 L 60.00 82.00 L 61.00 81.00 L 62.00 76.00 L 64.00 74.00 L 64.00 73.00 L 73.00 64.00 L 79.00 61.00 L 81.00 61.00 L 82.00 60.00 L 86.00 60.00 Z" fill="#000" fill-rule="evenodd" />
</svg>
