<?xml version="1.0" encoding="UTF-8"?>
<svg xmlns="http://www.w3.org/2000/svg" viewBox="0 0 322 193" width="322" height="193">
  <path d="M 10.00 59.00 L 15.00 59.00 L 11.00 66.00 L 11.00 136.00 L 18.00 144.00 L 23.00 144.00 L 24.00 149.00 L 29.00 147.00 L 36.00 153.00 L 34.00 156.00 L 44.00 146.00 L 49.00 155.00 L 60.00 146.00 L 70.00 154.00 L 75.00 147.00 L 84.00 154.00 L 91.00 147.00 L 103.00 154.00 L 108.00 146.00 L 120.00 154.00 L 121.00 150.00 L 125.00 153.00 L 123.00 147.00 L 129.00 146.00 L 130.00 171.00 L 140.00 186.00 L 136.00 188.00 L 236.00 189.00 L 314.00 111.00 L 313.00 90.00 L 235.00 12.00 L 141.00 10.00 L 130.00 29.00 L 130.00 52.00 L 114.00 52.00 L 109.00 46.00 L 88.00 46.00 L 84.00 52.00 L 78.00 46.00 L 39.00 46.00 L 34.00 52.00 L 33.00 46.00 L 25.00 46.00 Z M 141.00 35.00 L 143.00 31.00 L 145.00 32.00 L 145.00 26.00 L 147.00 25.00 L 147.00 28.00 L 150.00 27.00 L 148.00 27.00 L 148.00 23.00 L 206.00 23.00 L 206.00 25.00 L 151.00 25.00 L 223.00 25.00 L 226.00 27.00 L 227.00 30.00 L 225.00 38.00 L 227.00 31.00 L 229.00 39.00 L 227.00 41.00 L 228.00 43.00 L 226.00 43.00 L 225.00 46.00 L 227.00 51.00 L 225.00 51.00 L 225.00 58.00 L 223.00 60.00 L 146.00 60.00 L 146.00 55.00 L 145.00 56.00 L 145.00 53.00 L 143.00 52.00 L 144.00 50.00 L 145.00 51.00 L 145.00 46.00 L 144.00 50.00 L 142.00 50.00 L 143.00 46.00 L 141.00 44.00 Z M 239.00 30.00 L 250.00 41.00 L 249.00 42.00 L 251.00 42.00 L 255.00 48.00 L 257.00 48.00 L 272.00 63.00 L 271.00 66.00 L 274.00 65.00 L 281.00 72.00 L 281.00 75.00 L 282.00 73.00 L 285.00 76.00 L 284.00 77.00 L 286.00 77.00 L 288.00 79.00 L 287.00 80.00 L 289.00 80.00 L 289.00 82.00 L 290.00 81.00 L 297.00 88.00 L 295.00 90.00 L 297.00 88.00 L 300.00 91.00 L 298.00 93.00 L 297.00 92.00 L 302.00 94.00 L 302.00 105.00 L 298.00 109.00 L 296.00 107.00 L 297.00 110.00 L 294.00 111.00 L 295.00 112.00 L 292.00 113.00 L 292.00 115.00 L 290.00 115.00 L 291.00 116.00 L 285.00 122.00 L 283.00 120.00 L 285.00 123.00 L 277.00 127.00 L 279.00 128.00 L 277.00 130.00 L 276.00 129.00 L 275.00 132.00 L 273.00 130.00 L 275.00 132.00 L 272.00 132.00 L 273.00 134.00 L 271.00 134.00 L 271.00 136.00 L 267.00 138.00 L 263.00 144.00 L 260.00 142.00 L 263.00 145.00 L 259.00 148.00 L 258.00 147.00 L 259.00 148.00 L 255.00 152.00 L 254.00 150.00 L 255.00 152.00 L 251.00 156.00 L 249.00 153.00 L 251.00 156.00 L 249.00 158.00 L 248.00 157.00 L 247.00 160.00 L 246.00 159.00 L 247.00 160.00 L 241.00 165.00 L 240.00 168.00 L 238.00 166.00 L 238.00 143.00 L 238.00 146.00 L 236.00 146.00 L 233.00 136.00 L 235.00 123.00 L 237.00 121.00 L 238.00 123.00 L 238.00 76.00 L 236.00 78.00 L 235.00 77.00 L 236.00 74.00 L 233.00 69.00 L 233.00 62.00 L 237.00 60.00 L 235.00 62.00 L 234.00 61.00 L 235.00 56.00 L 238.00 56.00 L 236.00 53.00 L 238.00 52.00 Z M 113.00 61.00 L 115.00 62.00 L 117.00 61.00 L 118.00 63.00 L 119.00 61.00 L 128.00 61.00 L 129.00 63.00 L 130.00 61.00 L 131.00 62.00 L 131.00 136.00 L 130.00 137.00 L 121.00 137.00 L 118.00 134.00 L 118.00 121.00 L 117.00 120.00 L 118.00 119.00 L 117.00 118.00 L 117.00 112.00 L 116.00 111.00 L 116.00 102.00 L 117.00 101.00 L 116.00 102.00 L 115.00 101.00 L 115.00 88.00 L 114.00 87.00 L 114.00 80.00 L 115.00 79.00 L 116.00 81.00 L 116.00 78.00 L 115.00 77.00 L 115.00 72.00 L 115.00 79.00 L 114.00 80.00 L 113.00 79.00 L 113.00 66.00 L 112.00 65.00 L 112.00 62.00 Z M 70.00 63.00 L 71.00 64.00 L 71.00 70.00 L 72.00 71.00 L 72.00 79.00 L 73.00 80.00 L 73.00 88.00 L 74.00 89.00 L 73.00 90.00 L 73.00 92.00 L 74.00 93.00 L 74.00 103.00 L 75.00 104.00 L 75.00 112.00 L 76.00 113.00 L 76.00 126.00 L 77.00 127.00 L 77.00 134.00 L 76.00 135.00 L 73.00 135.00 L 72.00 136.00 L 71.00 135.00 L 71.00 131.00 L 70.00 130.00 L 70.00 116.00 L 69.00 115.00 L 69.00 107.00 L 68.00 106.00 L 68.00 101.00 L 69.00 100.00 L 70.00 101.00 L 68.00 99.00 L 68.00 98.00 L 69.00 97.00 L 69.00 95.00 L 70.00 94.00 L 69.00 93.00 L 69.00 89.00 L 70.00 88.00 L 69.00 88.00 L 68.00 87.00 L 69.00 86.00 L 69.00 85.00 L 69.00 86.00 L 68.00 87.00 L 67.00 86.00 L 67.00 83.00 L 66.00 82.00 L 66.00 74.00 L 65.00 73.00 L 65.00 69.00 L 66.00 68.00 L 65.00 67.00 L 65.00 65.00 L 66.00 64.00 L 69.00 64.00 Z M 86.00 63.00 L 87.00 64.00 L 87.00 66.00 L 86.00 67.00 L 87.00 69.00 L 86.00 70.00 L 88.00 74.00 L 88.00 82.00 L 89.00 83.00 L 89.00 91.00 L 90.00 92.00 L 90.00 105.00 L 89.00 107.00 L 90.00 105.00 L 91.00 106.00 L 91.00 114.00 L 92.00 115.00 L 92.00 124.00 L 90.00 125.00 L 91.00 126.00 L 91.00 130.00 L 92.00 129.00 L 93.00 130.00 L 93.00 134.00 L 92.00 135.00 L 89.00 135.00 L 88.00 136.00 L 87.00 135.00 L 87.00 131.00 L 89.00 130.00 L 89.00 128.00 L 89.00 129.00 L 87.00 131.00 L 86.00 130.00 L 86.00 114.00 L 85.00 113.00 L 85.00 107.00 L 84.00 106.00 L 84.00 98.00 L 83.00 97.00 L 84.00 96.00 L 83.00 95.00 L 83.00 84.00 L 82.00 83.00 L 82.00 76.00 L 81.00 75.00 L 81.00 65.00 L 82.00 64.00 L 84.00 64.00 L 85.00 65.00 L 84.00 66.00 Z M 101.00 63.00 L 102.00 63.00 L 103.00 64.00 L 103.00 76.00 L 104.00 77.00 L 104.00 84.00 L 105.00 85.00 L 105.00 93.00 L 106.00 94.00 L 105.00 95.00 L 106.00 96.00 L 106.00 101.00 L 104.00 103.00 L 103.00 102.00 L 103.00 101.00 L 104.00 100.00 L 103.00 101.00 L 103.00 103.00 L 104.00 104.00 L 104.00 103.00 L 105.00 102.00 L 106.00 103.00 L 106.00 106.00 L 107.00 107.00 L 107.00 108.00 L 106.00 109.00 L 107.00 110.00 L 107.00 114.00 L 108.00 115.00 L 108.00 124.00 L 107.00 125.00 L 107.00 126.00 L 108.00 127.00 L 108.00 129.00 L 106.00 131.00 L 105.00 130.00 L 105.00 128.00 L 104.00 127.00 L 105.00 124.00 L 104.00 124.00 L 104.00 126.00 L 103.00 127.00 L 102.00 126.00 L 102.00 120.00 L 101.00 119.00 L 101.00 110.00 L 100.00 109.00 L 100.00 100.00 L 99.00 99.00 L 99.00 86.00 L 98.00 85.00 L 98.00 77.00 L 97.00 76.00 L 97.00 68.00 L 98.00 67.00 L 99.00 68.00 L 97.00 65.00 L 98.00 64.00 L 100.00 64.00 Z M 35.00 64.00 L 37.00 65.00 L 35.00 67.00 L 37.00 65.00 L 38.00 66.00 L 37.00 68.00 L 38.00 67.00 L 40.00 69.00 L 41.00 87.00 L 42.00 88.00 L 42.00 98.00 L 41.00 99.00 L 40.00 98.00 L 40.00 93.00 L 39.00 92.00 L 40.00 91.00 L 40.00 89.00 L 40.00 90.00 L 38.00 92.00 L 40.00 93.00 L 40.00 98.00 L 42.00 101.00 L 41.00 103.00 L 42.00 101.00 L 43.00 102.00 L 43.00 109.00 L 44.00 110.00 L 44.00 123.00 L 45.00 124.00 L 44.00 125.00 L 45.00 126.00 L 45.00 133.00 L 46.00 134.00 L 45.00 135.00 L 42.00 135.00 L 41.00 136.00 L 39.00 134.00 L 38.00 116.00 L 39.00 115.00 L 41.00 115.00 L 42.00 116.00 L 40.00 112.00 L 39.00 114.00 L 38.00 113.00 L 38.00 111.00 L 40.00 109.00 L 38.00 111.00 L 37.00 110.00 L 37.00 102.00 L 36.00 101.00 L 36.00 94.00 L 35.00 93.00 L 36.00 92.00 L 35.00 90.00 L 35.00 80.00 L 34.00 79.00 L 34.00 71.00 L 33.00 70.00 L 33.00 66.00 Z M 50.00 64.00 L 51.00 65.00 L 53.00 65.00 L 55.00 67.00 L 55.00 71.00 L 56.00 72.00 L 56.00 79.00 L 57.00 80.00 L 57.00 88.00 L 58.00 89.00 L 58.00 91.00 L 56.00 93.00 L 57.00 92.00 L 58.00 93.00 L 58.00 100.00 L 57.00 101.00 L 59.00 104.00 L 59.00 111.00 L 60.00 112.00 L 60.00 125.00 L 61.00 126.00 L 61.00 132.00 L 62.00 133.00 L 60.00 135.00 L 57.00 135.00 L 56.00 136.00 L 55.00 135.00 L 55.00 129.00 L 54.00 128.00 L 54.00 114.00 L 53.00 113.00 L 53.00 105.00 L 52.00 104.00 L 52.00 94.00 L 51.00 93.00 L 51.00 79.00 L 50.00 78.00 L 50.00 72.00 L 49.00 71.00 L 49.00 65.00 Z M 22.00 67.00 L 24.00 69.00 L 24.00 76.00 L 25.00 77.00 L 25.00 84.00 L 26.00 85.00 L 25.00 86.00 L 26.00 87.00 L 26.00 97.00 L 27.00 98.00 L 27.00 106.00 L 28.00 107.00 L 28.00 122.00 L 29.00 123.00 L 29.00 132.00 L 30.00 133.00 L 30.00 135.00 L 29.00 136.00 L 25.00 132.00 L 26.00 133.00 L 25.00 134.00 L 24.00 134.00 L 22.00 132.00 L 22.00 131.00 L 23.00 130.00 L 23.00 128.00 L 22.00 127.00 L 24.00 125.00 L 23.00 125.00 L 22.00 126.00 L 21.00 125.00 L 21.00 68.00 Z M 145.00 72.00 L 147.00 70.00 L 223.00 70.00 L 224.00 71.00 L 223.00 72.00 L 224.00 71.00 L 225.00 72.00 L 225.00 75.00 L 223.00 76.00 L 226.00 77.00 L 225.00 83.00 L 226.00 81.00 L 227.00 82.00 L 227.00 85.00 L 226.00 86.00 L 225.00 85.00 L 226.00 86.00 L 225.00 90.00 L 226.00 92.00 L 227.00 91.00 L 228.00 92.00 L 227.00 94.00 L 228.00 93.00 L 229.00 94.00 L 228.00 112.00 L 227.00 113.00 L 226.00 112.00 L 226.00 109.00 L 225.00 115.00 L 226.00 114.00 L 227.00 116.00 L 225.00 119.00 L 224.00 118.00 L 225.00 119.00 L 224.00 120.00 L 226.00 122.00 L 223.00 129.00 L 147.00 129.00 L 144.00 122.00 L 145.00 116.00 L 145.00 119.00 L 144.00 120.00 L 142.00 115.00 L 143.00 111.00 L 141.00 109.00 L 142.00 105.00 L 141.00 104.00 L 141.00 89.00 L 143.00 79.00 L 144.00 78.00 L 145.00 79.00 L 144.00 83.00 L 145.00 84.00 L 144.00 78.00 Z M 145.00 141.00 L 147.00 139.00 L 224.00 139.00 L 225.00 140.00 L 223.00 142.00 L 226.00 144.00 L 225.00 146.00 L 226.00 147.00 L 226.00 153.00 L 225.00 154.00 L 226.00 154.00 L 226.00 151.00 L 227.00 150.00 L 228.00 151.00 L 228.00 158.00 L 229.00 159.00 L 228.00 160.00 L 228.00 166.00 L 226.00 167.00 L 227.00 169.00 L 226.00 170.00 L 225.00 169.00 L 226.00 172.00 L 225.00 173.00 L 224.00 172.00 L 226.00 174.00 L 224.00 177.00 L 147.00 177.00 L 145.00 175.00 L 146.00 172.00 L 145.00 173.00 L 144.00 172.00 L 145.00 170.00 L 144.00 171.00 L 143.00 170.00 L 144.00 168.00 L 143.00 169.00 L 142.00 168.00 L 143.00 166.00 L 141.00 163.00 L 142.00 150.00 L 144.00 148.00 L 145.00 149.00 L 143.00 147.00 L 145.00 146.00 L 144.00 145.00 L 146.00 142.00 L 150.00 142.00 L 146.00 142.00 Z" fill="#000" fill-rule="evenodd" />
</svg>
