<?xml version="1.0" encoding="utf-8"?>
<svg xmlns="http://www.w3.org/2000/svg" viewBox="163.99 86.799 207.423 207.407" width="207.423px" height="207.407px">
  <path d="M 250.99 86.799 L 218.919 97.749 L 193.545 116.397 L 176.957 138.832 L 167.99 160.799 L 163.99 183.799 L 165.567 210.14 L 176.633 240.882 L 198.99 268.799 L 227.5 286.562 L 266.765 294.206 L 301.072 288.359 L 331.21 272.359 L 352.704 249.728 L 366.666 221.771 L 371.413 190.469 L 366.55 157.48 L 350.347 127.156 L 322.99 100.799 L 284.99 86.799 L 250.99 86.799 Z M 251.99 112.799 L 285.413 113.189 L 284.99 173.799 L 345.99 174.799 L 345.82 207.409 L 284.38 207.409 L 283.99 266.782 L 250.99 266.799 L 250.99 206.799 L 189.99 205.799 L 189.974 174.019 L 250.99 173.799 L 251.99 112.799 Z" fill="#000" fill-rule="evenodd" style="stroke-width: 1;" transform="matrix(1, 0, 0, 1, -1.4210854715202004e-14, -7.105427357601002e-15)"/>
</svg>