<?xml version="1.0" encoding="UTF-8"?>
<svg xmlns="http://www.w3.org/2000/svg" viewBox="0 0 116 205" width="116" height="205">
  <path d="M 15.00 0.00 L 15.00 31.00 L 9.00 39.00 L 15.00 51.00 L 15.00 60.00 L 9.00 64.00 L 8.00 58.00 L 7.00 62.00 L 8.00 77.00 L 15.00 82.00 L 11.00 84.00 L 8.00 82.00 L 7.00 87.00 L 9.00 84.00 L 13.00 90.00 L 15.00 88.00 L 9.00 98.00 L 9.00 106.00 L 15.00 112.00 L 16.00 119.00 L 9.00 130.00 L 8.00 126.00 L 7.00 154.00 L 9.00 138.00 L 15.00 143.00 L 16.00 148.00 L 13.00 149.00 L 14.00 153.00 L 10.00 151.00 L 14.00 154.00 L 9.00 159.00 L 8.00 174.00 L 9.00 169.00 L 15.00 174.00 L 15.00 182.00 L 31.00 202.00 L 85.00 203.00 L 102.00 181.00 L 105.00 167.00 L 102.00 159.00 L 107.00 153.00 L 107.00 147.00 L 101.00 139.00 L 101.00 129.00 L 107.00 120.00 L 107.00 116.00 L 101.00 109.00 L 103.00 100.00 L 101.00 98.00 L 107.00 91.00 L 107.00 85.00 L 102.00 79.00 L 105.00 70.00 L 102.00 67.00 L 107.00 58.00 L 101.00 47.00 L 102.00 1.00 Z M 93.00 44.00 L 92.00 45.00 L 93.00 46.00 L 93.00 47.00 L 92.00 48.00 L 89.00 48.00 L 88.00 49.00 L 82.00 49.00 L 81.00 50.00 L 76.00 50.00 L 75.00 51.00 L 69.00 51.00 L 68.00 52.00 L 63.00 52.00 L 62.00 53.00 L 58.00 53.00 L 57.00 54.00 L 52.00 54.00 L 51.00 55.00 L 46.00 55.00 L 45.00 56.00 L 41.00 56.00 L 40.00 57.00 L 34.00 57.00 L 33.00 58.00 L 28.00 58.00 L 27.00 59.00 L 24.00 59.00 L 23.00 58.00 L 23.00 56.00 L 24.00 55.00 L 29.00 54.00 L 25.00 54.00 L 24.00 55.00 L 23.00 54.00 L 23.00 52.00 L 26.00 50.00 L 31.00 50.00 L 32.00 49.00 L 37.00 49.00 L 38.00 48.00 L 43.00 48.00 L 44.00 47.00 L 52.00 47.00 L 53.00 46.00 L 59.00 46.00 L 60.00 45.00 L 64.00 45.00 L 65.00 44.00 L 68.00 44.00 L 69.00 43.00 L 75.00 43.00 L 76.00 42.00 L 82.00 42.00 L 83.00 41.00 L 89.00 41.00 L 90.00 40.00 L 91.00 40.00 L 92.00 41.00 L 92.00 43.00 Z M 93.00 75.00 L 90.00 79.00 L 86.00 79.00 L 85.00 78.00 L 84.00 80.00 L 79.00 80.00 L 78.00 81.00 L 74.00 81.00 L 73.00 82.00 L 68.00 82.00 L 67.00 83.00 L 62.00 83.00 L 61.00 84.00 L 50.00 85.00 L 49.00 86.00 L 45.00 86.00 L 44.00 87.00 L 39.00 87.00 L 38.00 88.00 L 33.00 88.00 L 32.00 89.00 L 26.00 89.00 L 25.00 88.00 L 24.00 90.00 L 23.00 89.00 L 23.00 87.00 L 24.00 86.00 L 27.00 86.00 L 28.00 85.00 L 31.00 85.00 L 32.00 84.00 L 33.00 85.00 L 34.00 84.00 L 39.00 84.00 L 25.00 84.00 L 24.00 85.00 L 23.00 84.00 L 23.00 82.00 L 24.00 81.00 L 28.00 81.00 L 29.00 80.00 L 35.00 80.00 L 36.00 79.00 L 41.00 79.00 L 42.00 78.00 L 48.00 78.00 L 49.00 77.00 L 55.00 77.00 L 56.00 76.00 L 60.00 76.00 L 61.00 75.00 L 67.00 75.00 L 68.00 74.00 L 74.00 74.00 L 75.00 73.00 L 81.00 73.00 L 82.00 72.00 L 89.00 72.00 L 90.00 71.00 L 92.00 72.00 L 92.00 74.00 Z M 93.00 105.00 L 93.00 107.00 L 90.00 110.00 L 85.00 110.00 L 84.00 111.00 L 80.00 111.00 L 79.00 112.00 L 74.00 112.00 L 73.00 113.00 L 67.00 113.00 L 66.00 114.00 L 61.00 114.00 L 60.00 115.00 L 54.00 115.00 L 53.00 116.00 L 49.00 116.00 L 48.00 117.00 L 43.00 117.00 L 42.00 118.00 L 38.00 118.00 L 37.00 119.00 L 32.00 119.00 L 31.00 120.00 L 27.00 120.00 L 26.00 121.00 L 23.00 121.00 L 22.00 120.00 L 22.00 119.00 L 23.00 118.00 L 23.00 113.00 L 24.00 112.00 L 26.00 112.00 L 27.00 111.00 L 32.00 111.00 L 33.00 110.00 L 38.00 110.00 L 39.00 109.00 L 44.00 109.00 L 45.00 108.00 L 52.00 108.00 L 53.00 107.00 L 58.00 107.00 L 59.00 106.00 L 64.00 106.00 L 65.00 105.00 L 70.00 105.00 L 71.00 104.00 L 78.00 104.00 L 79.00 103.00 L 85.00 103.00 L 86.00 102.00 L 91.00 102.00 Z M 93.00 134.00 L 93.00 139.00 L 92.00 140.00 L 89.00 140.00 L 88.00 141.00 L 83.00 141.00 L 82.00 142.00 L 78.00 142.00 L 77.00 143.00 L 73.00 143.00 L 72.00 144.00 L 61.00 145.00 L 60.00 146.00 L 56.00 146.00 L 55.00 147.00 L 50.00 147.00 L 49.00 148.00 L 43.00 148.00 L 42.00 149.00 L 38.00 149.00 L 37.00 150.00 L 32.00 150.00 L 31.00 151.00 L 26.00 151.00 L 25.00 152.00 L 23.00 152.00 L 22.00 151.00 L 24.00 147.00 L 27.00 147.00 L 28.00 146.00 L 33.00 146.00 L 31.00 145.00 L 29.00 146.00 L 24.00 146.00 L 23.00 144.00 L 24.00 143.00 L 27.00 143.00 L 28.00 142.00 L 33.00 142.00 L 34.00 141.00 L 39.00 141.00 L 40.00 140.00 L 46.00 140.00 L 47.00 139.00 L 53.00 139.00 L 54.00 138.00 L 58.00 138.00 L 59.00 137.00 L 67.00 137.00 L 68.00 136.00 L 73.00 136.00 L 74.00 135.00 L 85.00 134.00 L 86.00 133.00 L 90.00 133.00 L 91.00 132.00 Z M 93.00 163.00 L 93.00 169.00 L 92.00 170.00 L 90.00 170.00 L 89.00 171.00 L 83.00 171.00 L 82.00 172.00 L 69.00 172.00 L 68.00 173.00 L 57.00 173.00 L 56.00 174.00 L 39.00 174.00 L 38.00 175.00 L 32.00 175.00 L 29.00 173.00 L 30.00 172.00 L 34.00 172.00 L 35.00 171.00 L 41.00 171.00 L 42.00 170.00 L 47.00 170.00 L 48.00 169.00 L 54.00 169.00 L 55.00 168.00 L 61.00 168.00 L 62.00 167.00 L 67.00 167.00 L 68.00 166.00 L 73.00 166.00 L 74.00 165.00 L 79.00 165.00 L 80.00 164.00 L 85.00 164.00 L 86.00 163.00 L 91.00 163.00 L 92.00 162.00 Z" fill="#000" fill-rule="evenodd" />
</svg>
