<?xml version="1.0" encoding="UTF-8"?>
<svg xmlns="http://www.w3.org/2000/svg" viewBox="0 0 340 201" width="340" height="201">
  <path d="M 10.00 70.00 L 10.00 139.00 L 13.00 138.00 L 14.00 152.00 L 35.00 161.00 L 40.00 168.00 L 52.00 163.00 L 57.00 168.00 L 68.00 163.00 L 73.00 168.00 L 82.00 164.00 L 87.00 169.00 L 97.00 164.00 L 103.00 168.00 L 114.00 164.00 L 125.00 172.00 L 136.00 170.00 L 147.00 185.00 L 234.00 187.00 L 261.00 172.00 L 268.00 179.00 L 302.00 176.00 L 316.00 154.00 L 320.00 77.00 L 311.00 42.00 L 298.00 29.00 L 264.00 29.00 L 266.00 31.00 L 260.00 35.00 L 254.00 28.00 L 248.00 29.00 L 236.00 21.00 L 155.00 21.00 L 142.00 27.00 L 138.00 35.00 L 125.00 36.00 L 120.00 42.00 L 114.00 40.00 L 106.00 44.00 L 100.00 40.00 L 91.00 45.00 L 69.00 40.00 L 65.00 43.00 L 33.00 41.00 L 17.00 55.00 L 13.00 74.00 Z M 156.00 31.00 L 220.00 32.00 L 218.00 34.00 L 216.00 33.00 L 218.00 35.00 L 212.00 44.00 L 213.00 46.00 L 211.00 46.00 L 211.00 51.00 L 209.00 51.00 L 210.00 56.00 L 207.00 66.00 L 205.00 63.00 L 205.00 128.00 L 207.00 140.00 L 205.00 140.00 L 205.00 137.00 L 205.00 141.00 L 216.00 168.00 L 215.00 171.00 L 218.00 172.00 L 219.00 176.00 L 156.00 176.00 L 156.00 174.00 L 154.00 175.00 L 150.00 171.00 L 151.00 169.00 L 148.00 168.00 L 148.00 163.00 L 143.00 157.00 L 142.00 149.00 L 140.00 148.00 L 141.00 140.00 L 140.00 142.00 L 138.00 138.00 L 135.00 100.00 L 138.00 81.00 L 137.00 74.00 L 144.00 48.00 L 145.00 50.00 L 144.00 48.00 L 147.00 42.00 L 148.00 44.00 L 148.00 39.00 L 151.00 40.00 L 153.00 38.00 L 151.00 40.00 L 149.00 38.00 Z M 231.00 35.00 L 240.00 35.00 L 243.00 37.00 L 239.00 41.00 L 240.00 42.00 L 237.00 46.00 L 237.00 49.00 L 236.00 50.00 L 235.00 48.00 L 236.00 51.00 L 234.00 59.00 L 232.00 59.00 L 233.00 63.00 L 231.00 64.00 L 231.00 77.00 L 230.00 78.00 L 228.00 76.00 L 230.00 124.00 L 229.00 133.00 L 230.00 131.00 L 231.00 132.00 L 231.00 143.00 L 234.00 149.00 L 233.00 155.00 L 234.00 153.00 L 235.00 154.00 L 235.00 161.00 L 236.00 159.00 L 237.00 160.00 L 237.00 163.00 L 239.00 164.00 L 237.00 166.00 L 239.00 166.00 L 242.00 169.00 L 239.00 173.00 L 236.00 173.00 L 236.00 170.00 L 234.00 173.00 L 231.00 173.00 L 230.00 171.00 L 232.00 171.00 L 229.00 168.00 L 228.00 169.00 L 223.00 162.00 L 225.00 157.00 L 222.00 157.00 L 222.00 155.00 L 220.00 154.00 L 217.00 142.00 L 218.00 136.00 L 216.00 133.00 L 216.00 130.00 L 218.00 128.00 L 215.00 128.00 L 214.00 118.00 L 215.00 80.00 L 216.00 79.00 L 218.00 81.00 L 218.00 77.00 L 216.00 77.00 L 216.00 75.00 L 218.00 75.00 L 218.00 61.00 L 220.00 53.00 L 222.00 52.00 L 222.00 55.00 L 224.00 52.00 L 223.00 45.00 L 225.00 45.00 L 225.00 41.00 L 227.00 39.00 L 228.00 40.00 L 231.00 37.00 Z M 293.00 39.00 L 295.00 41.00 L 296.00 41.00 L 297.00 42.00 L 296.00 43.00 L 297.00 43.00 L 299.00 45.00 L 299.00 46.00 L 298.00 47.00 L 299.00 46.00 L 301.00 48.00 L 301.00 49.00 L 300.00 50.00 L 301.00 50.00 L 302.00 51.00 L 302.00 52.00 L 304.00 55.00 L 304.00 59.00 L 306.00 62.00 L 306.00 66.00 L 305.00 67.00 L 304.00 67.00 L 303.00 66.00 L 303.00 65.00 L 304.00 64.00 L 302.00 67.00 L 298.00 62.00 L 299.00 61.00 L 298.00 60.00 L 297.00 60.00 L 296.00 61.00 L 295.00 61.00 L 294.00 60.00 L 289.00 60.00 L 288.00 61.00 L 287.00 60.00 L 287.00 61.00 L 285.00 63.00 L 284.00 62.00 L 283.00 63.00 L 282.00 62.00 L 281.00 62.00 L 284.00 64.00 L 280.00 71.00 L 280.00 74.00 L 278.00 77.00 L 276.00 75.00 L 276.00 69.00 L 277.00 68.00 L 277.00 66.00 L 278.00 65.00 L 278.00 62.00 L 279.00 61.00 L 279.00 58.00 L 280.00 57.00 L 281.00 58.00 L 282.00 57.00 L 282.00 51.00 L 283.00 50.00 L 283.00 48.00 L 284.00 47.00 L 285.00 47.00 L 284.00 46.00 L 286.00 44.00 L 287.00 45.00 L 286.00 44.00 L 286.00 43.00 L 288.00 41.00 L 289.00 42.00 L 288.00 41.00 L 289.00 40.00 L 290.00 40.00 L 291.00 39.00 Z M 132.00 45.00 L 134.00 46.00 L 133.00 52.00 L 130.00 56.00 L 131.00 58.00 L 128.00 69.00 L 128.00 77.00 L 125.00 79.00 L 126.00 78.00 L 127.00 79.00 L 127.00 85.00 L 126.00 86.00 L 125.00 82.00 L 124.00 83.00 L 123.00 81.00 L 126.00 86.00 L 126.00 120.00 L 127.00 124.00 L 125.00 126.00 L 126.00 125.00 L 128.00 129.00 L 127.00 132.00 L 129.00 139.00 L 128.00 144.00 L 129.00 147.00 L 128.00 148.00 L 131.00 151.00 L 134.00 159.00 L 133.00 161.00 L 130.00 161.00 L 125.00 155.00 L 126.00 153.00 L 125.00 155.00 L 124.00 154.00 L 124.00 151.00 L 121.00 146.00 L 122.00 144.00 L 124.00 146.00 L 120.00 142.00 L 122.00 140.00 L 119.00 139.00 L 118.00 133.00 L 119.00 126.00 L 118.00 128.00 L 117.00 127.00 L 116.00 122.00 L 115.00 100.00 L 117.00 89.00 L 116.00 86.00 L 117.00 82.00 L 119.00 80.00 L 118.00 77.00 L 119.00 74.00 L 118.00 73.00 L 121.00 71.00 L 119.00 70.00 L 119.00 67.00 L 121.00 65.00 L 122.00 66.00 L 120.00 64.00 L 122.00 63.00 L 121.00 61.00 L 122.00 60.00 L 125.00 61.00 L 125.00 60.00 L 124.00 61.00 L 122.00 59.00 L 123.00 57.00 L 124.00 58.00 L 123.00 56.00 L 124.00 55.00 L 125.00 56.00 L 124.00 55.00 L 125.00 51.00 L 129.00 46.00 Z M 268.00 47.00 L 271.00 48.00 L 270.00 49.00 L 271.00 50.00 L 269.00 52.00 L 270.00 51.00 L 271.00 53.00 L 268.00 56.00 L 269.00 57.00 L 268.00 60.00 L 266.00 57.00 L 268.00 60.00 L 267.00 68.00 L 264.00 71.00 L 262.00 76.00 L 263.00 79.00 L 264.00 77.00 L 265.00 78.00 L 263.00 105.00 L 264.00 106.00 L 264.00 126.00 L 265.00 127.00 L 264.00 132.00 L 266.00 133.00 L 266.00 136.00 L 264.00 137.00 L 261.00 134.00 L 263.00 136.00 L 262.00 137.00 L 263.00 139.00 L 264.00 137.00 L 266.00 139.00 L 263.00 141.00 L 266.00 140.00 L 267.00 141.00 L 269.00 152.00 L 271.00 155.00 L 270.00 157.00 L 269.00 156.00 L 268.00 157.00 L 269.00 156.00 L 271.00 158.00 L 269.00 160.00 L 266.00 160.00 L 265.00 159.00 L 266.00 157.00 L 265.00 158.00 L 263.00 155.00 L 264.00 153.00 L 265.00 154.00 L 266.00 153.00 L 265.00 152.00 L 264.00 153.00 L 260.00 147.00 L 260.00 141.00 L 259.00 140.00 L 260.00 136.00 L 259.00 138.00 L 258.00 137.00 L 259.00 133.00 L 257.00 132.00 L 259.00 130.00 L 257.00 128.00 L 257.00 122.00 L 256.00 121.00 L 255.00 101.00 L 256.00 100.00 L 257.00 78.00 L 258.00 77.00 L 260.00 78.00 L 259.00 77.00 L 260.00 75.00 L 258.00 74.00 L 258.00 71.00 L 259.00 70.00 L 260.00 72.00 L 259.00 70.00 L 260.00 62.00 L 263.00 55.00 L 264.00 57.00 L 263.00 55.00 L 264.00 50.00 L 265.00 49.00 L 268.00 50.00 L 267.00 48.00 Z M 40.00 53.00 L 44.00 57.00 L 44.00 59.00 L 43.00 60.00 L 42.00 59.00 L 43.00 60.00 L 43.00 67.00 L 42.00 68.00 L 40.00 68.00 L 39.00 67.00 L 40.00 66.00 L 41.00 66.00 L 41.00 65.00 L 40.00 64.00 L 40.00 63.00 L 39.00 62.00 L 39.00 61.00 L 38.00 60.00 L 38.00 56.00 L 39.00 55.00 L 39.00 54.00 Z M 56.00 53.00 L 58.00 55.00 L 56.00 57.00 L 59.00 59.00 L 59.00 64.00 L 58.00 65.00 L 57.00 62.00 L 56.00 64.00 L 56.00 68.00 L 57.00 69.00 L 56.00 71.00 L 56.00 85.00 L 57.00 84.00 L 58.00 85.00 L 56.00 88.00 L 56.00 91.00 L 56.00 89.00 L 57.00 88.00 L 58.00 89.00 L 58.00 94.00 L 59.00 95.00 L 59.00 105.00 L 58.00 106.00 L 58.00 110.00 L 58.00 108.00 L 59.00 107.00 L 60.00 108.00 L 60.00 115.00 L 59.00 116.00 L 60.00 115.00 L 61.00 116.00 L 61.00 127.00 L 62.00 128.00 L 62.00 134.00 L 63.00 135.00 L 63.00 143.00 L 62.00 144.00 L 60.00 143.00 L 61.00 142.00 L 59.00 139.00 L 61.00 138.00 L 59.00 137.00 L 58.00 140.00 L 57.00 139.00 L 57.00 134.00 L 56.00 133.00 L 56.00 127.00 L 58.00 125.00 L 57.00 122.00 L 55.00 121.00 L 55.00 118.00 L 56.00 117.00 L 57.00 118.00 L 55.00 116.00 L 57.00 112.00 L 58.00 113.00 L 54.00 107.00 L 56.00 106.00 L 57.00 104.00 L 57.00 101.00 L 56.00 100.00 L 57.00 98.00 L 56.00 98.00 L 56.00 103.00 L 54.00 107.00 L 53.00 106.00 L 53.00 99.00 L 52.00 98.00 L 52.00 63.00 L 53.00 62.00 L 54.00 55.00 Z M 101.00 54.00 L 103.00 56.00 L 102.00 57.00 L 103.00 56.00 L 105.00 58.00 L 104.00 59.00 L 104.00 103.00 L 105.00 104.00 L 106.00 120.00 L 107.00 121.00 L 107.00 131.00 L 105.00 134.00 L 107.00 132.00 L 108.00 133.00 L 108.00 138.00 L 109.00 139.00 L 109.00 143.00 L 108.00 144.00 L 107.00 143.00 L 106.00 144.00 L 104.00 144.00 L 103.00 143.00 L 103.00 139.00 L 102.00 138.00 L 102.00 134.00 L 103.00 133.00 L 102.00 134.00 L 101.00 133.00 L 101.00 124.00 L 103.00 123.00 L 101.00 124.00 L 100.00 123.00 L 100.00 116.00 L 99.00 115.00 L 99.00 108.00 L 98.00 107.00 L 98.00 97.00 L 99.00 96.00 L 100.00 97.00 L 102.00 97.00 L 100.00 97.00 L 99.00 96.00 L 101.00 94.00 L 102.00 95.00 L 101.00 94.00 L 102.00 92.00 L 101.00 93.00 L 100.00 91.00 L 100.00 95.00 L 99.00 96.00 L 98.00 95.00 L 98.00 89.00 L 97.00 88.00 L 98.00 59.00 L 99.00 58.00 L 99.00 56.00 Z M 71.00 57.00 L 72.00 57.00 L 74.00 60.00 L 72.00 62.00 L 73.00 61.00 L 74.00 62.00 L 74.00 96.00 L 73.00 97.00 L 74.00 99.00 L 71.00 101.00 L 73.00 100.00 L 75.00 102.00 L 75.00 108.00 L 74.00 109.00 L 73.00 108.00 L 73.00 105.00 L 73.00 111.00 L 74.00 109.00 L 76.00 111.00 L 76.00 117.00 L 75.00 118.00 L 74.00 116.00 L 73.00 116.00 L 73.00 117.00 L 75.00 118.00 L 73.00 119.00 L 74.00 121.00 L 75.00 118.00 L 77.00 120.00 L 77.00 128.00 L 78.00 129.00 L 78.00 134.00 L 79.00 135.00 L 79.00 140.00 L 80.00 141.00 L 80.00 148.00 L 78.00 149.00 L 80.00 150.00 L 79.00 152.00 L 76.00 150.00 L 75.00 151.00 L 74.00 150.00 L 73.00 141.00 L 74.00 140.00 L 75.00 141.00 L 74.00 140.00 L 75.00 139.00 L 75.00 135.00 L 74.00 133.00 L 74.00 136.00 L 73.00 137.00 L 72.00 136.00 L 71.00 119.00 L 70.00 118.00 L 70.00 111.00 L 71.00 108.00 L 71.00 110.00 L 70.00 111.00 L 69.00 110.00 L 69.00 100.00 L 68.00 99.00 L 68.00 62.00 L 69.00 59.00 Z M 85.00 58.00 L 86.00 58.00 L 88.00 61.00 L 86.00 63.00 L 87.00 62.00 L 88.00 63.00 L 88.00 97.00 L 87.00 98.00 L 88.00 100.00 L 85.00 102.00 L 87.00 101.00 L 89.00 103.00 L 89.00 109.00 L 88.00 110.00 L 87.00 109.00 L 87.00 106.00 L 87.00 112.00 L 88.00 110.00 L 90.00 112.00 L 90.00 118.00 L 89.00 119.00 L 88.00 117.00 L 87.00 117.00 L 87.00 118.00 L 89.00 119.00 L 87.00 120.00 L 88.00 122.00 L 89.00 119.00 L 91.00 121.00 L 91.00 129.00 L 92.00 130.00 L 92.00 135.00 L 93.00 136.00 L 93.00 141.00 L 94.00 142.00 L 94.00 149.00 L 92.00 150.00 L 94.00 151.00 L 93.00 153.00 L 90.00 151.00 L 89.00 152.00 L 88.00 151.00 L 87.00 142.00 L 88.00 141.00 L 89.00 142.00 L 88.00 141.00 L 89.00 140.00 L 89.00 136.00 L 88.00 134.00 L 88.00 137.00 L 87.00 138.00 L 86.00 137.00 L 85.00 120.00 L 84.00 119.00 L 84.00 112.00 L 85.00 109.00 L 85.00 111.00 L 84.00 112.00 L 83.00 111.00 L 83.00 101.00 L 82.00 100.00 L 82.00 63.00 L 83.00 60.00 Z M 26.00 63.00 L 27.00 64.00 L 27.00 79.00 L 25.00 80.00 L 27.00 82.00 L 26.00 83.00 L 24.00 83.00 L 23.00 82.00 L 23.00 83.00 L 25.00 83.00 L 26.00 84.00 L 25.00 85.00 L 27.00 87.00 L 26.00 89.00 L 27.00 90.00 L 27.00 98.00 L 28.00 99.00 L 28.00 107.00 L 29.00 108.00 L 29.00 122.00 L 30.00 123.00 L 30.00 129.00 L 31.00 130.00 L 31.00 135.00 L 32.00 136.00 L 32.00 145.00 L 33.00 146.00 L 33.00 150.00 L 32.00 151.00 L 31.00 150.00 L 29.00 150.00 L 27.00 148.00 L 23.00 141.00 L 23.00 136.00 L 22.00 135.00 L 24.00 133.00 L 23.00 134.00 L 22.00 133.00 L 22.00 130.00 L 21.00 129.00 L 21.00 125.00 L 22.00 124.00 L 23.00 125.00 L 22.00 124.00 L 22.00 121.00 L 22.00 124.00 L 21.00 125.00 L 20.00 124.00 L 20.00 106.00 L 22.00 102.00 L 22.00 95.00 L 24.00 93.00 L 22.00 91.00 L 23.00 90.00 L 22.00 88.00 L 22.00 102.00 L 21.00 103.00 L 20.00 102.00 L 20.00 86.00 L 21.00 85.00 L 21.00 80.00 L 22.00 79.00 L 22.00 75.00 L 23.00 74.00 L 23.00 69.00 Z M 249.00 63.00 L 250.00 64.00 L 250.00 66.00 L 249.00 67.00 L 249.00 69.00 L 248.00 70.00 L 248.00 78.00 L 247.00 79.00 L 247.00 87.00 L 246.00 88.00 L 245.00 87.00 L 245.00 86.00 L 243.00 88.00 L 242.00 88.00 L 242.00 89.00 L 241.00 90.00 L 240.00 89.00 L 240.00 85.00 L 241.00 84.00 L 241.00 78.00 L 242.00 77.00 L 242.00 74.00 L 243.00 73.00 L 243.00 72.00 L 244.00 71.00 L 245.00 72.00 L 246.00 71.00 L 245.00 72.00 L 244.00 71.00 L 244.00 69.00 L 245.00 68.00 L 246.00 68.00 L 246.00 66.00 Z M 37.00 66.00 L 42.00 69.00 L 42.00 90.00 L 43.00 91.00 L 43.00 100.00 L 44.00 101.00 L 44.00 110.00 L 45.00 111.00 L 45.00 125.00 L 46.00 126.00 L 46.00 130.00 L 45.00 131.00 L 45.00 133.00 L 47.00 135.00 L 47.00 138.00 L 48.00 139.00 L 48.00 147.00 L 49.00 148.00 L 49.00 151.00 L 48.00 152.00 L 47.00 151.00 L 47.00 149.00 L 47.00 150.00 L 45.00 152.00 L 43.00 151.00 L 42.00 143.00 L 41.00 142.00 L 41.00 134.00 L 40.00 133.00 L 40.00 126.00 L 39.00 125.00 L 39.00 116.00 L 40.00 115.00 L 41.00 116.00 L 41.00 114.00 L 39.00 114.00 L 38.00 113.00 L 38.00 105.00 L 37.00 104.00 L 37.00 101.00 L 39.00 99.00 L 40.00 100.00 L 40.00 102.00 L 40.00 96.00 L 39.00 96.00 L 39.00 99.00 L 38.00 100.00 L 37.00 99.00 L 37.00 94.00 L 36.00 93.00 L 36.00 67.00 Z M 304.00 67.00 L 306.00 67.00 L 307.00 68.00 L 307.00 70.00 L 308.00 71.00 L 308.00 74.00 L 309.00 75.00 L 309.00 86.00 L 308.00 87.00 L 307.00 86.00 L 307.00 83.00 L 306.00 82.00 L 306.00 78.00 L 305.00 77.00 L 305.00 74.00 L 304.00 73.00 L 304.00 72.00 L 303.00 71.00 L 303.00 70.00 L 304.00 69.00 L 305.00 69.00 L 304.00 69.00 L 303.00 68.00 Z M 292.00 70.00 L 295.00 75.00 L 295.00 77.00 L 296.00 78.00 L 296.00 82.00 L 297.00 83.00 L 297.00 86.00 L 298.00 87.00 L 298.00 113.00 L 297.00 114.00 L 296.00 113.00 L 298.00 115.00 L 298.00 121.00 L 297.00 122.00 L 297.00 125.00 L 296.00 126.00 L 295.00 126.00 L 293.00 124.00 L 296.00 127.00 L 296.00 128.00 L 295.00 129.00 L 294.00 128.00 L 295.00 129.00 L 295.00 132.00 L 292.00 138.00 L 290.00 135.00 L 291.00 134.00 L 289.00 133.00 L 289.00 131.00 L 287.00 127.00 L 287.00 121.00 L 286.00 120.00 L 286.00 116.00 L 287.00 115.00 L 288.00 117.00 L 287.00 115.00 L 288.00 114.00 L 288.00 112.00 L 287.00 111.00 L 287.00 100.00 L 287.00 109.00 L 286.00 110.00 L 285.00 109.00 L 285.00 97.00 L 286.00 96.00 L 287.00 98.00 L 288.00 98.00 L 287.00 96.00 L 288.00 92.00 L 286.00 90.00 L 288.00 87.00 L 287.00 86.00 L 287.00 82.00 L 288.00 81.00 L 288.00 78.00 L 289.00 77.00 L 289.00 75.00 Z M 276.00 81.00 L 277.00 82.00 L 277.00 88.00 L 276.00 89.00 L 276.00 97.00 L 275.00 98.00 L 275.00 112.00 L 274.00 113.00 L 273.00 112.00 L 273.00 95.00 L 274.00 94.00 L 273.00 93.00 L 273.00 92.00 L 274.00 91.00 L 274.00 84.00 L 275.00 83.00 L 275.00 82.00 Z M 309.00 88.00 L 310.00 89.00 L 310.00 119.00 L 309.00 120.00 L 308.00 119.00 L 308.00 89.00 Z M 240.00 90.00 L 241.00 91.00 L 241.00 98.00 L 242.00 99.00 L 241.00 98.00 L 241.00 96.00 L 242.00 95.00 L 242.00 93.00 L 243.00 92.00 L 244.00 93.00 L 245.00 92.00 L 246.00 93.00 L 246.00 121.00 L 247.00 122.00 L 247.00 129.00 L 248.00 130.00 L 248.00 138.00 L 249.00 139.00 L 249.00 140.00 L 248.00 141.00 L 246.00 139.00 L 246.00 138.00 L 246.00 139.00 L 245.00 140.00 L 244.00 139.00 L 244.00 137.00 L 245.00 136.00 L 244.00 137.00 L 243.00 136.00 L 243.00 135.00 L 242.00 134.00 L 242.00 131.00 L 241.00 130.00 L 241.00 124.00 L 240.00 123.00 L 240.00 118.00 L 239.00 117.00 L 239.00 91.00 Z M 275.00 112.00 L 276.00 113.00 L 276.00 120.00 L 277.00 121.00 L 277.00 128.00 L 278.00 129.00 L 278.00 131.00 L 279.00 132.00 L 279.00 134.00 L 280.00 135.00 L 279.00 136.00 L 280.00 137.00 L 280.00 138.00 L 281.00 139.00 L 280.00 140.00 L 279.00 140.00 L 278.00 139.00 L 277.00 140.00 L 276.00 139.00 L 276.00 132.00 L 275.00 131.00 L 275.00 126.00 L 274.00 125.00 L 274.00 117.00 L 273.00 116.00 L 273.00 114.00 Z M 305.00 137.00 L 306.00 138.00 L 305.00 139.00 L 306.00 139.00 L 307.00 140.00 L 305.00 143.00 L 306.00 144.00 L 306.00 145.00 L 305.00 146.00 L 304.00 145.00 L 305.00 146.00 L 305.00 148.00 L 304.00 149.00 L 303.00 149.00 L 304.00 150.00 L 304.00 152.00 L 303.00 153.00 L 302.00 156.00 L 301.00 157.00 L 299.00 157.00 L 299.00 158.00 L 298.00 159.00 L 299.00 160.00 L 298.00 161.00 L 299.00 162.00 L 298.00 163.00 L 298.00 164.00 L 297.00 165.00 L 295.00 163.00 L 297.00 165.00 L 294.00 168.00 L 292.00 168.00 L 291.00 169.00 L 288.00 167.00 L 288.00 164.00 L 287.00 163.00 L 285.00 163.00 L 284.00 162.00 L 284.00 161.00 L 282.00 158.00 L 283.00 157.00 L 284.00 157.00 L 282.00 157.00 L 281.00 156.00 L 283.00 154.00 L 282.00 153.00 L 283.00 152.00 L 283.00 151.00 L 283.00 152.00 L 282.00 153.00 L 281.00 152.00 L 281.00 151.00 L 280.00 152.00 L 279.00 151.00 L 279.00 147.00 L 278.00 146.00 L 278.00 145.00 L 279.00 144.00 L 280.00 144.00 L 279.00 143.00 L 278.00 144.00 L 277.00 143.00 L 277.00 141.00 L 278.00 140.00 L 279.00 141.00 L 280.00 140.00 L 281.00 140.00 L 282.00 141.00 L 282.00 142.00 L 283.00 143.00 L 282.00 144.00 L 283.00 143.00 L 284.00 144.00 L 284.00 145.00 L 285.00 145.00 L 286.00 146.00 L 283.00 148.00 L 284.00 147.00 L 287.00 147.00 L 288.00 148.00 L 296.00 148.00 L 297.00 149.00 L 298.00 149.00 L 298.00 148.00 L 297.00 147.00 L 298.00 146.00 L 301.00 145.00 L 300.00 144.00 L 300.00 143.00 L 303.00 140.00 L 303.00 138.00 L 304.00 137.00 Z M 59.00 142.00 L 60.00 143.00 L 60.00 146.00 L 60.00 145.00 L 61.00 144.00 L 62.00 145.00 L 62.00 144.00 L 63.00 143.00 L 64.00 144.00 L 64.00 149.00 L 65.00 150.00 L 65.00 151.00 L 61.00 155.00 L 60.00 154.00 L 60.00 153.00 L 59.00 152.00 L 59.00 149.00 L 58.00 148.00 L 58.00 143.00 Z" fill="#000" fill-rule="evenodd" />
</svg>
