<?xml version="1.0" encoding="UTF-8"?>
<svg xmlns="http://www.w3.org/2000/svg" viewBox="0 0 209 185" width="209" height="185">
  <path d="M 157.00 0.00 L 155.00 2.00 L 51.00 2.00 L 19.00 58.00 L 15.00 50.00 L 18.00 61.00 L 1.00 92.00 L 19.00 129.00 L 22.00 130.00 L 42.00 164.00 L 41.00 166.00 L 33.00 157.00 L 39.00 167.00 L 42.00 165.00 L 52.00 182.00 L 156.00 182.00 L 166.00 164.00 L 170.00 162.00 L 173.00 152.00 L 178.00 158.00 L 174.00 150.00 L 188.00 126.00 L 189.00 129.00 L 188.00 125.00 L 191.00 127.00 L 190.00 121.00 L 204.00 99.00 L 206.00 90.00 L 160.00 10.00 Z M 131.00 50.00 L 142.00 60.00 L 141.00 65.00 L 131.00 55.00 L 126.00 52.00 L 113.00 47.00 L 106.00 46.00 L 92.00 48.00 L 80.00 53.00 L 65.00 68.00 L 59.00 83.00 L 59.00 97.00 L 65.00 115.00 L 76.00 128.00 L 82.00 131.00 L 81.00 133.00 L 78.00 134.00 L 76.00 133.00 L 78.00 131.00 L 76.00 133.00 L 75.00 131.00 L 74.00 132.00 L 64.00 122.00 L 59.00 114.00 L 54.00 98.00 L 55.00 80.00 L 56.00 77.00 L 59.00 75.00 L 58.00 72.00 L 59.00 71.00 L 60.00 72.00 L 59.00 70.00 L 60.00 69.00 L 61.00 70.00 L 60.00 68.00 L 63.00 67.00 L 62.00 65.00 L 70.00 55.00 L 80.00 48.00 L 92.00 44.00 L 96.00 45.00 L 97.00 43.00 L 116.00 44.00 Z M 91.00 66.00 L 93.00 66.00 L 96.00 64.00 L 109.00 64.00 L 110.00 65.00 L 113.00 65.00 L 119.00 68.00 L 122.00 71.00 L 123.00 71.00 L 126.00 74.00 L 130.00 81.00 L 130.00 83.00 L 131.00 84.00 L 130.00 88.00 L 131.00 89.00 L 131.00 93.00 L 132.00 94.00 L 131.00 95.00 L 132.00 97.00 L 131.00 98.00 L 130.00 97.00 L 131.00 100.00 L 129.00 103.00 L 129.00 105.00 L 127.00 109.00 L 123.00 113.00 L 121.00 114.00 L 119.00 112.00 L 119.00 111.00 L 118.00 111.00 L 118.00 113.00 L 116.00 115.00 L 117.00 116.00 L 115.00 118.00 L 113.00 117.00 L 112.00 119.00 L 106.00 119.00 L 105.00 120.00 L 100.00 120.00 L 99.00 119.00 L 95.00 119.00 L 89.00 116.00 L 86.00 113.00 L 85.00 113.00 L 81.00 109.00 L 78.00 103.00 L 78.00 101.00 L 76.00 98.00 L 76.00 86.00 L 77.00 85.00 L 78.00 80.00 L 80.00 78.00 L 82.00 74.00 L 88.00 68.00 L 89.00 68.00 Z M 142.00 64.00 L 143.00 65.00 L 144.00 64.00 L 146.00 66.00 L 146.00 67.00 L 148.00 69.00 L 148.00 70.00 L 147.00 71.00 L 148.00 70.00 L 150.00 73.00 L 150.00 75.00 L 151.00 76.00 L 151.00 78.00 L 152.00 79.00 L 152.00 83.00 L 153.00 84.00 L 153.00 94.00 L 154.00 95.00 L 153.00 96.00 L 153.00 102.00 L 152.00 103.00 L 152.00 106.00 L 151.00 107.00 L 151.00 109.00 L 150.00 110.00 L 150.00 112.00 L 148.00 114.00 L 147.00 113.00 L 147.00 112.00 L 147.00 113.00 L 146.00 114.00 L 147.00 113.00 L 148.00 114.00 L 148.00 115.00 L 146.00 118.00 L 143.00 115.00 L 143.00 114.00 L 145.00 111.00 L 145.00 109.00 L 146.00 108.00 L 146.00 106.00 L 147.00 105.00 L 147.00 102.00 L 148.00 101.00 L 148.00 96.00 L 149.00 95.00 L 148.00 94.00 L 149.00 93.00 L 148.00 92.00 L 148.00 91.00 L 149.00 90.00 L 148.00 89.00 L 149.00 88.00 L 148.00 87.00 L 148.00 82.00 L 147.00 81.00 L 147.00 78.00 L 146.00 77.00 L 146.00 75.00 L 144.00 72.00 L 144.00 70.00 L 143.00 69.00 L 143.00 68.00 L 141.00 66.00 L 141.00 65.00 Z M 146.00 118.00 L 145.00 119.00 L 144.00 119.00 L 145.00 120.00 L 142.00 123.00 L 142.00 124.00 L 135.00 131.00 L 134.00 131.00 L 132.00 133.00 L 130.00 131.00 L 132.00 133.00 L 131.00 134.00 L 130.00 134.00 L 123.00 138.00 L 121.00 138.00 L 120.00 139.00 L 118.00 139.00 L 117.00 140.00 L 114.00 140.00 L 113.00 141.00 L 106.00 141.00 L 105.00 142.00 L 104.00 142.00 L 103.00 141.00 L 95.00 141.00 L 94.00 140.00 L 92.00 140.00 L 91.00 139.00 L 88.00 139.00 L 87.00 138.00 L 88.00 137.00 L 87.00 138.00 L 86.00 138.00 L 85.00 137.00 L 85.00 136.00 L 82.00 134.00 L 82.00 133.00 L 83.00 132.00 L 84.00 132.00 L 85.00 133.00 L 87.00 133.00 L 88.00 134.00 L 90.00 134.00 L 91.00 135.00 L 93.00 135.00 L 94.00 136.00 L 98.00 136.00 L 99.00 137.00 L 107.00 137.00 L 108.00 136.00 L 112.00 136.00 L 113.00 135.00 L 116.00 135.00 L 117.00 134.00 L 122.00 133.00 L 124.00 131.00 L 126.00 131.00 L 128.00 129.00 L 131.00 128.00 L 140.00 119.00 L 140.00 118.00 L 141.00 117.00 L 144.00 116.00 Z" fill="#000" fill-rule="evenodd" />
</svg>
