<?xml version="1.0" encoding="utf-8"?>
<svg xmlns="http://www.w3.org/2000/svg" viewBox="230 190 160 165" width="160px" height="165px">
  <path d="M 387.537 193.967 L 238.148 192.933 L 234.568 197.522 L 234.108 231.944 L 239.15 237.649 L 265.047 237.875 L 269.624 243.836 L 269.855 263.644 L 257.702 273.028 L 257.855 283.644 L 269.855 294.644 L 269.855 310.644 L 258.894 318.644 L 258.855 331.95 L 272.392 343.413 L 276.855 358.644 L 346.855 358.644 L 353.894 341.413 L 353.702 320.452 L 363.894 311.146 L 364.2 299.527 L 353.855 290.644 L 353.894 273.644 L 364.624 264.377 L 364.895 252.648 L 354.855 243.644 L 359.855 237.644 L 387.733 237.702 L 391.75 232.473 L 391.78 198.193 L 387.537 193.967 Z" fill="#000" fill-rule="evenodd" style="stroke-width: 1;"/>
</svg>