<?xml version="1.0" encoding="UTF-8"?>
<svg xmlns="http://www.w3.org/2000/svg" viewBox="0 0 476 472" width="476" height="472">
  <path d="M 146.00 26.00 L 68.00 83.00 L 21.00 163.00 L 9.00 257.00 L 29.00 337.00 L 62.00 390.00 L 102.00 429.00 L 148.00 456.00 L 175.00 454.00 L 196.00 411.00 L 192.00 388.00 L 132.00 345.00 L 91.00 351.00 L 75.00 327.00 L 60.00 265.00 L 69.00 196.00 L 102.00 137.00 L 160.00 91.00 L 225.00 72.00 L 305.00 84.00 L 381.00 139.00 L 410.00 188.00 L 422.00 242.00 L 419.00 291.00 L 396.00 346.00 L 382.00 353.00 L 349.00 344.00 L 287.00 391.00 L 300.00 447.00 L 331.00 456.00 L 415.00 393.00 L 455.00 325.00 L 470.00 228.00 L 451.00 146.00 L 408.00 80.00 L 331.00 25.00 L 223.00 7.00 Z" fill="#000" fill-rule="evenodd" />
</svg>
