<?xml version="1.0" encoding="UTF-8"?>
<svg xmlns="http://www.w3.org/2000/svg" viewBox="0 0 208 189" width="208" height="189">
  <path d="M 205.00 2.00 L 2.00 3.00 L 2.00 20.00 L 35.00 21.00 L 60.00 69.00 L 61.00 90.00 L 50.00 98.00 L 49.00 110.00 L 60.00 120.00 L 61.00 136.00 L 50.00 146.00 L 49.00 158.00 L 60.00 165.00 L 68.00 186.00 L 128.00 185.00 L 128.00 188.00 L 130.00 185.00 L 139.00 185.00 L 146.00 167.00 L 147.00 146.00 L 157.00 137.00 L 157.00 127.00 L 146.00 119.00 L 146.00 99.00 L 157.00 92.00 L 157.00 80.00 L 150.00 74.00 L 151.00 71.00 L 149.00 74.00 L 146.00 72.00 L 147.00 68.00 L 150.00 68.00 L 148.00 65.00 L 173.00 20.00 L 198.00 20.00 L 199.00 23.00 L 205.00 20.00 Z" fill="#000" fill-rule="evenodd" />
</svg>
