<?xml version="1.0" encoding="utf-8"?>
<svg xmlns="http://www.w3.org/2000/svg" viewBox="219.453 84.792 99 203" width="99px" height="203px">
  <path d="M 226.453 84.792 L 226.453 115.792 L 220.608 125.963 L 226.453 135.792 L 226.453 144.792 L 219.523 149.102 L 219.453 161.792 L 226.453 166.792 L 226.453 175.428 L 220.608 180.621 L 220.453 190.792 L 226.453 196.792 L 226.368 206.583 L 220.453 214.792 L 220.453 222.792 L 226.453 227.792 L 226.538 237.397 L 220.608 243.947 L 220.453 253.792 L 226.453 258.792 L 226.453 266.792 L 242.453 286.792 L 296.453 287.792 L 317.174 259.361 L 313.453 253.767 L 313.453 243.792 L 318.453 237.792 L 318.453 231.792 L 312.453 223.792 L 312.453 213.792 L 317.523 206.807 L 317.523 197.691 L 312.453 193.792 L 312.453 182.792 L 318.453 176.877 L 318.453 169.327 L 313.453 163.792 L 313.453 151.792 L 318.202 145.587 L 317.988 138.141 L 312.453 131.792 L 313.453 85.792 L 226.453 84.792 Z M 303.228 123.397 L 303.368 132.567 L 234.988 146.892 L 235.127 136.032 L 303.228 123.397 Z M 303.004 153.001 L 303.004 162.862 L 235.073 175.187 L 235.073 166.792 L 303.004 153.001 Z M 303.228 184.932 L 303.159 193.087 L 235.073 205.792 L 235.143 196.792 L 303.228 184.932 Z M 303.073 214.622 L 303.143 223.707 L 234.902 238.342 L 234.988 229.187 L 303.073 214.622 Z M 303.213 243.916 C 303.213 243.916 303.523 249.638 303.523 253.483 L 241.804 265.671 L 235.081 265.838 L 235.027 257.017 L 303.213 243.916 Z" fill="#000" fill-rule="evenodd" style="stroke-width: 1;" transform="matrix(1, 0, 0, 1, 0, -1.4210854715202004e-14)"/>
</svg>