<?xml version="1.0" encoding="UTF-8"?>
<svg xmlns="http://www.w3.org/2000/svg" viewBox="0 0 309 212" width="309" height="212">
  <path d="M 13.00 9.00 L 13.00 201.00 L 22.00 204.00 L 289.00 204.00 L 295.00 201.00 L 297.00 15.00 L 288.00 4.00 L 21.00 4.00 L 21.00 7.00 Z M 49.00 21.00 L 52.00 21.00 L 53.00 20.00 L 59.00 20.00 L 60.00 21.00 L 63.00 21.00 L 64.00 22.00 L 67.00 23.00 L 72.00 28.00 L 72.00 29.00 L 74.00 31.00 L 73.00 32.00 L 75.00 34.00 L 75.00 37.00 L 76.00 38.00 L 76.00 42.00 L 75.00 43.00 L 75.00 47.00 L 74.00 48.00 L 73.00 48.00 L 74.00 49.00 L 71.00 53.00 L 70.00 52.00 L 70.00 51.00 L 70.00 52.00 L 71.00 53.00 L 68.00 56.00 L 67.00 55.00 L 65.00 58.00 L 64.00 57.00 L 64.00 56.00 L 63.00 56.00 L 64.00 57.00 L 64.00 58.00 L 63.00 59.00 L 59.00 59.00 L 58.00 60.00 L 54.00 60.00 L 53.00 59.00 L 49.00 59.00 L 48.00 58.00 L 49.00 57.00 L 48.00 58.00 L 47.00 58.00 L 45.00 56.00 L 46.00 55.00 L 42.00 51.00 L 43.00 50.00 L 42.00 51.00 L 41.00 50.00 L 40.00 51.00 L 37.00 46.00 L 37.00 42.00 L 36.00 41.00 L 37.00 40.00 L 37.00 34.00 L 39.00 31.00 L 40.00 32.00 L 39.00 31.00 L 39.00 30.00 L 40.00 29.00 L 41.00 29.00 L 40.00 28.00 L 43.00 25.00 L 44.00 25.00 L 45.00 26.00 L 46.00 25.00 L 45.00 24.00 L 46.00 23.00 L 49.00 24.00 L 48.00 24.00 L 47.00 23.00 Z M 115.00 21.00 L 118.00 21.00 L 119.00 20.00 L 124.00 20.00 L 126.00 22.00 L 127.00 21.00 L 129.00 21.00 L 130.00 22.00 L 130.00 23.00 L 131.00 22.00 L 132.00 23.00 L 133.00 23.00 L 134.00 24.00 L 133.00 25.00 L 134.00 26.00 L 133.00 27.00 L 132.00 27.00 L 133.00 27.00 L 134.00 26.00 L 135.00 27.00 L 136.00 26.00 L 138.00 28.00 L 137.00 29.00 L 138.00 28.00 L 139.00 29.00 L 139.00 31.00 L 140.00 32.00 L 139.00 33.00 L 139.00 35.00 L 142.00 37.00 L 142.00 43.00 L 141.00 44.00 L 140.00 43.00 L 139.00 44.00 L 139.00 47.00 L 140.00 48.00 L 139.00 49.00 L 139.00 51.00 L 135.00 55.00 L 134.00 54.00 L 132.00 56.00 L 131.00 55.00 L 130.00 56.00 L 131.00 56.00 L 132.00 57.00 L 129.00 59.00 L 125.00 59.00 L 124.00 60.00 L 121.00 60.00 L 120.00 59.00 L 119.00 60.00 L 118.00 59.00 L 115.00 59.00 L 114.00 58.00 L 115.00 57.00 L 115.00 56.00 L 114.00 55.00 L 115.00 56.00 L 115.00 57.00 L 114.00 58.00 L 113.00 58.00 L 106.00 52.00 L 106.00 51.00 L 103.00 47.00 L 105.00 44.00 L 105.00 43.00 L 104.00 42.00 L 104.00 41.00 L 105.00 40.00 L 105.00 38.00 L 104.00 37.00 L 106.00 35.00 L 104.00 33.00 L 104.00 32.00 L 105.00 31.00 L 106.00 28.00 L 110.00 24.00 L 111.00 24.00 Z M 181.00 21.00 L 184.00 21.00 L 185.00 20.00 L 190.00 20.00 L 193.00 22.00 L 195.00 21.00 L 199.00 23.00 L 203.00 27.00 L 201.00 30.00 L 203.00 32.00 L 202.00 31.00 L 204.00 29.00 L 206.00 31.00 L 206.00 33.00 L 207.00 34.00 L 207.00 37.00 L 208.00 38.00 L 208.00 43.00 L 207.00 44.00 L 207.00 46.00 L 203.00 52.00 L 201.00 51.00 L 203.00 52.00 L 202.00 54.00 L 199.00 53.00 L 199.00 55.00 L 198.00 56.00 L 197.00 55.00 L 194.00 56.00 L 196.00 55.00 L 198.00 57.00 L 195.00 59.00 L 191.00 59.00 L 190.00 60.00 L 185.00 60.00 L 184.00 59.00 L 181.00 59.00 L 178.00 55.00 L 178.00 54.00 L 176.00 56.00 L 173.00 53.00 L 176.00 50.00 L 176.00 49.00 L 176.00 50.00 L 173.00 53.00 L 171.00 50.00 L 172.00 49.00 L 171.00 50.00 L 170.00 49.00 L 170.00 47.00 L 168.00 43.00 L 168.00 37.00 L 169.00 36.00 L 170.00 31.00 L 171.00 30.00 L 172.00 31.00 L 173.00 30.00 L 175.00 30.00 L 173.00 30.00 L 172.00 31.00 L 171.00 29.00 L 175.00 27.00 L 176.00 28.00 L 176.00 26.00 L 177.00 25.00 L 176.00 24.00 Z M 250.00 20.00 L 257.00 20.00 L 258.00 21.00 L 261.00 21.00 L 263.00 23.00 L 264.00 23.00 L 265.00 24.00 L 264.00 25.00 L 265.00 24.00 L 266.00 24.00 L 271.00 30.00 L 271.00 31.00 L 270.00 32.00 L 271.00 31.00 L 272.00 32.00 L 272.00 34.00 L 273.00 35.00 L 273.00 45.00 L 271.00 47.00 L 269.00 47.00 L 271.00 47.00 L 272.00 48.00 L 270.00 51.00 L 269.00 50.00 L 270.00 51.00 L 270.00 52.00 L 268.00 54.00 L 267.00 54.00 L 267.00 55.00 L 266.00 56.00 L 261.00 56.00 L 260.00 57.00 L 259.00 56.00 L 259.00 57.00 L 261.00 57.00 L 262.00 58.00 L 261.00 59.00 L 258.00 59.00 L 257.00 60.00 L 251.00 60.00 L 250.00 59.00 L 247.00 59.00 L 246.00 58.00 L 248.00 56.00 L 247.00 57.00 L 246.00 56.00 L 247.00 57.00 L 246.00 58.00 L 245.00 58.00 L 244.00 57.00 L 244.00 56.00 L 242.00 56.00 L 241.00 55.00 L 242.00 54.00 L 241.00 55.00 L 238.00 52.00 L 238.00 51.00 L 236.00 49.00 L 236.00 48.00 L 234.00 45.00 L 234.00 35.00 L 237.00 31.00 L 238.00 32.00 L 238.00 31.00 L 239.00 30.00 L 240.00 30.00 L 240.00 29.00 L 242.00 27.00 L 242.00 26.00 L 241.00 25.00 L 243.00 23.00 L 244.00 23.00 L 247.00 21.00 L 249.00 21.00 Z M 23.00 75.00 L 286.00 74.00 L 287.00 135.00 L 24.00 136.00 Z M 54.00 150.00 L 58.00 150.00 L 59.00 151.00 L 63.00 151.00 L 64.00 152.00 L 64.00 153.00 L 63.00 154.00 L 64.00 154.00 L 64.00 153.00 L 65.00 152.00 L 67.00 155.00 L 68.00 154.00 L 71.00 157.00 L 70.00 158.00 L 70.00 159.00 L 70.00 158.00 L 71.00 157.00 L 74.00 161.00 L 73.00 162.00 L 74.00 162.00 L 75.00 163.00 L 75.00 167.00 L 76.00 168.00 L 76.00 172.00 L 75.00 173.00 L 75.00 176.00 L 73.00 178.00 L 74.00 179.00 L 72.00 181.00 L 72.00 182.00 L 67.00 187.00 L 66.00 187.00 L 63.00 189.00 L 60.00 189.00 L 59.00 190.00 L 53.00 190.00 L 52.00 189.00 L 49.00 189.00 L 47.00 187.00 L 48.00 186.00 L 49.00 186.00 L 46.00 187.00 L 45.00 186.00 L 46.00 185.00 L 45.00 184.00 L 44.00 185.00 L 43.00 185.00 L 40.00 182.00 L 41.00 181.00 L 40.00 181.00 L 39.00 180.00 L 39.00 179.00 L 40.00 178.00 L 39.00 179.00 L 37.00 176.00 L 37.00 170.00 L 36.00 169.00 L 37.00 168.00 L 37.00 164.00 L 38.00 163.00 L 39.00 160.00 L 40.00 159.00 L 41.00 160.00 L 42.00 159.00 L 43.00 160.00 L 42.00 159.00 L 46.00 155.00 L 45.00 154.00 L 47.00 152.00 L 48.00 152.00 L 49.00 153.00 L 48.00 152.00 L 49.00 151.00 L 53.00 151.00 Z M 115.00 151.00 L 118.00 151.00 L 119.00 150.00 L 120.00 151.00 L 121.00 150.00 L 124.00 150.00 L 125.00 151.00 L 129.00 151.00 L 130.00 152.00 L 131.00 152.00 L 132.00 153.00 L 131.00 154.00 L 130.00 154.00 L 131.00 155.00 L 132.00 154.00 L 134.00 156.00 L 135.00 155.00 L 139.00 159.00 L 139.00 161.00 L 140.00 162.00 L 139.00 163.00 L 139.00 166.00 L 140.00 167.00 L 141.00 166.00 L 142.00 167.00 L 142.00 173.00 L 139.00 175.00 L 139.00 177.00 L 140.00 178.00 L 139.00 179.00 L 139.00 181.00 L 138.00 182.00 L 137.00 181.00 L 138.00 182.00 L 136.00 184.00 L 135.00 183.00 L 134.00 184.00 L 133.00 183.00 L 132.00 183.00 L 133.00 183.00 L 134.00 184.00 L 133.00 185.00 L 134.00 186.00 L 131.00 188.00 L 130.00 187.00 L 130.00 188.00 L 129.00 189.00 L 127.00 189.00 L 126.00 188.00 L 124.00 190.00 L 119.00 190.00 L 118.00 189.00 L 115.00 189.00 L 111.00 186.00 L 110.00 186.00 L 106.00 182.00 L 106.00 181.00 L 104.00 178.00 L 104.00 177.00 L 106.00 175.00 L 104.00 173.00 L 105.00 172.00 L 105.00 170.00 L 104.00 169.00 L 105.00 166.00 L 103.00 163.00 L 106.00 159.00 L 106.00 158.00 L 109.00 155.00 L 110.00 155.00 L 113.00 152.00 L 114.00 152.00 L 115.00 153.00 L 115.00 154.00 L 114.00 155.00 L 115.00 154.00 L 115.00 153.00 L 114.00 152.00 Z M 181.00 151.00 L 184.00 151.00 L 185.00 150.00 L 190.00 150.00 L 191.00 151.00 L 195.00 151.00 L 198.00 153.00 L 196.00 155.00 L 194.00 154.00 L 196.00 155.00 L 198.00 154.00 L 199.00 155.00 L 199.00 157.00 L 202.00 156.00 L 203.00 158.00 L 201.00 159.00 L 203.00 158.00 L 207.00 164.00 L 207.00 166.00 L 208.00 167.00 L 208.00 172.00 L 207.00 173.00 L 207.00 176.00 L 206.00 177.00 L 206.00 179.00 L 204.00 181.00 L 202.00 179.00 L 203.00 178.00 L 201.00 180.00 L 203.00 183.00 L 199.00 187.00 L 195.00 189.00 L 193.00 188.00 L 190.00 190.00 L 185.00 190.00 L 184.00 189.00 L 181.00 189.00 L 176.00 186.00 L 177.00 185.00 L 176.00 184.00 L 176.00 182.00 L 175.00 183.00 L 171.00 181.00 L 172.00 179.00 L 173.00 180.00 L 175.00 180.00 L 173.00 180.00 L 172.00 179.00 L 171.00 180.00 L 170.00 179.00 L 170.00 177.00 L 168.00 173.00 L 168.00 167.00 L 169.00 166.00 L 170.00 161.00 L 171.00 160.00 L 172.00 161.00 L 171.00 160.00 L 173.00 157.00 L 176.00 160.00 L 176.00 161.00 L 176.00 160.00 L 173.00 157.00 L 176.00 154.00 L 178.00 156.00 L 178.00 155.00 Z M 251.00 150.00 L 257.00 150.00 L 258.00 151.00 L 261.00 151.00 L 262.00 152.00 L 261.00 153.00 L 259.00 153.00 L 259.00 154.00 L 260.00 153.00 L 261.00 154.00 L 266.00 154.00 L 267.00 155.00 L 267.00 156.00 L 268.00 156.00 L 270.00 158.00 L 270.00 159.00 L 269.00 160.00 L 270.00 159.00 L 272.00 162.00 L 271.00 163.00 L 269.00 163.00 L 271.00 163.00 L 273.00 165.00 L 273.00 175.00 L 272.00 176.00 L 272.00 178.00 L 271.00 179.00 L 270.00 178.00 L 271.00 179.00 L 271.00 180.00 L 266.00 186.00 L 265.00 186.00 L 264.00 185.00 L 265.00 186.00 L 264.00 187.00 L 263.00 187.00 L 261.00 189.00 L 258.00 189.00 L 257.00 190.00 L 250.00 190.00 L 249.00 189.00 L 247.00 189.00 L 246.00 188.00 L 243.00 187.00 L 241.00 185.00 L 242.00 184.00 L 242.00 183.00 L 240.00 181.00 L 240.00 180.00 L 239.00 180.00 L 238.00 179.00 L 238.00 178.00 L 237.00 179.00 L 234.00 175.00 L 234.00 165.00 L 235.00 164.00 L 236.00 161.00 L 238.00 159.00 L 238.00 158.00 L 241.00 155.00 L 242.00 156.00 L 241.00 155.00 L 242.00 154.00 L 244.00 154.00 L 244.00 153.00 L 245.00 152.00 L 246.00 152.00 L 247.00 153.00 L 246.00 154.00 L 247.00 153.00 L 248.00 154.00 L 246.00 152.00 L 247.00 151.00 L 250.00 151.00 Z" fill="#000" fill-rule="evenodd" />
</svg>
