<?xml version="1.0" encoding="utf-8"?>
<svg xmlns="http://www.w3.org/2000/svg" viewBox="323.601 26.585 144 202" width="144px" height="202px">
  <path d="M 345.601 33.585 L 328.601 45.585 L 323.601 60.585 L 325.601 100.585 L 335.601 107.585 L 353.601 108.239 L 353.601 133.585 L 343.601 141.585 L 343.332 152.893 L 353.601 163.585 L 353.601 179.585 L 342.601 189.585 L 342.601 200.585 L 354.601 211.585 L 354.851 222.123 L 363.601 228.585 L 431.601 227.585 L 439.601 207.585 L 439.601 190.585 L 449.601 183.585 L 449.601 170.585 L 438.601 160.585 L 439.601 144.585 L 449.601 136.585 L 449.601 124.585 L 439.601 116.585 L 439.582 107.585 L 461.601 107.585 L 467.601 97.585 L 465.601 48.585 L 449.601 35.585 L 424.601 27.585 L 406.601 26.585 L 386.601 26.585 L 345.601 33.585 Z" fill="#000" fill-rule="evenodd" style="stroke-width: 1;" transform="matrix(0.9999999999999999, 0, 0, 0.9999999999999999, 0, 0)"/>
</svg>