<?xml version="1.0" encoding="utf-8"?>
<svg xmlns="http://www.w3.org/2000/svg" viewBox="147.315 127.211 205.807 208" width="205.807px" height="208px">
  <path d="M 245.721 127.211 L 225.205 130.722 L 199.04 140.535 L 179.787 153.925 L 165.314 170.041 L 157.721 183.211 L 150.721 202.211 L 147.551 216.233 L 147.315 246.716 L 152.045 266.029 L 163.248 287.502 L 178.232 305.925 L 197.078 320.788 L 220.721 331.211 L 240.721 335.211 L 264.82 334.804 L 288.699 328.145 L 313.886 312.062 L 335.804 290.079 L 348.721 266.211 L 353.111 245.194 L 352.688 216.299 L 344.721 185.211 L 329.853 163.546 L 309.721 145.211 L 288.721 134.211 L 265.721 128.211 L 245.721 127.211 Z M 236.501 164.618 L 265.721 165.211 L 265.721 216.211 L 352.699 216.178 L 353.122 245.194 L 266.347 245.804 L 266.144 298.008 L 235.501 297.821 L 235.721 246.211 L 147.319 246.634 L 147.507 216.211 L 236.721 215.211 L 236.501 164.618 Z" fill="#000" fill-rule="evenodd" style="stroke-width: 1;" transform="matrix(1, 0, 0, 1, 0, -1.4210854715202004e-14)"/>
</svg>