<?xml version="1.0" encoding="UTF-8"?>
<svg xmlns="http://www.w3.org/2000/svg" viewBox="0 0 210 154" width="210" height="154">
  <path d="M 3.00 5.00 L 2.00 80.00 L 7.00 83.00 L 38.00 84.00 L 49.00 94.00 L 51.00 100.00 L 50.00 110.00 L 42.00 119.00 L 20.00 123.00 L 18.00 126.00 L 19.00 129.00 L 16.00 130.00 L 19.00 132.00 L 19.00 150.00 L 190.00 149.00 L 189.00 124.00 L 167.00 120.00 L 160.00 114.00 L 157.00 100.00 L 160.00 92.00 L 172.00 83.00 L 202.00 83.00 L 207.00 78.00 L 207.00 13.00 L 203.00 3.00 L 10.00 1.00 Z M 32.00 11.00 L 34.00 13.00 L 32.00 14.00 L 34.00 15.00 L 32.00 16.00 L 34.00 17.00 L 34.00 18.00 L 33.00 19.00 L 32.00 18.00 L 32.00 19.00 L 34.00 20.00 L 33.00 21.00 L 31.00 21.00 L 30.00 20.00 L 34.00 22.00 L 32.00 24.00 L 31.00 24.00 L 33.00 24.00 L 34.00 25.00 L 34.00 28.00 L 33.00 29.00 L 32.00 28.00 L 32.00 26.00 L 31.00 27.00 L 32.00 28.00 L 32.00 30.00 L 33.00 29.00 L 34.00 31.00 L 32.00 32.00 L 32.00 34.00 L 31.00 35.00 L 31.00 39.00 L 31.00 35.00 L 32.00 34.00 L 33.00 35.00 L 33.00 40.00 L 31.00 41.00 L 32.00 45.00 L 33.00 46.00 L 31.00 48.00 L 30.00 47.00 L 30.00 45.00 L 30.00 48.00 L 32.00 49.00 L 31.00 51.00 L 31.00 55.00 L 32.00 55.00 L 33.00 57.00 L 32.00 58.00 L 31.00 57.00 L 31.00 60.00 L 33.00 62.00 L 33.00 64.00 L 32.00 65.00 L 30.00 63.00 L 30.00 62.00 L 32.00 66.00 L 31.00 67.00 L 31.00 70.00 L 29.00 71.00 L 28.00 70.00 L 28.00 60.00 L 29.00 59.00 L 28.00 58.00 L 29.00 56.00 L 28.00 55.00 L 28.00 52.00 L 29.00 51.00 L 28.00 50.00 L 28.00 44.00 L 29.00 43.00 L 28.00 41.00 L 29.00 40.00 L 28.00 39.00 L 29.00 37.00 L 28.00 36.00 L 28.00 28.00 L 29.00 27.00 L 28.00 25.00 L 28.00 23.00 L 29.00 22.00 L 28.00 21.00 L 28.00 15.00 L 29.00 14.00 L 30.00 15.00 L 30.00 14.00 L 28.00 13.00 L 30.00 11.00 L 31.00 12.00 Z M 46.00 11.00 L 53.00 11.00 L 54.00 12.00 L 54.00 39.00 L 53.00 40.00 L 54.00 41.00 L 54.00 73.00 L 53.00 74.00 L 51.00 74.00 L 50.00 75.00 L 49.00 74.00 L 46.00 74.00 L 45.00 73.00 L 45.00 59.00 L 46.00 58.00 L 45.00 57.00 L 46.00 56.00 L 45.00 55.00 L 45.00 54.00 L 46.00 53.00 L 45.00 52.00 L 45.00 49.00 L 46.00 48.00 L 46.00 47.00 L 45.00 46.00 L 46.00 45.00 L 46.00 35.00 L 45.00 34.00 L 45.00 32.00 L 46.00 31.00 L 45.00 30.00 L 45.00 12.00 Z M 66.00 11.00 L 74.00 11.00 L 75.00 12.00 L 75.00 14.00 L 76.00 15.00 L 75.00 16.00 L 75.00 24.00 L 74.00 25.00 L 75.00 26.00 L 75.00 29.00 L 74.00 30.00 L 73.00 30.00 L 74.00 30.00 L 75.00 31.00 L 75.00 40.00 L 74.00 41.00 L 75.00 42.00 L 75.00 43.00 L 74.00 44.00 L 75.00 45.00 L 75.00 49.00 L 74.00 50.00 L 75.00 51.00 L 74.00 52.00 L 76.00 55.00 L 74.00 57.00 L 75.00 57.00 L 76.00 58.00 L 75.00 59.00 L 76.00 60.00 L 74.00 62.00 L 75.00 63.00 L 75.00 64.00 L 74.00 65.00 L 75.00 66.00 L 74.00 67.00 L 74.00 68.00 L 75.00 69.00 L 75.00 71.00 L 74.00 72.00 L 73.00 72.00 L 74.00 72.00 L 75.00 73.00 L 75.00 74.00 L 74.00 75.00 L 66.00 75.00 L 65.00 74.00 L 65.00 39.00 L 66.00 38.00 L 67.00 39.00 L 65.00 37.00 L 66.00 36.00 L 65.00 35.00 L 66.00 34.00 L 65.00 33.00 L 65.00 30.00 L 66.00 29.00 L 65.00 28.00 L 65.00 12.00 Z M 88.00 11.00 L 90.00 11.00 L 91.00 12.00 L 92.00 11.00 L 94.00 11.00 L 95.00 12.00 L 93.00 14.00 L 92.00 14.00 L 94.00 16.00 L 96.00 16.00 L 96.00 13.00 L 97.00 12.00 L 98.00 13.00 L 98.00 74.00 L 97.00 75.00 L 96.00 74.00 L 96.00 72.00 L 96.00 73.00 L 94.00 75.00 L 93.00 74.00 L 92.00 75.00 L 91.00 74.00 L 90.00 75.00 L 89.00 74.00 L 88.00 75.00 L 87.00 74.00 L 87.00 12.00 Z M 113.00 11.00 L 114.00 11.00 L 116.00 13.00 L 115.00 14.00 L 116.00 13.00 L 117.00 13.00 L 117.00 12.00 L 118.00 11.00 L 120.00 11.00 L 121.00 12.00 L 119.00 14.00 L 120.00 14.00 L 120.00 13.00 L 121.00 12.00 L 122.00 13.00 L 122.00 73.00 L 121.00 74.00 L 120.00 73.00 L 120.00 72.00 L 120.00 73.00 L 118.00 75.00 L 111.00 75.00 L 110.00 74.00 L 110.00 19.00 L 111.00 18.00 L 110.00 17.00 L 110.00 16.00 L 111.00 15.00 L 110.00 14.00 L 111.00 13.00 L 113.00 13.00 L 112.00 12.00 Z M 134.00 11.00 L 141.00 11.00 L 143.00 13.00 L 143.00 62.00 L 142.00 63.00 L 143.00 64.00 L 143.00 65.00 L 142.00 66.00 L 143.00 67.00 L 142.00 68.00 L 142.00 69.00 L 143.00 70.00 L 142.00 71.00 L 142.00 73.00 L 140.00 75.00 L 139.00 74.00 L 138.00 75.00 L 134.00 75.00 L 133.00 74.00 L 133.00 12.00 Z M 157.00 11.00 L 160.00 11.00 L 163.00 13.00 L 162.00 14.00 L 163.00 15.00 L 163.00 18.00 L 161.00 21.00 L 162.00 22.00 L 162.00 23.00 L 161.00 24.00 L 162.00 25.00 L 162.00 26.00 L 161.00 27.00 L 162.00 28.00 L 161.00 29.00 L 161.00 30.00 L 162.00 31.00 L 161.00 32.00 L 162.00 32.00 L 163.00 33.00 L 161.00 35.00 L 162.00 36.00 L 161.00 37.00 L 161.00 38.00 L 162.00 39.00 L 162.00 40.00 L 161.00 41.00 L 161.00 44.00 L 162.00 45.00 L 161.00 48.00 L 162.00 48.00 L 163.00 49.00 L 162.00 50.00 L 162.00 52.00 L 161.00 53.00 L 162.00 54.00 L 162.00 57.00 L 163.00 58.00 L 162.00 59.00 L 161.00 59.00 L 162.00 60.00 L 161.00 61.00 L 163.00 63.00 L 162.00 64.00 L 161.00 64.00 L 162.00 64.00 L 163.00 65.00 L 163.00 66.00 L 162.00 67.00 L 163.00 68.00 L 163.00 71.00 L 162.00 72.00 L 163.00 73.00 L 162.00 74.00 L 155.00 74.00 L 154.00 73.00 L 154.00 13.00 Z M 176.00 11.00 L 180.00 11.00 L 181.00 12.00 L 181.00 19.00 L 178.00 21.00 L 179.00 20.00 L 180.00 20.00 L 181.00 21.00 L 181.00 71.00 L 180.00 72.00 L 179.00 72.00 L 178.00 71.00 L 178.00 70.00 L 179.00 69.00 L 178.00 70.00 L 178.00 71.00 L 181.00 73.00 L 180.00 74.00 L 178.00 74.00 L 176.00 72.00 L 176.00 69.00 L 175.00 68.00 L 175.00 66.00 L 176.00 65.00 L 175.00 64.00 L 175.00 61.00 L 176.00 60.00 L 175.00 59.00 L 177.00 57.00 L 178.00 58.00 L 178.00 60.00 L 178.00 59.00 L 179.00 58.00 L 179.00 55.00 L 178.00 54.00 L 179.00 53.00 L 178.00 53.00 L 178.00 55.00 L 179.00 56.00 L 179.00 57.00 L 178.00 58.00 L 177.00 57.00 L 176.00 58.00 L 175.00 57.00 L 175.00 54.00 L 176.00 53.00 L 175.00 52.00 L 175.00 12.00 Z M 193.00 11.00 L 194.00 11.00 L 195.00 12.00 L 196.00 11.00 L 198.00 13.00 L 198.00 15.00 L 197.00 16.00 L 198.00 17.00 L 197.00 18.00 L 198.00 19.00 L 197.00 20.00 L 197.00 21.00 L 198.00 22.00 L 197.00 23.00 L 197.00 24.00 L 198.00 25.00 L 197.00 26.00 L 197.00 27.00 L 198.00 28.00 L 197.00 29.00 L 197.00 30.00 L 198.00 31.00 L 197.00 32.00 L 198.00 33.00 L 198.00 34.00 L 197.00 35.00 L 198.00 36.00 L 198.00 39.00 L 197.00 40.00 L 198.00 41.00 L 198.00 42.00 L 197.00 43.00 L 198.00 44.00 L 198.00 71.00 L 196.00 74.00 L 193.00 74.00 L 192.00 73.00 L 192.00 36.00 L 193.00 35.00 L 192.00 34.00 L 192.00 12.00 Z M 12.00 12.00 L 13.00 12.00 L 14.00 13.00 L 14.00 14.00 L 14.00 13.00 L 15.00 12.00 L 16.00 13.00 L 16.00 73.00 L 15.00 74.00 L 14.00 74.00 L 13.00 73.00 L 12.00 74.00 L 11.00 73.00 L 11.00 71.00 L 10.00 70.00 L 11.00 69.00 L 10.00 68.00 L 10.00 67.00 L 11.00 66.00 L 10.00 65.00 L 11.00 64.00 L 11.00 63.00 L 10.00 62.00 L 11.00 61.00 L 10.00 60.00 L 11.00 59.00 L 11.00 58.00 L 10.00 57.00 L 11.00 56.00 L 10.00 55.00 L 10.00 54.00 L 11.00 53.00 L 12.00 54.00 L 10.00 52.00 L 10.00 47.00 L 11.00 46.00 L 11.00 45.00 L 10.00 44.00 L 11.00 43.00 L 10.00 42.00 L 11.00 41.00 L 10.00 40.00 L 10.00 37.00 L 11.00 36.00 L 10.00 35.00 L 10.00 34.00 L 11.00 33.00 L 10.00 32.00 L 10.00 31.00 L 11.00 30.00 L 10.00 29.00 L 11.00 28.00 L 10.00 27.00 L 10.00 24.00 L 11.00 23.00 L 10.00 22.00 L 10.00 19.00 L 11.00 18.00 L 11.00 13.00 Z" fill="#000" fill-rule="evenodd" />
</svg>
