<?xml version="1.0" encoding="UTF-8"?>
<svg xmlns="http://www.w3.org/2000/svg" viewBox="0 0 211 210" width="211" height="210">
  <path d="M 97.00 0.00 L 65.00 8.00 L 39.00 22.00 L 26.00 37.00 L 23.00 37.00 L 6.00 72.00 L 1.00 95.00 L 1.00 113.00 L 4.00 130.00 L 15.00 157.00 L 39.00 185.00 L 51.00 194.00 L 71.00 203.00 L 107.00 209.00 L 136.00 204.00 L 156.00 196.00 L 189.00 167.00 L 206.00 130.00 L 209.00 100.00 L 205.00 76.00 L 190.00 45.00 L 192.00 43.00 L 190.00 44.00 L 187.00 40.00 L 189.00 39.00 L 187.00 40.00 L 168.00 21.00 L 148.00 9.00 L 127.00 2.00 Z M 78.00 36.00 L 87.00 36.00 L 87.00 51.00 L 91.00 54.00 L 121.00 53.00 L 124.00 47.00 L 124.00 35.00 L 144.00 42.00 L 156.00 52.00 L 141.00 64.00 L 154.00 90.00 L 160.00 93.00 L 176.00 86.00 L 175.00 94.00 L 178.00 101.00 L 176.00 122.00 L 161.00 115.00 L 155.00 117.00 L 141.00 144.00 L 156.00 156.00 L 144.00 166.00 L 126.00 175.00 L 124.00 174.00 L 123.00 159.00 L 119.00 154.00 L 91.00 154.00 L 87.00 159.00 L 85.00 175.00 L 70.00 169.00 L 54.00 157.00 L 66.00 149.00 L 69.00 143.00 L 56.00 119.00 L 50.00 115.00 L 37.00 123.00 L 34.00 122.00 L 32.00 113.00 L 34.00 86.00 L 50.00 93.00 L 57.00 89.00 L 69.00 64.00 L 66.00 60.00 L 68.00 59.00 L 54.00 53.00 L 62.00 45.00 Z" fill="#000" fill-rule="evenodd" />
</svg>
