<?xml version="1.0" encoding="UTF-8"?>
<svg xmlns="http://www.w3.org/2000/svg" viewBox="0 0 208 180" width="208" height="180">
  <path d="M 2.00 22.00 L 2.00 43.00 L 26.00 52.00 L 29.00 54.00 L 27.00 56.00 L 56.00 56.00 L 60.00 59.00 L 61.00 82.00 L 51.00 90.00 L 50.00 100.00 L 61.00 112.00 L 61.00 130.00 L 49.00 138.00 L 51.00 150.00 L 62.00 161.00 L 66.00 174.00 L 69.00 177.00 L 138.00 179.00 L 146.00 160.00 L 146.00 142.00 L 156.00 132.00 L 157.00 127.00 L 156.00 118.00 L 146.00 109.00 L 146.00 96.00 L 157.00 96.00 L 147.00 95.00 L 157.00 84.00 L 157.00 72.00 L 147.00 64.00 L 147.00 58.00 L 176.00 56.00 L 204.00 44.00 L 205.00 22.00 L 193.00 22.00 L 191.00 19.00 L 174.00 21.00 L 154.00 11.00 L 112.00 0.00 L 91.00 0.00 L 92.00 3.00 L 59.00 9.00 L 34.00 21.00 L 20.00 19.00 L 15.00 22.00 L 12.00 19.00 L 14.00 21.00 L 11.00 22.00 L 10.00 19.00 L 9.00 22.00 Z" fill="#000" fill-rule="evenodd" />
</svg>
