<?xml version="1.0" encoding="UTF-8"?>
<svg xmlns="http://www.w3.org/2000/svg" viewBox="0 0 210 185" width="210" height="185">
  <path d="M 53.00 2.00 L 42.00 20.00 L 35.00 23.00 L 39.00 24.00 L 1.00 91.00 L 4.00 100.00 L 48.00 174.00 L 50.00 183.00 L 155.00 182.00 L 207.00 93.00 L 195.00 71.00 L 196.00 69.00 L 192.00 66.00 L 170.00 27.00 L 173.00 23.00 L 168.00 24.00 L 155.00 2.00 Z M 98.00 42.00 L 114.00 43.00 L 131.00 50.00 L 133.00 52.00 L 129.00 54.00 L 126.00 52.00 L 129.00 54.00 L 128.00 57.00 L 126.00 56.00 L 126.00 57.00 L 130.00 56.00 L 136.00 57.00 L 137.00 55.00 L 143.00 61.00 L 151.00 77.00 L 153.00 87.00 L 152.00 90.00 L 153.00 94.00 L 152.00 95.00 L 151.00 94.00 L 153.00 96.00 L 153.00 99.00 L 151.00 100.00 L 152.00 101.00 L 151.00 108.00 L 143.00 123.00 L 128.00 136.00 L 108.00 142.00 L 99.00 142.00 L 90.00 140.00 L 79.00 136.00 L 71.00 130.00 L 62.00 120.00 L 60.00 116.00 L 61.00 113.00 L 60.00 114.00 L 59.00 113.00 L 60.00 109.00 L 59.00 111.00 L 57.00 109.00 L 58.00 108.00 L 56.00 106.00 L 54.00 96.00 L 55.00 82.00 L 65.00 61.00 L 79.00 49.00 Z" fill="#000" fill-rule="evenodd" />
</svg>
