<?xml version="1.0" encoding="utf-8"?>
<svg xmlns="http://www.w3.org/2000/svg" viewBox="196.167 104.234 98 78" width="98px" height="78px">
  <path d="M 225.167 108.234 L 290.167 108.234 L 290.167 158.234 C 290.167 171.567 283.501 178.234 270.167 178.234 L 200.167 178.234 L 200.167 128.234 C 200.167 114.901 208.501 108.234 225.167 108.234 Z" fill="none" stroke="black" stroke-width="8" stroke-linejoin="round" style="stroke-width: 8;" transform="matrix(1, 0, 0, 1, 3.552713678800501e-15, 0)"/>
  <path d="M 234.157 123.401 L 275 123.401 L 275 143.014 C 275 156.09 269.166 162.628 257.496 162.628 L 216.652 162.628 L 216.652 143.014 C 216.652 129.939 222.487 123.401 234.157 123.401 Z" fill="none" stroke="black" stroke-width="8" stroke-linejoin="round" style="stroke-width: 8;" transform="matrix(1, 0, 0, 1, 3.552713678800501e-15, 0)"/>
  <circle cx="245.167" cy="143.234" r="8" fill="none" stroke="black" stroke-width="8" style="stroke-width: 8;" transform="matrix(1, 0, 0, 1, 3.552713678800501e-15, 0)"/>
</svg>