<?xml version="1.0" encoding="utf-8"?>
<svg xmlns="http://www.w3.org/2000/svg" viewBox="165 120 160 200" width="170px" height="200px">
  <path d="M 317.863 127.878 L 168.474 126.844 L 164.894 131.433 L 165.01 191.218 L 170.052 196.923 L 195.949 197.149 L 200.526 203.11 L 200.757 222.918 L 188.604 232.302 L 188.757 242.918 L 200.757 253.918 L 200.757 269.918 L 189.796 277.918 L 189.757 291.224 L 203.294 302.687 L 207.757 317.918 L 277.757 317.918 L 284.796 300.687 L 284.604 279.726 L 294.796 270.42 L 295.102 258.801 L 284.757 249.918 L 284.796 232.918 L 295.526 223.651 L 295.797 211.922 L 285.757 202.918 L 290.757 196.918 L 318.635 196.976 L 322.652 191.747 L 322.106 132.104 L 317.863 127.878 Z" fill="#000" fill-rule="evenodd" style="stroke-width: 1;" transform="matrix(1, 0, 0, 1, 0, 1.4210854715202004e-14)"/>
</svg>