<?xml version="1.0" encoding="UTF-8"?>
<svg xmlns="http://www.w3.org/2000/svg" viewBox="0 0 203 196" width="203" height="196">
  <path d="M 50.00 21.00 L 29.00 51.00 L 24.00 98.00 L 2.00 124.00 L 2.00 193.00 L 47.00 193.00 L 46.00 123.00 L 23.00 100.00 L 71.00 101.00 L 33.00 103.00 L 62.00 104.00 L 38.00 106.00 L 54.00 120.00 L 51.00 117.00 L 65.00 108.00 L 54.00 123.00 L 54.00 193.00 L 150.00 193.00 L 149.00 123.00 L 135.00 111.00 L 139.00 107.00 L 152.00 118.00 L 161.00 116.00 L 167.00 102.00 L 172.00 103.00 L 157.00 125.00 L 157.00 193.00 L 200.00 193.00 L 200.00 124.00 L 176.00 101.00 L 189.00 101.00 L 180.00 99.00 L 177.00 59.00 L 162.00 30.00 L 140.00 11.00 L 112.00 2.00 L 78.00 5.00 Z M 98.00 100.00 L 98.00 101.00 L 97.00 102.00 L 75.00 102.00 L 74.00 103.00 L 73.00 102.00 L 72.00 102.00 L 71.00 101.00 L 72.00 100.00 L 89.00 100.00 L 90.00 99.00 L 91.00 100.00 L 93.00 100.00 L 94.00 99.00 L 95.00 99.00 L 96.00 100.00 L 97.00 99.00 Z M 78.00 105.00 L 79.00 104.00 L 81.00 104.00 L 82.00 103.00 L 83.00 104.00 L 84.00 103.00 L 85.00 103.00 L 86.00 102.00 L 87.00 103.00 L 88.00 103.00 L 89.00 102.00 L 90.00 102.00 L 91.00 103.00 L 92.00 102.00 L 94.00 102.00 L 95.00 103.00 L 96.00 102.00 L 100.00 102.00 L 101.00 103.00 L 102.00 102.00 L 110.00 102.00 L 111.00 103.00 L 112.00 103.00 L 113.00 102.00 L 114.00 102.00 L 115.00 103.00 L 116.00 103.00 L 117.00 104.00 L 118.00 104.00 L 119.00 103.00 L 120.00 104.00 L 125.00 104.00 L 126.00 105.00 L 125.00 106.00 L 79.00 106.00 Z" fill="#000" fill-rule="evenodd" />
</svg>
