<?xml version="1.0" encoding="UTF-8"?>
<svg xmlns="http://www.w3.org/2000/svg" viewBox="0 0 410 469" width="410" height="469">
  <path d="M 383.00 138.00 L 336.00 138.00 L 328.00 147.00 L 328.00 427.00 L 323.00 444.00 L 314.00 458.00 L 349.00 458.00 L 373.00 451.00 L 371.00 449.00 L 385.00 436.00 L 395.00 415.00 L 397.00 157.00 L 392.00 143.00 Z" fill="#000" fill-rule="evenodd" />
  <path d="M 29.00 138.00 L 22.00 141.00 L 16.00 154.00 L 17.00 414.00 L 30.00 439.00 L 46.00 452.00 L 64.00 458.00 L 99.00 458.00 L 89.00 443.00 L 84.00 422.00 L 84.00 145.00 L 76.00 138.00 Z" fill="#000" fill-rule="evenodd" />
  <path d="M 23.00 11.00 L 16.00 24.00 L 19.00 73.00 L 30.00 81.00 L 92.00 81.00 L 100.00 88.00 L 104.00 439.00 L 130.00 458.00 L 281.00 458.00 L 295.00 453.00 L 312.00 428.00 L 312.00 92.00 L 320.00 81.00 L 388.00 79.00 L 397.00 61.00 L 394.00 17.00 L 379.00 7.00 Z" fill="#000" fill-rule="evenodd" />
</svg>
