<?xml version="1.0" encoding="utf-8"?>
<svg xmlns="http://www.w3.org/2000/svg" viewBox="163.591 86.3 207.407 206.187" width="207.407px" height="206.187px">
  <path d="M 257.591 86.3 L 234.591 91.3 L 213.591 101.3 L 191.86 117.607 L 175.202 141.966 L 165.932 164.855 L 163.591 193.3 L 167.591 221.3 L 181.355 247.827 L 202.695 271.014 L 224.574 284.064 L 252.064 292.487 L 283.201 292.267 L 308.981 284.674 L 330.273 272.857 L 348.508 254.586 L 363.591 231.3 L 368.591 215.3 L 370.998 184.416 L 366.591 158.3 L 355.591 135.3 L 335.591 111.3 L 316.591 98.3 L 294.591 89.3 L 276.256 86.503 L 257.591 86.3 Z M 221.778 236.097 L 221.574 144.503 L 312.591 144.3 L 313.794 235.91 L 221.778 236.097 Z" fill="#000" fill-rule="evenodd" style="stroke-width: 1;" transform="matrix(1, 0, 0, 1, -1.4210854715202004e-14, -7.105427357601002e-15)"/>
</svg>