<?xml version="1.0" encoding="UTF-8"?>
<svg xmlns="http://www.w3.org/2000/svg" viewBox="0 0 206 562" width="206" height="562">
  <path d="M 112.00 6.00 L 74.00 10.00 L 46.00 28.00 L 28.00 50.00 L 16.00 88.00 L 23.00 129.00 L 57.00 187.00 L 59.00 549.00 L 71.00 557.00 L 87.00 556.00 L 97.00 545.00 L 98.00 190.00 L 91.00 157.00 L 60.00 111.00 L 58.00 83.00 L 77.00 55.00 L 112.00 46.00 L 133.00 55.00 L 153.00 87.00 L 151.00 109.00 L 112.00 180.00 L 112.00 462.00 L 127.00 478.00 L 143.00 477.00 L 153.00 465.00 L 154.00 180.00 L 183.00 137.00 L 193.00 105.00 L 190.00 69.00 L 176.00 41.00 L 150.00 18.00 Z" fill="#000" fill-rule="evenodd" />
</svg>
