<?xml version="1.0" encoding="UTF-8"?>
<svg xmlns="http://www.w3.org/2000/svg" viewBox="0 0 211 211" width="211" height="211">
  <path d="M 87.00 2.00 L 50.00 16.00 L 33.00 29.00 L 21.00 43.00 L 11.00 60.00 L 1.00 87.00 L 2.00 124.00 L 15.00 158.00 L 26.00 173.00 L 44.00 190.00 L 67.00 203.00 L 81.00 207.00 L 124.00 208.00 L 155.00 197.00 L 170.00 187.00 L 186.00 171.00 L 187.00 173.00 L 187.00 169.00 L 199.00 149.00 L 205.00 130.00 L 207.00 130.00 L 209.00 112.00 L 207.00 84.00 L 194.00 50.00 L 184.00 36.00 L 162.00 16.00 L 132.00 4.00 L 113.00 1.00 Z M 97.00 82.00 L 100.00 82.00 L 101.00 81.00 L 108.00 81.00 L 109.00 82.00 L 112.00 82.00 L 113.00 83.00 L 115.00 83.00 L 118.00 86.00 L 119.00 86.00 L 124.00 91.00 L 124.00 92.00 L 126.00 94.00 L 126.00 95.00 L 127.00 96.00 L 127.00 98.00 L 128.00 99.00 L 128.00 111.00 L 127.00 112.00 L 127.00 114.00 L 126.00 115.00 L 125.00 118.00 L 119.00 124.00 L 118.00 124.00 L 116.00 126.00 L 115.00 126.00 L 114.00 127.00 L 112.00 127.00 L 111.00 128.00 L 99.00 128.00 L 98.00 127.00 L 97.00 127.00 L 96.00 126.00 L 91.00 124.00 L 87.00 120.00 L 87.00 119.00 L 84.00 116.00 L 84.00 115.00 L 83.00 114.00 L 83.00 112.00 L 82.00 111.00 L 82.00 99.00 L 83.00 98.00 L 83.00 96.00 L 84.00 95.00 L 85.00 92.00 L 90.00 87.00 L 91.00 87.00 L 95.00 83.00 L 96.00 83.00 Z" fill="#000" fill-rule="evenodd" />
</svg>
