<?xml version="1.0" encoding="UTF-8"?>
<svg xmlns="http://www.w3.org/2000/svg" viewBox="0 0 159 208" width="159" height="208">
  <path d="M 56.00 4.00 L 32.00 13.00 L 7.00 39.00 L 2.00 53.00 L 3.00 78.00 L 14.00 85.00 L 32.00 85.00 L 36.00 90.00 L 37.00 110.00 L 26.00 119.00 L 25.00 130.00 L 37.00 141.00 L 37.00 157.00 L 27.00 165.00 L 26.00 176.00 L 38.00 189.00 L 44.00 205.00 L 114.00 205.00 L 122.00 187.00 L 122.00 167.00 L 132.00 160.00 L 133.00 155.00 L 130.00 143.00 L 121.00 137.00 L 122.00 120.00 L 131.00 114.00 L 133.00 104.00 L 122.00 90.00 L 127.00 84.00 L 149.00 85.00 L 154.00 82.00 L 156.00 59.00 L 153.00 45.00 L 137.00 22.00 L 111.00 6.00 L 89.00 2.00 L 88.00 26.00 L 85.00 29.00 L 71.00 29.00 L 70.00 3.00 Z" fill="#000" fill-rule="evenodd" />
  <line x1="68" y1="23" x2="89" y2="23" stroke="#000000" stroke-width="40" />
</svg>
