<?xml version="1.0" encoding="UTF-8"?>
<svg xmlns="http://www.w3.org/2000/svg" viewBox="0 0 211 210" width="211" height="210">
  <path d="M 95.00 0.00 L 72.00 5.00 L 51.00 15.00 L 25.00 37.00 L 7.00 69.00 L 1.00 107.00 L 5.00 135.00 L 21.00 166.00 L 45.00 190.00 L 43.00 191.00 L 46.00 190.00 L 63.00 200.00 L 85.00 207.00 L 120.00 208.00 L 147.00 200.00 L 162.00 191.00 L 163.00 193.00 L 164.00 190.00 L 167.00 192.00 L 166.00 189.00 L 191.00 163.00 L 201.00 145.00 L 206.00 129.00 L 208.00 91.00 L 204.00 72.00 L 193.00 49.00 L 194.00 46.00 L 192.00 47.00 L 173.00 25.00 L 154.00 12.00 L 132.00 3.00 L 122.00 2.00 L 122.00 0.00 Z M 59.00 59.00 L 60.00 58.00 L 150.00 58.00 L 151.00 59.00 L 151.00 149.00 L 150.00 150.00 L 60.00 150.00 L 59.00 149.00 Z" fill="#000" fill-rule="evenodd" />
</svg>
