<?xml version="1.0" encoding="UTF-8"?>
<svg xmlns="http://www.w3.org/2000/svg" viewBox="0 0 182 197" width="182" height="197">
  <path d="M 21.00 3.00 L 2.00 19.00 L 3.00 73.00 L 44.00 73.00 L 47.00 76.00 L 48.00 99.00 L 39.00 106.00 L 38.00 124.00 L 40.00 122.00 L 48.00 128.00 L 48.00 146.00 L 38.00 155.00 L 38.00 167.00 L 48.00 176.00 L 51.00 192.00 L 126.00 194.00 L 134.00 187.00 L 129.00 188.00 L 133.00 158.00 L 144.00 148.00 L 143.00 135.00 L 146.00 136.00 L 147.00 130.00 L 144.00 132.00 L 145.00 128.00 L 138.00 123.00 L 138.00 127.00 L 134.00 127.00 L 133.00 116.00 L 143.00 112.00 L 141.00 109.00 L 146.00 105.00 L 144.00 89.00 L 134.00 77.00 L 136.00 73.00 L 179.00 73.00 L 179.00 17.00 L 160.00 3.00 L 141.00 18.00 L 141.00 60.00 L 138.00 62.00 L 134.00 60.00 L 134.00 19.00 L 111.00 2.00 L 70.00 2.00 L 48.00 19.00 L 46.00 62.00 L 42.00 60.00 L 42.00 20.00 Z" fill="#000" fill-rule="evenodd" />
  <path d="M 56.00 3.00 L 51.00 3.00 L 50.00 2.00 L 49.00 3.00 L 34.00 3.00 L 34.00 5.00 L 35.00 6.00 L 36.00 6.00 L 38.00 8.00 L 39.00 8.00 L 44.00 13.00 L 46.00 13.00 L 50.00 9.00 L 51.00 9.00 L 53.00 7.00 L 54.00 7.00 L 56.00 5.00 Z" fill="#000" fill-rule="evenodd" />
  <path d="M 125.00 7.00 L 126.00 8.00 L 127.00 7.00 L 129.00 7.00 L 131.00 9.00 L 133.00 9.00 L 135.00 11.00 L 136.00 11.00 L 137.00 12.00 L 137.00 13.00 L 138.00 13.00 L 138.00 12.00 L 139.00 11.00 L 140.00 11.00 L 143.00 8.00 L 144.00 8.00 L 148.00 4.00 L 148.00 3.00 L 140.00 3.00 L 139.00 2.00 L 138.00 3.00 L 136.00 3.00 L 135.00 2.00 L 134.00 3.00 L 132.00 1.00 L 133.00 0.00 L 130.00 3.00 L 129.00 2.00 L 128.00 3.00 L 125.00 3.00 L 125.00 5.00 L 126.00 5.00 L 127.00 6.00 L 127.00 7.00 L 126.00 8.00 Z" fill="#000" fill-rule="evenodd" />
</svg>
