<?xml version="1.0" encoding="UTF-8"?>
<svg xmlns="http://www.w3.org/2000/svg" viewBox="0 0 211 211" width="211" height="211">
  <path d="M 101.00 1.00 L 80.00 4.00 L 55.00 12.00 L 45.00 18.00 L 24.00 40.00 L 22.00 39.00 L 21.00 43.00 L 19.00 42.00 L 21.00 44.00 L 16.00 48.00 L 17.00 51.00 L 13.00 52.00 L 15.00 54.00 L 11.00 58.00 L 5.00 78.00 L 2.00 117.00 L 6.00 136.00 L 16.00 160.00 L 41.00 188.00 L 71.00 205.00 L 114.00 209.00 L 139.00 204.00 L 160.00 194.00 L 173.00 185.00 L 187.00 170.00 L 202.00 143.00 L 209.00 104.00 L 205.00 77.00 L 190.00 46.00 L 194.00 43.00 L 190.00 45.00 L 166.00 21.00 L 168.00 17.00 L 165.00 20.00 L 164.00 17.00 L 132.00 4.00 Z M 70.00 43.00 L 79.00 49.00 L 101.00 54.00 L 101.00 56.00 L 131.00 49.00 L 140.00 43.00 L 141.00 44.00 L 141.00 62.00 L 149.00 80.00 L 157.00 92.00 L 175.00 105.00 L 163.00 114.00 L 160.00 112.00 L 162.00 114.00 L 150.00 128.00 L 142.00 146.00 L 140.00 167.00 L 136.00 164.00 L 137.00 162.00 L 135.00 164.00 L 128.00 160.00 L 112.00 156.00 L 91.00 157.00 L 76.00 164.00 L 75.00 163.00 L 70.00 167.00 L 67.00 144.00 L 61.00 130.00 L 45.00 112.00 L 33.00 105.00 L 48.00 96.00 L 61.00 80.00 L 68.00 64.00 Z" fill="#000" fill-rule="evenodd" />
</svg>
