<?xml version="1.0" encoding="UTF-8"?>
<svg xmlns="http://www.w3.org/2000/svg" viewBox="0 0 211 211" width="211" height="211">
  <path d="M 93.00 2.00 L 87.00 6.00 L 86.00 19.00 L 59.00 31.00 L 43.00 22.00 L 24.00 41.00 L 22.00 47.00 L 31.00 58.00 L 21.00 75.00 L 20.00 85.00 L 5.00 88.00 L 2.00 93.00 L 2.00 122.00 L 18.00 125.00 L 31.00 151.00 L 31.00 155.00 L 23.00 163.00 L 25.00 171.00 L 31.00 176.00 L 27.00 180.00 L 31.00 177.00 L 46.00 190.00 L 60.00 180.00 L 86.00 191.00 L 91.00 208.00 L 120.00 208.00 L 124.00 205.00 L 126.00 191.00 L 153.00 179.00 L 153.00 182.00 L 155.00 180.00 L 167.00 189.00 L 189.00 169.00 L 190.00 162.00 L 185.00 157.00 L 187.00 154.00 L 185.00 157.00 L 180.00 151.00 L 191.00 125.00 L 208.00 120.00 L 209.00 93.00 L 205.00 87.00 L 191.00 85.00 L 185.00 66.00 L 179.00 58.00 L 189.00 43.00 L 169.00 22.00 L 163.00 21.00 L 150.00 30.00 L 127.00 19.00 L 128.00 13.00 L 124.00 15.00 L 124.00 3.00 Z M 97.00 49.00 L 112.00 49.00 L 122.00 51.00 L 132.00 57.00 L 129.00 60.00 L 132.00 57.00 L 138.00 60.00 L 147.00 68.00 L 153.00 76.00 L 158.00 86.00 L 161.00 100.00 L 160.00 117.00 L 152.00 135.00 L 149.00 139.00 L 148.00 138.00 L 149.00 139.00 L 146.00 143.00 L 133.00 154.00 L 125.00 158.00 L 112.00 161.00 L 100.00 161.00 L 89.00 159.00 L 74.00 152.00 L 69.00 146.00 L 68.00 147.00 L 63.00 142.00 L 56.00 132.00 L 51.00 121.00 L 49.00 109.00 L 51.00 89.00 L 53.00 84.00 L 57.00 80.00 L 56.00 79.00 L 59.00 74.00 L 69.00 63.00 L 86.00 52.00 Z" fill="#000" fill-rule="evenodd" />
</svg>
