<?xml version="1.0" encoding="UTF-8"?>
<svg xmlns="http://www.w3.org/2000/svg" viewBox="0 0 408 393" width="408" height="393">
  <path d="M 284.00 180.00 L 253.00 218.00 L 250.00 224.00 L 306.00 280.00 L 309.00 280.00 L 312.00 277.00 L 313.00 274.00 L 320.00 267.00 L 321.00 264.00 L 327.00 258.00 L 333.00 249.00 L 338.00 245.00 L 338.00 243.00 L 341.00 241.00 L 342.00 236.00 L 327.00 221.00 L 328.00 220.00 L 325.00 219.00 L 286.00 180.00 Z" fill="#000" fill-rule="evenodd" />
  <path d="M 83.00 89.00 L 33.00 133.00 L 11.00 180.00 L 4.00 235.00 L 11.00 270.00 L 23.00 298.00 L 61.00 344.00 L 81.00 360.00 L 130.00 376.00 L 167.00 378.00 L 194.00 374.00 L 226.00 362.00 L 276.00 323.00 L 293.00 298.00 L 236.00 242.00 L 201.00 281.00 L 179.00 293.00 L 144.00 295.00 L 113.00 280.00 L 99.00 265.00 L 90.00 247.00 L 86.00 228.00 L 88.00 210.00 L 102.00 181.00 L 141.00 147.00 Z" fill="#000" fill-rule="evenodd" />
  <path d="M 144.00 40.00 L 125.00 56.00 L 123.00 56.00 L 121.00 59.00 L 101.00 75.00 L 116.00 90.00 L 117.00 93.00 L 118.00 92.00 L 119.00 93.00 L 119.00 95.00 L 120.00 94.00 L 158.00 133.00 L 160.00 133.00 L 170.00 125.00 L 171.00 123.00 L 180.00 117.00 L 181.00 115.00 L 184.00 113.00 L 185.00 114.00 L 191.00 107.00 L 198.00 102.00 L 199.00 103.00 L 199.00 101.00 L 203.00 97.00 L 163.00 56.00 L 146.00 40.00 Z" fill="#000" fill-rule="evenodd" />
  <path d="M 392.00 43.00 L 387.00 39.00 L 348.00 44.00 L 345.00 42.00 L 334.00 46.00 L 254.00 56.00 L 246.00 69.00 L 250.00 82.00 L 298.00 109.00 L 214.00 130.00 L 209.00 136.00 L 210.00 143.00 L 218.00 147.00 L 352.00 132.00 L 358.00 129.00 L 365.00 117.00 L 364.00 108.00 L 359.00 101.00 L 342.00 93.00 L 339.00 89.00 L 313.00 78.00 L 312.00 75.00 L 387.00 52.00 L 391.00 49.00 Z" fill="#000" fill-rule="evenodd" />
</svg>
