<?xml version="1.0" encoding="utf-8"?>
<svg xmlns="http://www.w3.org/2000/svg" viewBox="118.534 81.524 167 204" width="167px" height="204px">
  <path d="M 153.168 88.563 L 132.534 100.524 L 122.534 113.524 L 118.534 124.524 L 158.534 168.524 L 158.534 191.524 L 147.534 196.524 L 147.534 210.524 L 157.534 218.524 L 158.534 238.524 L 147.534 247.524 L 148.534 259.524 L 158.534 267.524 L 163.534 282.524 L 167.534 285.524 L 237.534 285.524 L 242.534 271.524 L 244.534 246.524 L 254.534 240.524 L 253.534 226.524 L 243.534 219.524 L 243.534 201.524 L 254.534 192.524 L 254.534 181.524 L 244.534 172.524 L 244.534 167.524 L 285.534 125.524 L 281.207 113.524 L 269.63 101.659 L 254.611 91.351 L 233.534 83.524 L 211.534 81.524 L 175.36 82.543 L 153.168 88.563 Z" fill="#000" fill-rule="evenodd" style="stroke-width: 1;" transform="matrix(0.9999999999999999, 0, 0, 0.9999999999999999, 0, 0)"/>
</svg>