<?xml version="1.0" encoding="UTF-8"?>
<svg xmlns="http://www.w3.org/2000/svg" viewBox="0 0 211 212" width="211" height="212">
  <path d="M 97.00 1.00 L 54.00 14.00 L 26.00 37.00 L 4.00 78.00 L 1.00 116.00 L 15.00 158.00 L 36.00 184.00 L 64.00 202.00 L 107.00 211.00 L 137.00 205.00 L 170.00 186.00 L 173.00 189.00 L 171.00 186.00 L 198.00 151.00 L 208.00 114.00 L 166.00 112.00 L 157.00 135.00 L 137.00 155.00 L 111.00 164.00 L 88.00 162.00 L 70.00 153.00 L 49.00 125.00 L 47.00 93.00 L 61.00 66.00 L 88.00 48.00 L 113.00 46.00 L 145.00 63.00 L 155.00 77.00 L 162.00 99.00 L 209.00 99.00 L 210.00 94.00 L 198.00 52.00 L 164.00 17.00 L 131.00 4.00 Z" fill="#000" fill-rule="evenodd" />
</svg>
