<?xml version="1.0" encoding="utf-8"?>
<svg xmlns="http://www.w3.org/2000/svg" viewBox="164.107 86.206 206.374 206.357" width="206.374px" height="206.357px">
  <path d="M 260.481 86.206 L 234.481 91.206 L 210.365 102.882 L 189.481 121.206 L 174.717 143.327 L 165.261 172.069 L 164.107 201.679 L 174.481 238.206 L 196.871 265.97 L 223.203 284.146 L 254.008 292.563 L 283.613 292.563 L 304.921 286.563 L 325.174 276.327 L 345.415 258.052 L 363.025 230.322 L 370.481 206.206 L 370.074 174.497 L 363.481 150.206 L 351.767 129.102 L 335.382 110.53 L 313.767 96.442 L 288.481 88.206 L 260.481 86.206 Z M 249.074 101.426 L 285.871 101.393 L 285.481 279.206 L 247.481 279.069 L 249.074 101.426 Z" fill="#000" fill-rule="evenodd" style="stroke-width: 1;" transform="matrix(1, 0, 0, 1, -1.4210854715202004e-14, -7.105427357601002e-15)"/>
</svg>