<?xml version="1.0" encoding="UTF-8"?>
<svg xmlns="http://www.w3.org/2000/svg" viewBox="0 0 208 168" width="208" height="168">
  <path d="M 3.00 22.00 L 4.00 37.00 L 32.00 43.00 L 60.00 45.00 L 61.00 71.00 L 51.00 78.00 L 50.00 90.00 L 61.00 100.00 L 61.00 118.00 L 52.00 123.00 L 51.00 139.00 L 61.00 146.00 L 64.00 158.00 L 70.00 165.00 L 143.00 164.00 L 146.00 130.00 L 157.00 120.00 L 157.00 107.00 L 146.00 98.00 L 146.00 81.00 L 157.00 73.00 L 157.00 61.00 L 147.00 53.00 L 148.00 44.00 L 178.00 43.00 L 204.00 37.00 L 206.00 33.00 L 205.00 24.00 L 189.00 16.00 L 164.00 8.00 L 123.00 2.00 L 80.00 3.00 L 79.00 1.00 L 78.00 4.00 L 50.00 7.00 L 22.00 15.00 L 18.00 13.00 L 19.00 16.00 Z" fill="#000" fill-rule="evenodd" />
</svg>
