<?xml version="1.0" encoding="UTF-8"?>
<svg xmlns="http://www.w3.org/2000/svg" viewBox="0 0 203 214" width="203" height="214">
  <path d="M 77.00 4.00 L 40.00 22.00 L 17.00 48.00 L 3.00 87.00 L 4.00 123.00 L 12.00 146.00 L 33.00 176.00 L 35.00 188.00 L 56.00 204.00 L 78.00 210.00 L 81.00 166.00 L 78.00 168.00 L 56.00 154.00 L 44.00 157.00 L 34.00 145.00 L 25.00 117.00 L 28.00 84.00 L 44.00 57.00 L 72.00 37.00 L 108.00 32.00 L 144.00 45.00 L 162.00 63.00 L 172.00 81.00 L 177.00 118.00 L 160.00 156.00 L 143.00 153.00 L 121.00 169.00 L 121.00 205.00 L 124.00 210.00 L 131.00 210.00 L 166.00 189.00 L 170.00 175.00 L 191.00 143.00 L 200.00 109.00 L 196.00 74.00 L 186.00 47.00 L 178.00 40.00 L 181.00 36.00 L 177.00 33.00 L 178.00 40.00 L 147.00 13.00 L 120.00 3.00 Z M 57.00 171.00 L 63.00 171.00 L 64.00 172.00 L 65.00 172.00 L 69.00 176.00 L 69.00 179.00 L 70.00 180.00 L 70.00 184.00 L 65.00 189.00 L 64.00 189.00 L 63.00 190.00 L 56.00 190.00 L 53.00 187.00 L 53.00 186.00 L 51.00 184.00 L 51.00 178.00 L 52.00 177.00 L 52.00 176.00 L 53.00 175.00 L 53.00 174.00 L 54.00 173.00 L 55.00 174.00 L 55.00 173.00 Z M 135.00 173.00 L 136.00 173.00 L 138.00 171.00 L 145.00 171.00 L 146.00 172.00 L 147.00 172.00 L 150.00 175.00 L 150.00 177.00 L 151.00 178.00 L 151.00 182.00 L 152.00 183.00 L 150.00 185.00 L 150.00 186.00 L 148.00 188.00 L 147.00 188.00 L 146.00 189.00 L 145.00 189.00 L 144.00 190.00 L 139.00 190.00 L 138.00 189.00 L 136.00 189.00 L 133.00 186.00 L 134.00 185.00 L 133.00 185.00 L 132.00 184.00 L 132.00 183.00 L 133.00 182.00 L 132.00 181.00 L 132.00 179.00 L 134.00 177.00 L 133.00 176.00 L 134.00 175.00 L 134.00 174.00 Z" fill="#000" fill-rule="evenodd" />
</svg>
