<?xml version="1.0" encoding="UTF-8"?>
<svg xmlns="http://www.w3.org/2000/svg" viewBox="0 0 424 464" width="424" height="464">
  <path d="M 220.00 5.00 L 123.00 33.00 L 58.00 87.00 L 15.00 167.00 L 7.00 249.00 L 25.00 320.00 L 49.00 366.00 L 82.00 401.00 L 160.00 445.00 L 249.00 456.00 L 309.00 445.00 L 368.00 414.00 L 402.00 382.00 L 406.00 350.00 L 393.00 330.00 L 377.00 325.00 L 266.00 326.00 L 255.00 337.00 L 253.00 374.00 L 240.00 385.00 L 195.00 380.00 L 140.00 353.00 L 139.00 278.00 L 234.00 269.00 L 241.00 204.00 L 225.00 188.00 L 141.00 185.00 L 137.00 114.00 L 181.00 86.00 L 240.00 76.00 L 252.00 85.00 L 254.00 121.00 L 266.00 134.00 L 378.00 136.00 L 407.00 118.00 L 407.00 92.00 L 371.00 51.00 L 323.00 23.00 L 274.00 8.00 Z" fill="#000" fill-rule="evenodd" />
</svg>
