<?xml version="1.0" encoding="UTF-8"?>
<svg xmlns="http://www.w3.org/2000/svg" viewBox="0 0 212 211" width="212" height="211">
  <path d="M 100.00 0.00 L 62.00 9.00 L 46.00 18.00 L 30.00 32.00 L 28.00 30.00 L 30.00 32.00 L 20.00 41.00 L 20.00 44.00 L 18.00 43.00 L 20.00 45.00 L 12.00 56.00 L 5.00 75.00 L 0.00 100.00 L 0.00 115.00 L 2.00 113.00 L 11.00 150.00 L 22.00 167.00 L 38.00 184.00 L 54.00 195.00 L 75.00 204.00 L 95.00 208.00 L 113.00 208.00 L 132.00 205.00 L 158.00 194.00 L 185.00 171.00 L 203.00 139.00 L 208.00 119.00 L 209.00 96.00 L 199.00 58.00 L 176.00 28.00 L 164.00 18.00 L 143.00 7.00 L 120.00 1.00 Z M 92.00 37.00 L 120.00 38.00 L 120.00 89.00 L 194.00 89.00 L 196.00 91.00 L 195.00 119.00 L 119.00 119.00 L 119.00 171.00 L 91.00 170.00 L 90.00 119.00 L 14.00 118.00 L 13.00 91.00 L 15.00 89.00 L 91.00 88.00 L 90.00 42.00 Z" fill="#000" fill-rule="evenodd" />
</svg>
